<svg width="617" height="500" viewBox="0 0 617 500" fill="none" xmlns="http://www.w3.org/2000/svg">
	<circle opacity="0.4" cx="308.5" cy="292.5" r="250" stroke="white" />
	<circle opacity="0.4" cx="308.5" cy="292.5" r="237" stroke="white" stroke-dasharray="2 2" />
	<circle opacity="0.4" cx="308.5" cy="292.5" r="177" stroke="white" stroke-dasharray="2 2" />
	<circle opacity="0.3" cx="308.5" cy="292.5" r="23" stroke="white" stroke-dasharray="2 2" />
	<circle opacity="0.3" cx="308.5" cy="292.5" r="6" fill="#D9D9D9" stroke="white" stroke-dasharray="2 2" />
	<circle opacity="0.4" cx="308.5" cy="292.5" r="308" stroke="white" stroke-dasharray="8 8" />
	<path opacity="0.7" d="M308.5 159C234.77 159 175 218.77 175 292.5C175 310.754 178.664 328.152 185.296 344" stroke="url(#paint0_linear_13317_7612)" stroke-width="40" />
	<path opacity="0.7" d="M319 159.406C387.822 164.761 442 222.303 442 292.499C442 307.916 439.387 322.722 434.579 336.499" stroke="url(#paint1_linear_13317_7612)" stroke-width="40" />
	<path opacity="0.7" d="M193.89 361C217.212 399.936 259.812 426 308.5 426C358.223 426 401.597 398.816 424.571 358.5" stroke="url(#paint2_linear_13317_7612)" stroke-width="40" />
	<circle cx="182" cy="347" r="60" fill="url(#paint3_linear_13317_7612)" />
	<path d="M155 226.744L199.904 212L214.649 256.904" stroke="black" stroke-width="8" />
	<path d="M442.721 191.01L430.712 236.722L385 224.712" stroke="black" stroke-width="8" />
	<path d="M334.9 456.641L299 425.9L329.741 390" stroke="black" stroke-width="8" />
	<path d="M151.056 363.992C151.056 363.939 151.072 363.896 151.104 363.864C151.147 363.821 151.195 363.8 151.248 363.8H153.12C153.173 363.8 153.216 363.821 153.248 363.864C153.291 363.896 153.312 363.939 153.312 363.992V372.984C153.312 373.037 153.339 373.064 153.392 373.064H158.624C158.677 373.064 158.72 373.085 158.752 373.128C158.795 373.16 158.816 373.203 158.816 373.256V374.808C158.816 374.861 158.795 374.909 158.752 374.952C158.72 374.984 158.677 375 158.624 375H151.248C151.195 375 151.147 374.984 151.104 374.952C151.072 374.909 151.056 374.861 151.056 374.808V363.992ZM167.925 365.544C167.925 365.597 167.904 365.645 167.861 365.688C167.829 365.72 167.787 365.736 167.733 365.736H162.501C162.448 365.736 162.421 365.763 162.421 365.816V368.296C162.421 368.349 162.448 368.376 162.501 368.376H165.925C165.979 368.376 166.021 368.397 166.053 368.44C166.096 368.472 166.117 368.515 166.117 368.568V370.12C166.117 370.173 166.096 370.221 166.053 370.264C166.021 370.296 165.979 370.312 165.925 370.312H162.501C162.448 370.312 162.421 370.339 162.421 370.392V372.984C162.421 373.037 162.448 373.064 162.501 373.064H167.733C167.787 373.064 167.829 373.085 167.861 373.128C167.904 373.16 167.925 373.203 167.925 373.256V374.808C167.925 374.861 167.904 374.909 167.861 374.952C167.829 374.984 167.787 375 167.733 375H160.357C160.304 375 160.256 374.984 160.213 374.952C160.181 374.909 160.165 374.861 160.165 374.808V363.992C160.165 363.939 160.181 363.896 160.213 363.864C160.256 363.821 160.304 363.8 160.357 363.8H167.733C167.787 363.8 167.829 363.821 167.861 363.864C167.904 363.896 167.925 363.939 167.925 363.992V365.544ZM175.972 363.992C175.972 363.939 175.988 363.896 176.02 363.864C176.063 363.821 176.111 363.8 176.164 363.8H178.036C178.09 363.8 178.132 363.821 178.164 363.864C178.207 363.896 178.228 363.939 178.228 363.992V374.808C178.228 374.861 178.207 374.909 178.164 374.952C178.132 374.984 178.09 375 178.036 375H176.02C175.903 375 175.823 374.957 175.78 374.872L171.86 368.088C171.839 368.056 171.818 368.045 171.796 368.056C171.775 368.056 171.764 368.077 171.764 368.12L171.78 374.808C171.78 374.861 171.759 374.909 171.716 374.952C171.684 374.984 171.642 375 171.588 375H169.716C169.663 375 169.615 374.984 169.572 374.952C169.54 374.909 169.524 374.861 169.524 374.808V363.992C169.524 363.939 169.54 363.896 169.572 363.864C169.615 363.821 169.663 363.8 169.716 363.8H171.748C171.855 363.8 171.935 363.843 171.988 363.928L175.876 370.712C175.898 370.744 175.919 370.76 175.94 370.76C175.962 370.749 175.972 370.723 175.972 370.68V363.992ZM180.322 363.992C180.322 363.939 180.338 363.896 180.37 363.864C180.412 363.821 180.46 363.8 180.514 363.8H184.498C185.298 363.8 186.002 363.944 186.61 364.232C187.218 364.509 187.687 364.904 188.018 365.416C188.348 365.928 188.514 366.52 188.514 367.192V371.608C188.514 372.28 188.348 372.872 188.018 373.384C187.687 373.896 187.218 374.296 186.61 374.584C186.002 374.861 185.298 375 184.498 375H180.514C180.46 375 180.412 374.984 180.37 374.952C180.338 374.909 180.322 374.861 180.322 374.808V363.992ZM184.594 373.064C185.084 373.064 185.479 372.899 185.778 372.568C186.076 372.237 186.236 371.795 186.258 371.24V367.56C186.258 367.005 186.103 366.563 185.794 366.232C185.495 365.901 185.09 365.736 184.578 365.736H182.658C182.604 365.736 182.578 365.763 182.578 365.816V372.984C182.578 373.037 182.604 373.064 182.658 373.064H184.594ZM190.212 363.992C190.212 363.939 190.228 363.896 190.26 363.864C190.303 363.821 190.351 363.8 190.404 363.8H192.276C192.33 363.8 192.372 363.821 192.404 363.864C192.447 363.896 192.468 363.939 192.468 363.992V374.808C192.468 374.861 192.447 374.909 192.404 374.952C192.372 374.984 192.33 375 192.276 375H190.404C190.351 375 190.303 374.984 190.26 374.952C190.228 374.909 190.212 374.861 190.212 374.808V363.992ZM201.004 363.992C201.004 363.939 201.02 363.896 201.052 363.864C201.094 363.821 201.142 363.8 201.196 363.8H203.068C203.121 363.8 203.164 363.821 203.196 363.864C203.238 363.896 203.26 363.939 203.26 363.992V374.808C203.26 374.861 203.238 374.909 203.196 374.952C203.164 374.984 203.121 375 203.068 375H201.052C200.934 375 200.854 374.957 200.812 374.872L196.892 368.088C196.87 368.056 196.849 368.045 196.828 368.056C196.806 368.056 196.796 368.077 196.796 368.12L196.812 374.808C196.812 374.861 196.79 374.909 196.748 374.952C196.716 374.984 196.673 375 196.62 375H194.748C194.694 375 194.646 374.984 194.604 374.952C194.572 374.909 194.556 374.861 194.556 374.808V363.992C194.556 363.939 194.572 363.896 194.604 363.864C194.646 363.821 194.694 363.8 194.748 363.8H196.78C196.886 363.8 196.966 363.843 197.02 363.928L200.908 370.712C200.929 370.744 200.95 370.76 200.972 370.76C200.993 370.749 201.004 370.723 201.004 370.68V363.992ZM209.065 375.128C208.244 375.128 207.518 374.963 206.889 374.632C206.26 374.301 205.774 373.843 205.433 373.256C205.092 372.659 204.921 371.971 204.921 371.192V367.608C204.921 366.829 205.092 366.141 205.433 365.544C205.774 364.947 206.26 364.488 206.889 364.168C207.518 363.837 208.244 363.672 209.065 363.672C209.876 363.672 210.596 363.832 211.225 364.152C211.854 364.461 212.34 364.893 212.681 365.448C213.033 366.003 213.209 366.616 213.209 367.288V367.4C213.209 367.453 213.188 367.501 213.145 367.544C213.113 367.576 213.07 367.592 213.017 367.592H211.145C211.092 367.592 211.044 367.576 211.001 367.544C210.969 367.501 210.953 367.453 210.953 367.4V367.352C210.953 366.851 210.782 366.435 210.441 366.104C210.1 365.773 209.641 365.608 209.065 365.608C208.5 365.608 208.041 365.789 207.689 366.152C207.348 366.504 207.177 366.968 207.177 367.544V371.256C207.177 371.832 207.364 372.301 207.737 372.664C208.11 373.016 208.585 373.192 209.161 373.192C209.716 373.192 210.158 373.048 210.489 372.76C210.82 372.461 210.985 372.051 210.985 371.528V370.808C210.985 370.755 210.958 370.728 210.905 370.728H209.113C209.06 370.728 209.012 370.712 208.969 370.68C208.937 370.637 208.921 370.589 208.921 370.536V369.064C208.921 369.011 208.937 368.968 208.969 368.936C209.012 368.893 209.06 368.872 209.113 368.872H213.017C213.07 368.872 213.113 368.893 213.145 368.936C213.188 368.968 213.209 369.011 213.209 369.064V371.176C213.209 371.987 213.038 372.691 212.697 373.288C212.356 373.885 211.87 374.344 211.241 374.664C210.622 374.973 209.897 375.128 209.065 375.128Z" fill="white" />
	<path d="M57.612 207.4C57.672 207.4 57.72 207.424 57.756 207.472C57.804 207.508 57.828 207.556 57.828 207.616V209.38C57.828 209.44 57.804 209.494 57.756 209.542C57.72 209.578 57.672 209.596 57.612 209.596H54.372C54.312 209.596 54.282 209.626 54.282 209.686V219.784C54.282 219.844 54.258 219.898 54.21 219.946C54.174 219.982 54.126 220 54.066 220H51.96C51.9 220 51.846 219.982 51.798 219.946C51.762 219.898 51.744 219.844 51.744 219.784V209.686C51.744 209.626 51.714 209.596 51.654 209.596H48.54C48.48 209.596 48.426 209.578 48.378 209.542C48.342 209.494 48.324 209.44 48.324 209.38V207.616C48.324 207.556 48.342 207.508 48.378 207.472C48.426 207.424 48.48 207.4 48.54 207.4H57.612ZM63.6142 220.198C62.6782 220.198 61.8502 220.006 61.1302 219.622C60.4222 219.238 59.8702 218.704 59.4742 218.02C59.0782 217.324 58.8802 216.526 58.8802 215.626V211.774C58.8802 210.886 59.0782 210.1 59.4742 209.416C59.8702 208.732 60.4222 208.204 61.1302 207.832C61.8502 207.448 62.6782 207.256 63.6142 207.256C64.5502 207.256 65.3782 207.448 66.0982 207.832C66.8182 208.204 67.3762 208.732 67.7722 209.416C68.1682 210.1 68.3662 210.886 68.3662 211.774V215.626C68.3662 216.526 68.1682 217.324 67.7722 218.02C67.3762 218.704 66.8182 219.238 66.0982 219.622C65.3782 220.006 64.5502 220.198 63.6142 220.198ZM63.6142 218.02C64.2742 218.02 64.8082 217.81 65.2162 217.39C65.6242 216.97 65.8282 216.412 65.8282 215.716V211.756C65.8282 211.06 65.6242 210.502 65.2162 210.082C64.8202 209.65 64.2862 209.434 63.6142 209.434C62.9542 209.434 62.4202 209.65 62.0122 210.082C61.6162 210.502 61.4182 211.06 61.4182 211.756V215.716C61.4182 216.412 61.6162 216.97 62.0122 217.39C62.4202 217.81 62.9542 218.02 63.6142 218.02ZM77.1758 220C77.0558 220 76.9718 219.946 76.9238 219.838L74.6738 214.852C74.6498 214.804 74.6138 214.78 74.5658 214.78H72.9098C72.8498 214.78 72.8198 214.81 72.8198 214.87V219.784C72.8198 219.844 72.7958 219.898 72.7478 219.946C72.7118 219.982 72.6638 220 72.6038 220H70.4978C70.4378 220 70.3838 219.982 70.3358 219.946C70.2998 219.898 70.2817 219.844 70.2817 219.784V207.616C70.2817 207.556 70.2998 207.508 70.3358 207.472C70.3838 207.424 70.4378 207.4 70.4978 207.4H75.6458C76.4018 207.4 77.0678 207.562 77.6438 207.886C78.2318 208.198 78.6878 208.642 79.0117 209.218C79.3358 209.782 79.4978 210.442 79.4978 211.198C79.4978 212.002 79.2878 212.698 78.8678 213.286C78.4598 213.862 77.8958 214.276 77.1758 214.528C77.1158 214.552 77.0978 214.594 77.1218 214.654L79.5518 219.748C79.5758 219.796 79.5878 219.832 79.5878 219.856C79.5878 219.952 79.5218 220 79.3898 220H77.1758ZM72.9098 209.578C72.8498 209.578 72.8198 209.608 72.8198 209.668V212.746C72.8198 212.806 72.8498 212.836 72.9098 212.836H75.2498C75.7658 212.836 76.1798 212.686 76.4918 212.386C76.8038 212.086 76.9598 211.696 76.9598 211.216C76.9598 210.724 76.8038 210.328 76.4918 210.028C76.1798 209.728 75.7658 209.578 75.2498 209.578H72.9098ZM92.9888 207.544C93.0368 207.448 93.1208 207.4 93.2408 207.4H95.3468C95.4068 207.4 95.4548 207.424 95.4908 207.472C95.5388 207.508 95.5628 207.556 95.5628 207.616V219.784C95.5628 219.844 95.5388 219.898 95.4908 219.946C95.4548 219.982 95.4068 220 95.3468 220H93.2408C93.1808 220 93.1268 219.982 93.0788 219.946C93.0428 219.898 93.0248 219.844 93.0248 219.784V211.882C93.0248 211.834 93.0128 211.81 92.9888 211.81C92.9648 211.798 92.9408 211.81 92.9168 211.846L91.0088 214.978C90.9608 215.074 90.8768 215.122 90.7568 215.122H89.7128C89.5928 215.122 89.5088 215.074 89.4608 214.978L87.5348 211.864C87.5108 211.828 87.4868 211.816 87.4628 211.828C87.4388 211.828 87.4268 211.852 87.4268 211.9V219.784C87.4268 219.844 87.4028 219.898 87.3548 219.946C87.3188 219.982 87.2708 220 87.2108 220H85.1048C85.0448 220 84.9908 219.982 84.9428 219.946C84.9068 219.898 84.8888 219.844 84.8888 219.784V207.616C84.8888 207.556 84.9068 207.508 84.9428 207.472C84.9908 207.424 85.0448 207.4 85.1048 207.4H87.2108C87.3308 207.4 87.4148 207.448 87.4628 207.544L90.1808 211.828C90.2168 211.9 90.2528 211.9 90.2888 211.828L92.9888 207.544ZM99.1026 209.704C98.6946 209.704 98.3586 209.572 98.0946 209.308C97.8306 209.032 97.6986 208.69 97.6986 208.282C97.6986 207.862 97.8306 207.52 98.0946 207.256C98.3586 206.992 98.6946 206.86 99.1026 206.86C99.5226 206.86 99.8646 206.992 100.129 207.256C100.393 207.52 100.525 207.862 100.525 208.282C100.525 208.69 100.387 209.032 100.111 209.308C99.8466 209.572 99.5106 209.704 99.1026 209.704ZM97.8066 210.946C97.8066 210.886 97.8246 210.838 97.8606 210.802C97.9086 210.754 97.9626 210.73 98.0226 210.73H100.129C100.189 210.73 100.237 210.754 100.273 210.802C100.321 210.838 100.345 210.886 100.345 210.946V219.784C100.345 219.844 100.321 219.898 100.273 219.946C100.237 219.982 100.189 220 100.129 220H98.0226C97.9626 220 97.9086 219.982 97.8606 219.946C97.8246 219.898 97.8066 219.844 97.8066 219.784V210.946ZM107.252 210.604C108.212 210.604 108.986 210.898 109.574 211.486C110.162 212.074 110.456 212.872 110.456 213.88V219.784C110.456 219.844 110.432 219.898 110.384 219.946C110.348 219.982 110.3 220 110.24 220H108.134C108.074 220 108.02 219.982 107.972 219.946C107.936 219.898 107.918 219.844 107.918 219.784V214.402C107.918 213.922 107.786 213.532 107.522 213.232C107.258 212.932 106.904 212.782 106.46 212.782C106.016 212.782 105.656 212.932 105.38 213.232C105.104 213.532 104.966 213.922 104.966 214.402V219.784C104.966 219.844 104.942 219.898 104.894 219.946C104.858 219.982 104.81 220 104.75 220H102.644C102.584 220 102.53 219.982 102.482 219.946C102.446 219.898 102.428 219.844 102.428 219.784V210.964C102.428 210.904 102.446 210.856 102.482 210.82C102.53 210.772 102.584 210.748 102.644 210.748H104.75C104.81 210.748 104.858 210.772 104.894 210.82C104.942 210.856 104.966 210.904 104.966 210.964V211.594C104.966 211.63 104.978 211.654 105.002 211.666C105.026 211.678 105.044 211.672 105.056 211.648C105.548 210.952 106.28 210.604 107.252 210.604ZM113.798 209.704C113.39 209.704 113.054 209.572 112.79 209.308C112.526 209.032 112.394 208.69 112.394 208.282C112.394 207.862 112.526 207.52 112.79 207.256C113.054 206.992 113.39 206.86 113.798 206.86C114.218 206.86 114.56 206.992 114.824 207.256C115.088 207.52 115.22 207.862 115.22 208.282C115.22 208.69 115.082 209.032 114.806 209.308C114.542 209.572 114.206 209.704 113.798 209.704ZM112.502 210.946C112.502 210.886 112.52 210.838 112.556 210.802C112.604 210.754 112.658 210.73 112.718 210.73H114.824C114.884 210.73 114.932 210.754 114.968 210.802C115.016 210.838 115.04 210.886 115.04 210.946V219.784C115.04 219.844 115.016 219.898 114.968 219.946C114.932 219.982 114.884 220 114.824 220H112.718C112.658 220 112.604 219.982 112.556 219.946C112.52 219.898 112.502 219.844 112.502 219.784V210.946ZM121.947 210.604C122.907 210.604 123.681 210.898 124.269 211.486C124.857 212.074 125.151 212.872 125.151 213.88V219.784C125.151 219.844 125.127 219.898 125.079 219.946C125.043 219.982 124.995 220 124.935 220H122.829C122.769 220 122.715 219.982 122.667 219.946C122.631 219.898 122.613 219.844 122.613 219.784V214.402C122.613 213.922 122.481 213.532 122.217 213.232C121.953 212.932 121.599 212.782 121.155 212.782C120.711 212.782 120.351 212.932 120.075 213.232C119.799 213.532 119.661 213.922 119.661 214.402V219.784C119.661 219.844 119.637 219.898 119.589 219.946C119.553 219.982 119.505 220 119.445 220H117.339C117.279 220 117.225 219.982 117.177 219.946C117.141 219.898 117.123 219.844 117.123 219.784V210.964C117.123 210.904 117.141 210.856 117.177 210.82C117.225 210.772 117.279 210.748 117.339 210.748H119.445C119.505 210.748 119.553 210.772 119.589 210.82C119.637 210.856 119.661 210.904 119.661 210.964V211.594C119.661 211.63 119.673 211.654 119.697 211.666C119.721 211.678 119.739 211.672 119.751 211.648C120.243 210.952 120.975 210.604 121.947 210.604ZM132.651 210.964C132.651 210.904 132.669 210.856 132.705 210.82C132.753 210.772 132.807 210.748 132.867 210.748H134.973C135.033 210.748 135.081 210.772 135.117 210.82C135.165 210.856 135.189 210.904 135.189 210.964V219.172C135.189 220.744 134.733 221.866 133.821 222.538C132.921 223.21 131.757 223.546 130.329 223.546C129.909 223.546 129.441 223.516 128.925 223.456C128.805 223.444 128.745 223.366 128.745 223.222L128.817 221.368C128.817 221.212 128.901 221.146 129.069 221.17C129.501 221.242 129.897 221.278 130.257 221.278C131.025 221.278 131.613 221.11 132.021 220.774C132.441 220.438 132.651 219.898 132.651 219.154C132.651 219.118 132.639 219.1 132.615 219.1C132.591 219.088 132.567 219.094 132.543 219.118C132.087 219.61 131.421 219.856 130.545 219.856C129.765 219.856 129.045 219.67 128.385 219.298C127.737 218.914 127.275 218.302 126.999 217.462C126.819 216.91 126.729 216.196 126.729 215.32C126.729 214.384 126.837 213.622 127.053 213.034C127.305 212.302 127.731 211.714 128.331 211.27C128.931 210.826 129.633 210.604 130.437 210.604C131.349 210.604 132.051 210.88 132.543 211.432C132.567 211.456 132.591 211.468 132.615 211.468C132.639 211.456 132.651 211.432 132.651 211.396V210.964ZM132.507 216.778C132.603 216.418 132.651 215.926 132.651 215.302C132.651 214.93 132.639 214.642 132.615 214.438C132.591 214.234 132.549 214.042 132.489 213.862C132.393 213.538 132.213 213.28 131.949 213.088C131.697 212.884 131.385 212.782 131.013 212.782C130.653 212.782 130.347 212.884 130.095 213.088C129.843 213.28 129.657 213.538 129.537 213.862C129.381 214.186 129.303 214.672 129.303 215.32C129.303 215.98 129.369 216.46 129.501 216.76C129.609 217.084 129.795 217.348 130.059 217.552C130.335 217.744 130.659 217.84 131.031 217.84C131.415 217.84 131.733 217.744 131.985 217.552C132.237 217.348 132.411 217.09 132.507 216.778Z" fill="white" />
	<path d="M493.812 207.58C493.848 207.46 493.932 207.4 494.064 207.4H496.278C496.35 207.4 496.404 207.424 496.44 207.472C496.476 207.52 496.482 207.58 496.458 207.652L492.714 219.82C492.678 219.94 492.6 220 492.48 220H490.212C490.092 220 490.014 219.94 489.978 219.82L486.252 207.652L486.234 207.58C486.234 207.46 486.3 207.4 486.432 207.4H488.7C488.832 207.4 488.916 207.46 488.952 207.58L491.346 216.472C491.358 216.508 491.376 216.526 491.4 216.526C491.424 216.526 491.442 216.508 491.454 216.472L493.812 207.58ZM504.738 214.42C504.81 214.876 504.834 215.386 504.81 215.95C504.798 216.094 504.72 216.166 504.576 216.166H499.014C498.99 216.166 498.966 216.178 498.942 216.202C498.918 216.214 498.912 216.232 498.924 216.256C498.972 216.52 499.044 216.76 499.14 216.976C499.452 217.648 500.088 217.984 501.048 217.984C501.804 217.972 502.404 217.66 502.848 217.048C502.908 216.976 502.962 216.94 503.01 216.94C503.058 216.94 503.106 216.964 503.154 217.012L504.432 218.29C504.48 218.338 504.504 218.392 504.504 218.452C504.504 218.488 504.486 218.536 504.45 218.596C504.066 219.088 503.562 219.472 502.938 219.748C502.314 220.012 501.63 220.144 500.886 220.144C499.854 220.144 498.978 219.91 498.258 219.442C497.55 218.974 497.04 218.32 496.728 217.48C496.476 216.88 496.35 216.088 496.35 215.104C496.35 214.48 496.434 213.904 496.602 213.376C496.89 212.524 497.376 211.846 498.06 211.342C498.756 210.838 499.578 210.586 500.526 210.586C501.726 210.586 502.686 210.934 503.406 211.63C504.126 212.326 504.57 213.256 504.738 214.42ZM500.526 212.782C499.782 212.782 499.29 213.136 499.05 213.844C499.002 213.988 498.96 214.18 498.924 214.42C498.924 214.48 498.954 214.51 499.014 214.51H502.128C502.2 214.51 502.224 214.48 502.2 214.42C502.14 214.072 502.11 213.904 502.11 213.916C502.002 213.556 501.81 213.28 501.534 213.088C501.27 212.884 500.934 212.782 500.526 212.782ZM514.948 207.4C515.008 207.4 515.056 207.424 515.092 207.472C515.14 207.508 515.164 207.556 515.164 207.616V209.38C515.164 209.44 515.14 209.494 515.092 209.542C515.056 209.578 515.008 209.596 514.948 209.596H511.708C511.648 209.596 511.618 209.626 511.618 209.686V219.784C511.618 219.844 511.594 219.898 511.546 219.946C511.51 219.982 511.462 220 511.402 220H509.296C509.236 220 509.182 219.982 509.134 219.946C509.098 219.898 509.08 219.844 509.08 219.784V209.686C509.08 209.626 509.05 209.596 508.99 209.596H505.876C505.816 209.596 505.762 209.578 505.714 209.542C505.678 209.494 505.66 209.44 505.66 209.38V207.616C505.66 207.556 505.678 207.508 505.714 207.472C505.762 207.424 505.816 207.4 505.876 207.4H514.948ZM520.95 220.198C520.014 220.198 519.186 220.006 518.466 219.622C517.758 219.238 517.206 218.704 516.81 218.02C516.414 217.324 516.216 216.526 516.216 215.626V211.774C516.216 210.886 516.414 210.1 516.81 209.416C517.206 208.732 517.758 208.204 518.466 207.832C519.186 207.448 520.014 207.256 520.95 207.256C521.886 207.256 522.714 207.448 523.434 207.832C524.154 208.204 524.712 208.732 525.108 209.416C525.504 210.1 525.702 210.886 525.702 211.774V215.626C525.702 216.526 525.504 217.324 525.108 218.02C524.712 218.704 524.154 219.238 523.434 219.622C522.714 220.006 521.886 220.198 520.95 220.198ZM520.95 218.02C521.61 218.02 522.144 217.81 522.552 217.39C522.96 216.97 523.164 216.412 523.164 215.716V211.756C523.164 211.06 522.96 210.502 522.552 210.082C522.156 209.65 521.622 209.434 520.95 209.434C520.29 209.434 519.756 209.65 519.348 210.082C518.952 210.502 518.754 211.06 518.754 211.756V215.716C518.754 216.412 518.952 216.97 519.348 217.39C519.756 217.81 520.29 218.02 520.95 218.02ZM534.512 220C534.392 220 534.308 219.946 534.26 219.838L532.01 214.852C531.986 214.804 531.95 214.78 531.902 214.78H530.246C530.186 214.78 530.156 214.81 530.156 214.87V219.784C530.156 219.844 530.132 219.898 530.084 219.946C530.048 219.982 530 220 529.94 220H527.834C527.774 220 527.72 219.982 527.672 219.946C527.636 219.898 527.618 219.844 527.618 219.784V207.616C527.618 207.556 527.636 207.508 527.672 207.472C527.72 207.424 527.774 207.4 527.834 207.4H532.982C533.738 207.4 534.404 207.562 534.98 207.886C535.568 208.198 536.024 208.642 536.348 209.218C536.672 209.782 536.834 210.442 536.834 211.198C536.834 212.002 536.624 212.698 536.204 213.286C535.796 213.862 535.232 214.276 534.512 214.528C534.452 214.552 534.434 214.594 534.458 214.654L536.888 219.748C536.912 219.796 536.924 219.832 536.924 219.856C536.924 219.952 536.858 220 536.726 220H534.512ZM530.246 209.578C530.186 209.578 530.156 209.608 530.156 209.668V212.746C530.156 212.806 530.186 212.836 530.246 212.836H532.586C533.102 212.836 533.516 212.686 533.828 212.386C534.14 212.086 534.296 211.696 534.296 211.216C534.296 210.724 534.14 210.328 533.828 210.028C533.516 209.728 533.102 209.578 532.586 209.578H530.246Z" fill="white" />
	<path d="M231.964 467.616C231.964 467.556 231.982 467.508 232.018 467.472C232.066 467.424 232.12 467.4 232.18 467.4H234.286C234.346 467.4 234.394 467.424 234.43 467.472C234.478 467.508 234.502 467.556 234.502 467.616V479.784C234.502 479.844 234.478 479.898 234.43 479.946C234.394 479.982 234.346 480 234.286 480H232.18C232.12 480 232.066 479.982 232.018 479.946C231.982 479.898 231.964 479.844 231.964 479.784V467.616ZM241.513 470.604C242.473 470.604 243.247 470.898 243.835 471.486C244.423 472.074 244.717 472.872 244.717 473.88V479.784C244.717 479.844 244.693 479.898 244.645 479.946C244.609 479.982 244.561 480 244.501 480H242.395C242.335 480 242.281 479.982 242.233 479.946C242.197 479.898 242.179 479.844 242.179 479.784V474.402C242.179 473.922 242.047 473.532 241.783 473.232C241.519 472.932 241.165 472.782 240.721 472.782C240.277 472.782 239.917 472.932 239.641 473.232C239.365 473.532 239.227 473.922 239.227 474.402V479.784C239.227 479.844 239.203 479.898 239.155 479.946C239.119 479.982 239.071 480 239.011 480H236.905C236.845 480 236.791 479.982 236.743 479.946C236.707 479.898 236.689 479.844 236.689 479.784V470.964C236.689 470.904 236.707 470.856 236.743 470.82C236.791 470.772 236.845 470.748 236.905 470.748H239.011C239.071 470.748 239.119 470.772 239.155 470.82C239.203 470.856 239.227 470.904 239.227 470.964V471.594C239.227 471.63 239.239 471.654 239.263 471.666C239.287 471.678 239.305 471.672 239.317 471.648C239.809 470.952 240.541 470.604 241.513 470.604ZM250.597 480.144C249.637 480.144 248.803 479.904 248.095 479.424C247.399 478.944 246.901 478.284 246.601 477.444C246.397 476.844 246.295 476.136 246.295 475.32C246.295 474.516 246.397 473.82 246.601 473.232C246.889 472.416 247.387 471.774 248.095 471.306C248.815 470.838 249.649 470.604 250.597 470.604C251.557 470.604 252.397 470.844 253.117 471.324C253.849 471.804 254.335 472.41 254.575 473.142C254.671 473.43 254.719 473.646 254.719 473.79V473.826C254.719 473.934 254.659 474 254.539 474.024L252.469 474.33H252.433C252.325 474.33 252.253 474.27 252.217 474.15L252.163 473.862C252.079 473.55 251.893 473.292 251.605 473.088C251.317 472.884 250.975 472.782 250.579 472.782C250.195 472.782 249.871 472.878 249.607 473.07C249.343 473.262 249.157 473.526 249.049 473.862C248.917 474.222 248.851 474.714 248.851 475.338C248.851 475.962 248.911 476.454 249.031 476.814C249.139 477.174 249.325 477.456 249.589 477.66C249.865 477.864 250.195 477.966 250.579 477.966C250.963 477.966 251.293 477.87 251.569 477.678C251.845 477.474 252.037 477.198 252.145 476.85C252.157 476.826 252.163 476.79 252.163 476.742C252.175 476.73 252.181 476.712 252.181 476.688C252.193 476.544 252.277 476.484 252.433 476.508L254.503 476.832C254.623 476.856 254.683 476.922 254.683 477.03C254.683 477.126 254.647 477.306 254.575 477.57C254.323 478.374 253.831 479.004 253.099 479.46C252.379 479.916 251.545 480.144 250.597 480.144ZM260.791 470.622C261.211 470.622 261.547 470.706 261.799 470.874C261.895 470.922 261.931 471.012 261.907 471.144L261.547 473.196C261.535 473.34 261.451 473.382 261.295 473.322C261.115 473.262 260.899 473.232 260.647 473.232C260.575 473.232 260.443 473.244 260.251 473.268C259.819 473.304 259.453 473.466 259.153 473.754C258.853 474.03 258.703 474.402 258.703 474.87V479.784C258.703 479.844 258.679 479.898 258.631 479.946C258.595 479.982 258.547 480 258.487 480H256.381C256.321 480 256.267 479.982 256.219 479.946C256.183 479.898 256.165 479.844 256.165 479.784V470.964C256.165 470.904 256.183 470.856 256.219 470.82C256.267 470.772 256.321 470.748 256.381 470.748H258.487C258.547 470.748 258.595 470.772 258.631 470.82C258.679 470.856 258.703 470.904 258.703 470.964V471.648C258.703 471.684 258.715 471.708 258.739 471.72C258.763 471.732 258.781 471.726 258.793 471.702C259.285 470.982 259.951 470.622 260.791 470.622ZM271.083 474.42C271.155 474.876 271.179 475.386 271.155 475.95C271.143 476.094 271.065 476.166 270.921 476.166H265.359C265.335 476.166 265.311 476.178 265.287 476.202C265.263 476.214 265.257 476.232 265.269 476.256C265.317 476.52 265.389 476.76 265.485 476.976C265.797 477.648 266.433 477.984 267.393 477.984C268.149 477.972 268.749 477.66 269.193 477.048C269.253 476.976 269.307 476.94 269.355 476.94C269.403 476.94 269.451 476.964 269.499 477.012L270.777 478.29C270.825 478.338 270.849 478.392 270.849 478.452C270.849 478.488 270.831 478.536 270.795 478.596C270.411 479.088 269.907 479.472 269.283 479.748C268.659 480.012 267.975 480.144 267.231 480.144C266.199 480.144 265.323 479.91 264.603 479.442C263.895 478.974 263.385 478.32 263.073 477.48C262.821 476.88 262.695 476.088 262.695 475.104C262.695 474.48 262.779 473.904 262.947 473.376C263.235 472.524 263.721 471.846 264.405 471.342C265.101 470.838 265.923 470.586 266.871 470.586C268.071 470.586 269.031 470.934 269.751 471.63C270.471 472.326 270.915 473.256 271.083 474.42ZM266.871 472.782C266.127 472.782 265.635 473.136 265.395 473.844C265.347 473.988 265.305 474.18 265.269 474.42C265.269 474.48 265.299 474.51 265.359 474.51H268.473C268.545 474.51 268.569 474.48 268.545 474.42C268.485 474.072 268.455 473.904 268.455 473.916C268.347 473.556 268.155 473.28 267.879 473.088C267.615 472.884 267.279 472.782 266.871 472.782ZM276.361 470.604C277.141 470.604 277.837 470.742 278.449 471.018C279.061 471.282 279.535 471.648 279.871 472.116C280.219 472.584 280.393 473.106 280.393 473.682V479.784C280.393 479.844 280.369 479.898 280.321 479.946C280.285 479.982 280.237 480 280.177 480H278.071C278.011 480 277.957 479.982 277.909 479.946C277.873 479.898 277.855 479.844 277.855 479.784V479.19C277.855 479.154 277.843 479.13 277.819 479.118C277.795 479.106 277.771 479.118 277.747 479.154C277.231 479.814 276.415 480.144 275.299 480.144C274.375 480.144 273.625 479.916 273.049 479.46C272.473 479.004 272.185 478.332 272.185 477.444C272.185 476.52 272.509 475.806 273.157 475.302C273.805 474.786 274.729 474.528 275.929 474.528H277.765C277.825 474.528 277.855 474.498 277.855 474.438V474.042C277.855 473.646 277.729 473.34 277.477 473.124C277.237 472.896 276.883 472.782 276.415 472.782C276.043 472.782 275.731 472.848 275.479 472.98C275.239 473.112 275.083 473.298 275.011 473.538C274.975 473.67 274.897 473.73 274.777 473.718L272.599 473.43C272.455 473.406 272.389 473.352 272.401 473.268C272.449 472.764 272.647 472.308 272.995 471.9C273.355 471.492 273.823 471.174 274.399 470.946C274.987 470.718 275.641 470.604 276.361 470.604ZM276.001 478.254C276.517 478.254 276.955 478.116 277.315 477.84C277.675 477.564 277.855 477.21 277.855 476.778V476.13C277.855 476.07 277.825 476.04 277.765 476.04H276.469C275.929 476.04 275.503 476.142 275.191 476.346C274.891 476.55 274.741 476.838 274.741 477.21C274.741 477.534 274.855 477.792 275.083 477.984C275.311 478.164 275.617 478.254 276.001 478.254ZM285.707 480.126C284.903 480.126 284.201 480.012 283.601 479.784C283.001 479.556 282.539 479.238 282.215 478.83C281.891 478.422 281.729 477.96 281.729 477.444V477.264C281.729 477.204 281.747 477.156 281.783 477.12C281.831 477.072 281.885 477.048 281.945 477.048H283.943C284.003 477.048 284.051 477.072 284.087 477.12C284.135 477.156 284.159 477.204 284.159 477.264V477.282C284.159 477.546 284.303 477.774 284.591 477.966C284.879 478.146 285.245 478.236 285.689 478.236C286.097 478.236 286.427 478.158 286.679 478.002C286.931 477.846 287.057 477.642 287.057 477.39C287.057 477.174 286.949 477.012 286.733 476.904C286.517 476.796 286.163 476.682 285.671 476.562C285.107 476.418 284.663 476.28 284.339 476.148C283.571 475.884 282.959 475.56 282.503 475.176C282.047 474.792 281.819 474.24 281.819 473.52C281.819 472.632 282.167 471.93 282.863 471.414C283.559 470.886 284.471 470.622 285.599 470.622C286.367 470.622 287.039 470.748 287.615 471C288.203 471.24 288.653 471.582 288.965 472.026C289.289 472.47 289.451 472.974 289.451 473.538C289.451 473.598 289.427 473.652 289.379 473.7C289.343 473.736 289.295 473.754 289.235 473.754H287.291C287.231 473.754 287.177 473.736 287.129 473.7C287.093 473.652 287.075 473.598 287.075 473.538C287.075 473.274 286.943 473.052 286.679 472.872C286.415 472.692 286.061 472.602 285.617 472.602C285.209 472.602 284.879 472.674 284.627 472.818C284.375 472.962 284.249 473.16 284.249 473.412C284.249 473.652 284.369 473.832 284.609 473.952C284.861 474.072 285.269 474.198 285.833 474.33C286.181 474.402 286.517 474.492 286.841 474.6C287.693 474.852 288.365 475.176 288.857 475.572C289.349 475.968 289.595 476.544 289.595 477.3C289.595 478.188 289.241 478.884 288.533 479.388C287.837 479.88 286.895 480.126 285.707 480.126ZM299.155 474.42C299.227 474.876 299.251 475.386 299.227 475.95C299.215 476.094 299.137 476.166 298.993 476.166H293.431C293.407 476.166 293.383 476.178 293.359 476.202C293.335 476.214 293.329 476.232 293.341 476.256C293.389 476.52 293.461 476.76 293.557 476.976C293.869 477.648 294.505 477.984 295.465 477.984C296.221 477.972 296.821 477.66 297.265 477.048C297.325 476.976 297.379 476.94 297.427 476.94C297.475 476.94 297.523 476.964 297.571 477.012L298.849 478.29C298.897 478.338 298.921 478.392 298.921 478.452C298.921 478.488 298.903 478.536 298.867 478.596C298.483 479.088 297.979 479.472 297.355 479.748C296.731 480.012 296.047 480.144 295.303 480.144C294.271 480.144 293.395 479.91 292.675 479.442C291.967 478.974 291.457 478.32 291.145 477.48C290.893 476.88 290.767 476.088 290.767 475.104C290.767 474.48 290.851 473.904 291.019 473.376C291.307 472.524 291.793 471.846 292.477 471.342C293.173 470.838 293.995 470.586 294.943 470.586C296.143 470.586 297.103 470.934 297.823 471.63C298.543 472.326 298.987 473.256 299.155 474.42ZM294.943 472.782C294.199 472.782 293.707 473.136 293.467 473.844C293.419 473.988 293.377 474.18 293.341 474.42C293.341 474.48 293.371 474.51 293.431 474.51H296.545C296.617 474.51 296.641 474.48 296.617 474.42C296.557 474.072 296.527 473.904 296.527 473.916C296.419 473.556 296.227 473.28 295.951 473.088C295.687 472.884 295.351 472.782 294.943 472.782ZM312.626 467.544C312.674 467.448 312.758 467.4 312.878 467.4H314.984C315.044 467.4 315.092 467.424 315.128 467.472C315.176 467.508 315.2 467.556 315.2 467.616V479.784C315.2 479.844 315.176 479.898 315.128 479.946C315.092 479.982 315.044 480 314.984 480H312.878C312.818 480 312.764 479.982 312.716 479.946C312.68 479.898 312.662 479.844 312.662 479.784V471.882C312.662 471.834 312.65 471.81 312.626 471.81C312.602 471.798 312.578 471.81 312.554 471.846L310.646 474.978C310.598 475.074 310.514 475.122 310.394 475.122H309.35C309.23 475.122 309.146 475.074 309.098 474.978L307.172 471.864C307.148 471.828 307.124 471.816 307.1 471.828C307.076 471.828 307.064 471.852 307.064 471.9V479.784C307.064 479.844 307.04 479.898 306.992 479.946C306.956 479.982 306.908 480 306.848 480H304.742C304.682 480 304.628 479.982 304.58 479.946C304.544 479.898 304.526 479.844 304.526 479.784V467.616C304.526 467.556 304.544 467.508 304.58 467.472C304.628 467.424 304.682 467.4 304.742 467.4H306.848C306.968 467.4 307.052 467.448 307.1 467.544L309.818 471.828C309.854 471.9 309.89 471.9 309.926 471.828L312.626 467.544ZM318.74 469.704C318.332 469.704 317.996 469.572 317.732 469.308C317.468 469.032 317.336 468.69 317.336 468.282C317.336 467.862 317.468 467.52 317.732 467.256C317.996 466.992 318.332 466.86 318.74 466.86C319.16 466.86 319.502 466.992 319.766 467.256C320.03 467.52 320.162 467.862 320.162 468.282C320.162 468.69 320.024 469.032 319.748 469.308C319.484 469.572 319.148 469.704 318.74 469.704ZM317.444 470.946C317.444 470.886 317.462 470.838 317.498 470.802C317.546 470.754 317.6 470.73 317.66 470.73H319.766C319.826 470.73 319.874 470.754 319.91 470.802C319.958 470.838 319.982 470.886 319.982 470.946V479.784C319.982 479.844 319.958 479.898 319.91 479.946C319.874 479.982 319.826 480 319.766 480H317.66C317.6 480 317.546 479.982 317.498 479.946C317.462 479.898 317.444 479.844 317.444 479.784V470.946ZM326.89 470.604C327.85 470.604 328.624 470.898 329.212 471.486C329.8 472.074 330.094 472.872 330.094 473.88V479.784C330.094 479.844 330.07 479.898 330.022 479.946C329.986 479.982 329.938 480 329.878 480H327.772C327.712 480 327.658 479.982 327.61 479.946C327.574 479.898 327.556 479.844 327.556 479.784V474.402C327.556 473.922 327.424 473.532 327.16 473.232C326.896 472.932 326.542 472.782 326.098 472.782C325.654 472.782 325.294 472.932 325.018 473.232C324.742 473.532 324.604 473.922 324.604 474.402V479.784C324.604 479.844 324.58 479.898 324.532 479.946C324.496 479.982 324.448 480 324.388 480H322.282C322.222 480 322.168 479.982 322.12 479.946C322.084 479.898 322.066 479.844 322.066 479.784V470.964C322.066 470.904 322.084 470.856 322.12 470.82C322.168 470.772 322.222 470.748 322.282 470.748H324.388C324.448 470.748 324.496 470.772 324.532 470.82C324.58 470.856 324.604 470.904 324.604 470.964V471.594C324.604 471.63 324.616 471.654 324.64 471.666C324.664 471.678 324.682 471.672 324.694 471.648C325.186 470.952 325.918 470.604 326.89 470.604ZM333.436 469.704C333.028 469.704 332.692 469.572 332.428 469.308C332.164 469.032 332.032 468.69 332.032 468.282C332.032 467.862 332.164 467.52 332.428 467.256C332.692 466.992 333.028 466.86 333.436 466.86C333.856 466.86 334.198 466.992 334.462 467.256C334.726 467.52 334.858 467.862 334.858 468.282C334.858 468.69 334.72 469.032 334.444 469.308C334.18 469.572 333.844 469.704 333.436 469.704ZM332.14 470.946C332.14 470.886 332.158 470.838 332.194 470.802C332.242 470.754 332.296 470.73 332.356 470.73H334.462C334.522 470.73 334.57 470.754 334.606 470.802C334.654 470.838 334.678 470.886 334.678 470.946V479.784C334.678 479.844 334.654 479.898 334.606 479.946C334.57 479.982 334.522 480 334.462 480H332.356C332.296 480 332.242 479.982 332.194 479.946C332.158 479.898 332.14 479.844 332.14 479.784V470.946ZM341.585 470.604C342.545 470.604 343.319 470.898 343.907 471.486C344.495 472.074 344.789 472.872 344.789 473.88V479.784C344.789 479.844 344.765 479.898 344.717 479.946C344.681 479.982 344.633 480 344.573 480H342.467C342.407 480 342.353 479.982 342.305 479.946C342.269 479.898 342.251 479.844 342.251 479.784V474.402C342.251 473.922 342.119 473.532 341.855 473.232C341.591 472.932 341.237 472.782 340.793 472.782C340.349 472.782 339.989 472.932 339.713 473.232C339.437 473.532 339.299 473.922 339.299 474.402V479.784C339.299 479.844 339.275 479.898 339.227 479.946C339.191 479.982 339.143 480 339.083 480H336.977C336.917 480 336.863 479.982 336.815 479.946C336.779 479.898 336.761 479.844 336.761 479.784V470.964C336.761 470.904 336.779 470.856 336.815 470.82C336.863 470.772 336.917 470.748 336.977 470.748H339.083C339.143 470.748 339.191 470.772 339.227 470.82C339.275 470.856 339.299 470.904 339.299 470.964V471.594C339.299 471.63 339.311 471.654 339.335 471.666C339.359 471.678 339.377 471.672 339.389 471.648C339.881 470.952 340.613 470.604 341.585 470.604ZM352.289 470.964C352.289 470.904 352.307 470.856 352.343 470.82C352.391 470.772 352.445 470.748 352.505 470.748H354.611C354.671 470.748 354.719 470.772 354.755 470.82C354.803 470.856 354.827 470.904 354.827 470.964V479.172C354.827 480.744 354.371 481.866 353.459 482.538C352.559 483.21 351.395 483.546 349.967 483.546C349.547 483.546 349.079 483.516 348.563 483.456C348.443 483.444 348.383 483.366 348.383 483.222L348.455 481.368C348.455 481.212 348.539 481.146 348.707 481.17C349.139 481.242 349.535 481.278 349.895 481.278C350.663 481.278 351.251 481.11 351.659 480.774C352.079 480.438 352.289 479.898 352.289 479.154C352.289 479.118 352.277 479.1 352.253 479.1C352.229 479.088 352.205 479.094 352.181 479.118C351.725 479.61 351.059 479.856 350.183 479.856C349.403 479.856 348.683 479.67 348.023 479.298C347.375 478.914 346.913 478.302 346.637 477.462C346.457 476.91 346.367 476.196 346.367 475.32C346.367 474.384 346.475 473.622 346.691 473.034C346.943 472.302 347.369 471.714 347.969 471.27C348.569 470.826 349.271 470.604 350.075 470.604C350.987 470.604 351.689 470.88 352.181 471.432C352.205 471.456 352.229 471.468 352.253 471.468C352.277 471.456 352.289 471.432 352.289 471.396V470.964ZM352.145 476.778C352.241 476.418 352.289 475.926 352.289 475.302C352.289 474.93 352.277 474.642 352.253 474.438C352.229 474.234 352.187 474.042 352.127 473.862C352.031 473.538 351.851 473.28 351.587 473.088C351.335 472.884 351.023 472.782 350.651 472.782C350.291 472.782 349.985 472.884 349.733 473.088C349.481 473.28 349.295 473.538 349.175 473.862C349.019 474.186 348.941 474.672 348.941 475.32C348.941 475.98 349.007 476.46 349.139 476.76C349.247 477.084 349.433 477.348 349.697 477.552C349.973 477.744 350.297 477.84 350.669 477.84C351.053 477.84 351.371 477.744 351.623 477.552C351.875 477.348 352.049 477.09 352.145 476.778ZM365.047 470.622C365.467 470.622 365.803 470.706 366.055 470.874C366.151 470.922 366.187 471.012 366.163 471.144L365.803 473.196C365.791 473.34 365.707 473.382 365.551 473.322C365.371 473.262 365.155 473.232 364.903 473.232C364.831 473.232 364.699 473.244 364.507 473.268C364.075 473.304 363.709 473.466 363.409 473.754C363.109 474.03 362.959 474.402 362.959 474.87V479.784C362.959 479.844 362.935 479.898 362.887 479.946C362.851 479.982 362.803 480 362.743 480H360.637C360.577 480 360.523 479.982 360.475 479.946C360.439 479.898 360.421 479.844 360.421 479.784V470.964C360.421 470.904 360.439 470.856 360.475 470.82C360.523 470.772 360.577 470.748 360.637 470.748H362.743C362.803 470.748 362.851 470.772 362.887 470.82C362.935 470.856 362.959 470.904 362.959 470.964V471.648C362.959 471.684 362.971 471.708 362.995 471.72C363.019 471.732 363.037 471.726 363.049 471.702C363.541 470.982 364.207 470.622 365.047 470.622ZM370.773 470.604C371.553 470.604 372.249 470.742 372.861 471.018C373.473 471.282 373.947 471.648 374.283 472.116C374.631 472.584 374.805 473.106 374.805 473.682V479.784C374.805 479.844 374.781 479.898 374.733 479.946C374.697 479.982 374.649 480 374.589 480H372.483C372.423 480 372.369 479.982 372.321 479.946C372.285 479.898 372.267 479.844 372.267 479.784V479.19C372.267 479.154 372.255 479.13 372.231 479.118C372.207 479.106 372.183 479.118 372.159 479.154C371.643 479.814 370.827 480.144 369.711 480.144C368.787 480.144 368.037 479.916 367.461 479.46C366.885 479.004 366.597 478.332 366.597 477.444C366.597 476.52 366.921 475.806 367.569 475.302C368.217 474.786 369.141 474.528 370.341 474.528H372.177C372.237 474.528 372.267 474.498 372.267 474.438V474.042C372.267 473.646 372.141 473.34 371.889 473.124C371.649 472.896 371.295 472.782 370.827 472.782C370.455 472.782 370.143 472.848 369.891 472.98C369.651 473.112 369.495 473.298 369.423 473.538C369.387 473.67 369.309 473.73 369.189 473.718L367.011 473.43C366.867 473.406 366.801 473.352 366.813 473.268C366.861 472.764 367.059 472.308 367.407 471.9C367.767 471.492 368.235 471.174 368.811 470.946C369.399 470.718 370.053 470.604 370.773 470.604ZM370.413 478.254C370.929 478.254 371.367 478.116 371.727 477.84C372.087 477.564 372.267 477.21 372.267 476.778V476.13C372.267 476.07 372.237 476.04 372.177 476.04H370.881C370.341 476.04 369.915 476.142 369.603 476.346C369.303 476.55 369.153 476.838 369.153 477.21C369.153 477.534 369.267 477.792 369.495 477.984C369.723 478.164 370.029 478.254 370.413 478.254ZM381.795 472.566C381.795 472.626 381.771 472.68 381.723 472.728C381.687 472.764 381.639 472.782 381.579 472.782H379.851C379.791 472.782 379.761 472.812 379.761 472.872V476.688C379.761 477.084 379.839 477.378 379.995 477.57C380.163 477.762 380.427 477.858 380.787 477.858H381.399C381.459 477.858 381.507 477.882 381.543 477.93C381.591 477.966 381.615 478.014 381.615 478.074V479.784C381.615 479.916 381.543 479.994 381.399 480.018C380.895 480.042 380.529 480.054 380.301 480.054C379.305 480.054 378.561 479.892 378.069 479.568C377.577 479.232 377.331 478.608 377.331 477.696V472.872C377.331 472.812 377.301 472.782 377.241 472.782H376.197C376.137 472.782 376.083 472.764 376.035 472.728C375.999 472.68 375.981 472.626 375.981 472.566V470.964C375.981 470.904 375.999 470.856 376.035 470.82C376.083 470.772 376.137 470.748 376.197 470.748H377.241C377.301 470.748 377.331 470.718 377.331 470.658V468.516C377.331 468.456 377.349 468.408 377.385 468.372C377.433 468.324 377.487 468.3 377.547 468.3H379.545C379.605 468.3 379.653 468.324 379.689 468.372C379.737 468.408 379.761 468.456 379.761 468.516V470.658C379.761 470.718 379.791 470.748 379.851 470.748H381.579C381.639 470.748 381.687 470.772 381.723 470.82C381.771 470.856 381.795 470.904 381.795 470.964V472.566ZM391.229 474.42C391.301 474.876 391.325 475.386 391.301 475.95C391.289 476.094 391.211 476.166 391.067 476.166H385.505C385.481 476.166 385.457 476.178 385.433 476.202C385.409 476.214 385.403 476.232 385.415 476.256C385.463 476.52 385.535 476.76 385.631 476.976C385.943 477.648 386.579 477.984 387.539 477.984C388.295 477.972 388.895 477.66 389.339 477.048C389.399 476.976 389.453 476.94 389.501 476.94C389.549 476.94 389.597 476.964 389.645 477.012L390.923 478.29C390.971 478.338 390.995 478.392 390.995 478.452C390.995 478.488 390.977 478.536 390.941 478.596C390.557 479.088 390.053 479.472 389.429 479.748C388.805 480.012 388.121 480.144 387.377 480.144C386.345 480.144 385.469 479.91 384.749 479.442C384.041 478.974 383.531 478.32 383.219 477.48C382.967 476.88 382.841 476.088 382.841 475.104C382.841 474.48 382.925 473.904 383.093 473.376C383.381 472.524 383.867 471.846 384.551 471.342C385.247 470.838 386.069 470.586 387.017 470.586C388.217 470.586 389.177 470.934 389.897 471.63C390.617 472.326 391.061 473.256 391.229 474.42ZM387.017 472.782C386.273 472.782 385.781 473.136 385.541 473.844C385.493 473.988 385.451 474.18 385.415 474.42C385.415 474.48 385.445 474.51 385.505 474.51H388.619C388.691 474.51 388.715 474.48 388.691 474.42C388.631 474.072 388.601 473.904 388.601 473.916C388.493 473.556 388.301 473.28 388.025 473.088C387.761 472.884 387.425 472.782 387.017 472.782Z" fill="white" />
	<circle cx="428" cy="347" r="60" fill="url(#paint4_linear_13317_7612)" />
	<g clip-path="url(#clip0_13317_7612)">
		<path d="M423.423 316.381L427.238 319.146C427.238 319.146 425.807 322.266 428.531 324.241C431.256 326.216 433.776 323.887 433.776 323.887L445.218 332.183L432.576 349.619L421.134 341.323C421.134 341.323 422.565 338.203 419.84 336.228C417.116 334.253 414.596 336.582 414.596 336.582L410.782 333.817L423.423 316.381Z" fill="white" stroke="white" stroke-width="2.69204" stroke-linecap="square" />
		<path d="M426.161 327.51L425.371 328.599" stroke="#379BF9" stroke-width="2.69204" stroke-linecap="square" />
		<path d="M423.001 331.869L422.211 332.959" stroke="#379BF9" stroke-width="2.69204" stroke-linecap="square" />
		<path d="M429.73 331.76L435.724 336.105" stroke="#379BF9" stroke-width="2.69204" stroke-linecap="square" />
		<path d="M427.36 335.029L433.353 339.375" stroke="#379BF9" stroke-width="2.69204" stroke-linecap="square" />
	</g>
	<path d="M415.944 363.96C415.976 363.853 416.051 363.8 416.168 363.8H418.136C418.2 363.8 418.248 363.821 418.28 363.864C418.312 363.907 418.317 363.96 418.296 364.024L414.968 374.84C414.936 374.947 414.867 375 414.76 375H412.744C412.637 375 412.568 374.947 412.536 374.84L409.224 364.024L409.208 363.96C409.208 363.853 409.267 363.8 409.384 363.8H411.4C411.517 363.8 411.592 363.853 411.624 363.96L413.752 371.864C413.763 371.896 413.779 371.912 413.8 371.912C413.821 371.912 413.837 371.896 413.848 371.864L415.944 363.96ZM423.004 375.176C422.172 375.176 421.436 375.005 420.796 374.664C420.167 374.323 419.676 373.848 419.324 373.24C418.972 372.621 418.796 371.912 418.796 371.112V367.688C418.796 366.899 418.972 366.2 419.324 365.592C419.676 364.984 420.167 364.515 420.796 364.184C421.436 363.843 422.172 363.672 423.004 363.672C423.836 363.672 424.572 363.843 425.212 364.184C425.852 364.515 426.348 364.984 426.7 365.592C427.052 366.2 427.228 366.899 427.228 367.688V371.112C427.228 371.912 427.052 372.621 426.7 373.24C426.348 373.848 425.852 374.323 425.212 374.664C424.572 375.005 423.836 375.176 423.004 375.176ZM423.004 373.24C423.591 373.24 424.066 373.053 424.428 372.68C424.791 372.307 424.972 371.811 424.972 371.192V367.672C424.972 367.053 424.791 366.557 424.428 366.184C424.076 365.8 423.602 365.608 423.004 365.608C422.418 365.608 421.943 365.8 421.58 366.184C421.228 366.557 421.052 367.053 421.052 367.672V371.192C421.052 371.811 421.228 372.307 421.58 372.68C421.943 373.053 422.418 373.24 423.004 373.24ZM436.028 363.8C436.082 363.8 436.124 363.821 436.156 363.864C436.199 363.896 436.22 363.939 436.22 363.992V365.56C436.22 365.613 436.199 365.661 436.156 365.704C436.124 365.736 436.082 365.752 436.028 365.752H433.148C433.095 365.752 433.068 365.779 433.068 365.832V374.808C433.068 374.861 433.047 374.909 433.004 374.952C432.972 374.984 432.93 375 432.876 375H431.004C430.951 375 430.903 374.984 430.86 374.952C430.828 374.909 430.812 374.861 430.812 374.808V365.832C430.812 365.779 430.786 365.752 430.732 365.752H427.964C427.911 365.752 427.863 365.736 427.82 365.704C427.788 365.661 427.772 365.613 427.772 365.56V363.992C427.772 363.939 427.788 363.896 427.82 363.864C427.863 363.821 427.911 363.8 427.964 363.8H436.028ZM445.332 365.544C445.332 365.597 445.31 365.645 445.268 365.688C445.236 365.72 445.193 365.736 445.14 365.736H439.908C439.854 365.736 439.828 365.763 439.828 365.816V368.296C439.828 368.349 439.854 368.376 439.908 368.376H443.332C443.385 368.376 443.428 368.397 443.46 368.44C443.502 368.472 443.524 368.515 443.524 368.568V370.12C443.524 370.173 443.502 370.221 443.46 370.264C443.428 370.296 443.385 370.312 443.332 370.312H439.908C439.854 370.312 439.828 370.339 439.828 370.392V372.984C439.828 373.037 439.854 373.064 439.908 373.064H445.14C445.193 373.064 445.236 373.085 445.268 373.128C445.31 373.16 445.332 373.203 445.332 373.256V374.808C445.332 374.861 445.31 374.909 445.268 374.952C445.236 374.984 445.193 375 445.14 375H437.764C437.71 375 437.662 374.984 437.62 374.952C437.588 374.909 437.572 374.861 437.572 374.808V363.992C437.572 363.939 437.588 363.896 437.62 363.864C437.662 363.821 437.71 363.8 437.764 363.8H445.14C445.193 363.8 445.236 363.821 445.268 363.864C445.31 363.896 445.332 363.939 445.332 363.992V365.544Z" fill="white" />
	<circle cx="304" cy="161" r="60" fill="url(#paint5_linear_13317_7612)" />
	<path d="M315.333 144.583H292.667C291.884 144.583 291.25 145.217 291.25 146V158.75C291.25 159.532 291.884 160.166 292.667 160.166H315.333C316.116 160.166 316.75 159.532 316.75 158.75V146C316.75 145.217 316.116 144.583 315.333 144.583Z" fill="white" stroke="white" stroke-width="2.83333" />
	<path d="M296.917 144.583V138.916C296.917 135.004 300.088 131.833 304 131.833C307.912 131.833 311.083 135.004 311.083 138.916V144.583" stroke="white" stroke-width="2.83333" stroke-linecap="square" />
	<path d="M304 150.25V154.5" stroke="#FF6F3D" stroke-width="2.83333" stroke-linecap="square" />
	<path d="M286.056 179.992C286.056 179.939 286.072 179.896 286.104 179.864C286.147 179.821 286.195 179.8 286.248 179.8H288.12C288.173 179.8 288.216 179.821 288.248 179.864C288.291 179.896 288.312 179.939 288.312 179.992V188.984C288.312 189.037 288.339 189.064 288.392 189.064H293.624C293.677 189.064 293.72 189.085 293.752 189.128C293.795 189.16 293.816 189.203 293.816 189.256V190.808C293.816 190.861 293.795 190.909 293.752 190.952C293.72 190.984 293.677 191 293.624 191H286.248C286.195 191 286.147 190.984 286.104 190.952C286.072 190.909 286.056 190.861 286.056 190.808V179.992ZM298.957 191.176C298.125 191.176 297.389 191.005 296.749 190.664C296.12 190.323 295.629 189.848 295.277 189.24C294.925 188.621 294.749 187.912 294.749 187.112V183.688C294.749 182.899 294.925 182.2 295.277 181.592C295.629 180.984 296.12 180.515 296.749 180.184C297.389 179.843 298.125 179.672 298.957 179.672C299.789 179.672 300.525 179.843 301.165 180.184C301.805 180.515 302.301 180.984 302.653 181.592C303.005 182.2 303.181 182.899 303.181 183.688V187.112C303.181 187.912 303.005 188.621 302.653 189.24C302.301 189.848 301.805 190.323 301.165 190.664C300.525 191.005 299.789 191.176 298.957 191.176ZM298.957 189.24C299.544 189.24 300.019 189.053 300.381 188.68C300.744 188.307 300.925 187.811 300.925 187.192V183.672C300.925 183.053 300.744 182.557 300.381 182.184C300.029 181.8 299.555 181.608 298.957 181.608C298.371 181.608 297.896 181.8 297.533 182.184C297.181 182.557 297.005 183.053 297.005 183.672V187.192C297.005 187.811 297.181 188.307 297.533 188.68C297.896 189.053 298.371 189.24 298.957 189.24ZM308.612 191.128C307.791 191.128 307.065 190.968 306.436 190.648C305.807 190.317 305.321 189.859 304.98 189.272C304.639 188.685 304.468 188.008 304.468 187.24V183.544C304.468 182.776 304.639 182.099 304.98 181.512C305.321 180.925 305.807 180.472 306.436 180.152C307.065 179.832 307.791 179.672 308.612 179.672C309.433 179.672 310.159 179.827 310.788 180.136C311.417 180.435 311.903 180.867 312.244 181.432C312.596 181.987 312.772 182.632 312.772 183.368C312.772 183.464 312.708 183.523 312.58 183.544L310.708 183.656H310.676C310.569 183.656 310.516 183.597 310.516 183.48C310.516 182.915 310.34 182.461 309.988 182.12C309.647 181.779 309.188 181.608 308.612 181.608C308.047 181.608 307.588 181.779 307.236 182.12C306.895 182.461 306.724 182.915 306.724 183.48V187.336C306.724 187.891 306.895 188.339 307.236 188.68C307.588 189.021 308.047 189.192 308.612 189.192C309.188 189.192 309.647 189.021 309.988 188.68C310.34 188.339 310.516 187.891 310.516 187.336C310.516 187.219 310.58 187.16 310.708 187.16L312.58 187.24C312.633 187.24 312.676 187.256 312.708 187.288C312.751 187.32 312.772 187.357 312.772 187.4C312.772 188.136 312.596 188.787 312.244 189.352C311.903 189.917 311.417 190.355 310.788 190.664C310.159 190.973 309.433 191.128 308.612 191.128ZM314.212 179.992C314.212 179.939 314.228 179.896 314.26 179.864C314.303 179.821 314.351 179.8 314.404 179.8H316.276C316.33 179.8 316.372 179.821 316.404 179.864C316.447 179.896 316.468 179.939 316.468 179.992V184.472C316.468 184.504 316.479 184.525 316.5 184.536C316.522 184.536 316.543 184.525 316.564 184.504L320.244 179.912C320.308 179.837 320.388 179.8 320.484 179.8H322.596C322.682 179.8 322.735 179.827 322.756 179.88C322.778 179.923 322.767 179.976 322.724 180.04L319.172 184.6C319.14 184.643 319.135 184.68 319.156 184.712L322.932 190.776C322.954 190.84 322.964 190.877 322.964 190.888C322.964 190.963 322.911 191 322.804 191H320.676C320.57 191 320.495 190.957 320.452 190.872L317.62 186.264C317.61 186.243 317.594 186.232 317.572 186.232C317.551 186.232 317.53 186.243 317.508 186.264L316.5 187.528C316.479 187.571 316.468 187.603 316.468 187.624V190.808C316.468 190.861 316.447 190.909 316.404 190.952C316.372 190.984 316.33 191 316.276 191H314.404C314.351 191 314.303 190.984 314.26 190.952C314.228 190.909 314.212 190.861 314.212 190.808V179.992Z" fill="white" />
	<path fill-rule="evenodd" clip-rule="evenodd" d="M184.672 336.744C187.247 334.556 188.881 331.295 188.881 327.652C188.881 324.008 187.247 320.746 184.672 318.559C184.903 318.541 185.137 318.532 185.374 318.532C190.41 318.532 194.493 322.615 194.493 327.651C194.493 332.688 190.41 336.77 185.374 336.77C185.138 336.77 184.904 336.761 184.672 336.744Z" fill="white" />
	<path fill-rule="evenodd" clip-rule="evenodd" d="M176.956 336.77C181.992 336.77 186.075 332.688 186.075 327.651C186.075 322.615 181.992 318.532 176.956 318.532C171.92 318.532 167.837 322.615 167.837 327.651C167.837 332.688 171.92 336.77 176.956 336.77ZM177.668 330.721V331.86H176.481V330.744C175.682 330.643 175.128 330.325 174.852 329.806L175.777 329.232C176.022 329.635 176.402 329.814 177.027 329.814C177.605 329.814 177.897 329.628 177.897 329.248C177.897 329.054 177.802 328.876 177.66 328.79C177.629 328.771 177.605 328.755 177.579 328.741C177.472 328.683 177.349 328.655 176.711 328.511C175.564 328.24 175.097 327.767 175.097 326.875C175.097 325.999 175.548 325.495 176.481 325.34V324.495H177.668V325.371C178.246 325.48 178.665 325.767 178.91 326.209L178.008 326.767C177.747 326.402 177.446 326.255 176.98 326.255C176.521 326.255 176.26 326.449 176.26 326.782C176.26 327.17 176.505 327.348 177.32 327.542C178.024 327.705 178.222 327.775 178.499 327.953C178.878 328.186 179.06 328.589 179.06 329.155C179.06 330.07 178.625 330.558 177.668 330.721Z" fill="white" />
	<path d="M187.251 348.696H178.359L166.434 339.577L166.506 339.529C167.763 338.691 169.372 338.591 170.723 339.266L171.344 339.577L177.022 342.731C177.439 342.963 177.908 343.084 178.385 343.084H182.568L180.463 342.383C179.301 341.995 178.673 340.739 179.06 339.577H191.855C193.084 339.577 194.251 340.114 195.051 341.047L198 344.487L193.09 350.8L191.582 349.895C190.274 349.11 188.777 348.696 187.251 348.696Z" fill="white" />
	<defs>
		<linearGradient id="paint0_linear_13317_7612" x1="248.5" y1="166" x2="175" y2="288" gradientUnits="userSpaceOnUse">
			<stop stop-color="#FF8E3D" />
			<stop offset="1" stop-color="#00D092" />
		</linearGradient>
		<linearGradient id="paint1_linear_13317_7612" x1="371" y1="159" x2="445.051" y2="302.282" gradientUnits="userSpaceOnUse">
			<stop stop-color="#FF8E3D" />
			<stop offset="1" stop-color="#3784F9" />
		</linearGradient>
		<linearGradient id="paint2_linear_13317_7612" x1="232" y1="406.5" x2="386.5" y2="398" gradientUnits="userSpaceOnUse">
			<stop stop-color="#00D092" />
			<stop offset="1" stop-color="#3784F9" />
		</linearGradient>
		<linearGradient id="paint3_linear_13317_7612" x1="142.455" y1="303.364" x2="215.182" y2="397.455" gradientUnits="userSpaceOnUse">
			<stop stop-color="#00D092" />
			<stop offset="1" stop-color="#00D0D0" />
		</linearGradient>
		<linearGradient id="paint4_linear_13317_7612" x1="388" y1="301.091" x2="469.364" y2="393.818" gradientUnits="userSpaceOnUse">
			<stop stop-color="#3784F9" />
			<stop offset="1" stop-color="#37B3F9" />
		</linearGradient>
		<linearGradient id="paint5_linear_13317_7612" x1="354.909" y1="200.545" x2="269" y2="110.545" gradientUnits="userSpaceOnUse">
			<stop stop-color="#FF8E3D" />
			<stop offset="1" stop-color="#FF483D" />
		</linearGradient>
		<clipPath id="clip0_13317_7612">
			<rect width="32.3045" height="32.3045" fill="white" transform="translate(424.405 310.441) rotate(35.9437)" />
		</clipPath>
	</defs>
</svg>
	