<svg width="16" height="16" viewBox="0 0 16 16" fill="none" xmlns="http://www.w3.org/2000/svg">
<path fill-rule="evenodd" clip-rule="evenodd" d="M0.644929 8.40399C0.600353 8.35942 0.564681 8.30931 0.537913 8.25588C0.423566 8.03999 0.457278 7.76623 0.639047 7.58446L7.3734 0.850107C7.59655 0.62695 7.95836 0.62695 8.18152 0.850107L8.45089 1.11948C8.67405 1.34264 8.67405 1.70445 8.45089 1.9276L3.14126 7.23724L15.0545 7.23724C15.3701 7.23724 15.6259 7.49307 15.6259 7.80867V8.18962C15.6259 8.50521 15.3701 8.76105 15.0545 8.76105L3.15697 8.76105L8.45677 14.0608C8.67993 14.284 8.67993 14.6458 8.45678 14.869L8.1874 15.1383C7.96424 15.3615 7.60244 15.3615 7.37928 15.1383L0.644929 8.40399Z" fill="#E3E3E3"/>
</svg>
