<svg width="65" height="65" viewBox="0 0 65 65" fill="none" xmlns="http://www.w3.org/2000/svg">
<path d="M5.5 24.5H53.5V48.5H5.5V24.5Z" fill="#BDC5D0"/>
<path d="M12.5 44.5H46.5C46.5 43.7044 46.8161 42.9413 47.3787 42.3787C47.9413 41.8161 48.7043 41.5 49.5 41.5V31.5C48.7043 31.5 47.9413 31.1839 47.3787 30.6213C46.8161 30.0587 46.5 29.2956 46.5 28.5H12.5C12.5 29.2956 12.1839 30.0587 11.6213 30.6213C11.0587 31.1839 10.2956 31.5 9.5 31.5V41.5C10.2956 41.5 11.0587 41.8161 11.6213 42.3787C12.1839 42.9413 12.5 43.7044 12.5 44.5Z" fill="#646C77"/>
<path d="M43.5 32.5H9.5V41.5C10.2956 41.5 11.0587 41.8161 11.6213 42.3787C12.1839 42.9413 12.5 43.7044 12.5 44.5H46.5V35.5C45.7043 35.5 44.9413 35.1839 44.3787 34.6213C43.8161 34.0587 43.5 33.2956 43.5 32.5Z" fill="#646C77"/>
<path fill-rule="evenodd" clip-rule="evenodd" d="M29.5979 32.6337V32.9525C29.045 32.9618 28.5167 33.1854 28.125 33.5771C27.7248 33.9773 27.5 34.5201 27.5 35.086C27.5 35.6519 27.7248 36.1947 28.125 36.5948C28.5252 36.995 29.0679 37.2198 29.6338 37.2198H30.8798C31.0962 37.2198 31.3038 37.3058 31.4569 37.4589C31.61 37.6119 31.696 37.8195 31.696 38.036C31.696 38.2525 31.61 38.4601 31.4569 38.6131C31.3038 38.7662 31.0962 38.8522 30.8798 38.8522H30.2696C30.2653 38.8521 30.261 38.8521 30.2567 38.8521C30.2524 38.8521 30.2481 38.8521 30.2438 38.8522H29.5911C29.4389 38.8525 29.2901 38.8077 29.1632 38.7236C29.0364 38.6395 28.9372 38.5198 28.8783 38.3795C28.8102 38.2186 28.681 38.0913 28.519 38.0256C28.3571 37.9599 28.1757 37.9612 28.0147 38.0293C27.935 38.063 27.8628 38.1121 27.802 38.1737C27.7413 38.2354 27.6933 38.3084 27.6608 38.3885C27.6283 38.4687 27.6119 38.5545 27.6125 38.6411C27.6131 38.7276 27.6308 38.8131 27.6645 38.8928C27.8242 39.2717 28.0922 39.5951 28.435 39.8222C28.7777 40.0494 29.1799 40.1703 29.5911 40.1698H29.5979V40.4882C29.5979 40.6629 29.6673 40.8305 29.7909 40.9541C29.9144 41.0776 30.082 41.147 30.2567 41.147C30.4314 41.147 30.599 41.0776 30.7226 40.9541C30.8461 40.8305 30.9155 40.6629 30.9155 40.4882V40.1697C31.4684 40.1603 31.9966 39.9367 32.3882 39.545C32.7884 39.1449 33.0132 38.6021 33.0132 38.0362C33.0132 37.4703 32.7884 36.9275 32.3882 36.5273C31.9881 36.1272 31.4453 35.9024 30.8794 35.9024H29.6335C29.417 35.9024 29.2094 35.8164 29.0563 35.6633C28.9033 35.5102 28.8173 35.3026 28.8173 35.0862C28.8173 34.8697 28.9033 34.6621 29.0563 34.509C29.2094 34.356 29.417 34.27 29.6335 34.27H30.9221C31.082 34.2701 31.2378 34.3196 31.3684 34.4118C31.499 34.504 31.5979 34.6342 31.6515 34.7848C31.6804 34.8664 31.7251 34.9415 31.783 35.0058C31.8408 35.0701 31.9108 35.1224 31.9889 35.1596C32.067 35.1969 32.1517 35.2184 32.2381 35.223C32.3245 35.2275 32.411 35.215 32.4926 35.1861C32.5741 35.1572 32.6492 35.1126 32.7135 35.0547C32.7779 34.9968 32.8301 34.9268 32.8674 34.8487C32.9047 34.7706 32.9262 34.6859 32.9307 34.5995C32.9353 34.5131 32.9228 34.4267 32.8939 34.3451C32.7491 33.9379 32.4819 33.5855 32.129 33.3361C31.7761 33.0867 31.3546 32.9526 30.9225 32.9521H30.9155V32.6337C30.9155 32.4589 30.8461 32.2914 30.7226 32.1678C30.599 32.0443 30.4314 31.9749 30.2567 31.9749C30.082 31.9749 29.9144 32.0443 29.7909 32.1678C29.6673 32.2914 29.5979 32.4589 29.5979 32.6337Z" fill="#F8F9FD"/>
<path d="M56.5 58.5H48.5L42.5 62.5L14.5 55.5C14.5 54.7044 14.8161 53.9413 15.3787 53.3787C15.9413 52.8161 16.7044 52.5 17.5 52.5H38.5C38.5 52.46 38.5 52.419 38.5 52.379V52.244C38.5 51.7623 38.664 51.295 38.965 50.919L41.3 48C41.6747 47.532 42.1498 47.1542 42.6902 46.8946C43.2306 46.6349 43.8225 46.5001 44.422 46.5H56.5V58.5Z" fill="#E6E9EF"/>
<path d="M41.6209 55.5C40.8241 55.4995 40.0576 55.1945 39.4783 54.6474C38.899 54.1003 38.5508 53.3525 38.5049 52.557L40.5049 52.443C40.5174 52.659 40.5921 52.8667 40.7199 53.0412C40.8478 53.2157 41.0233 53.3495 41.2255 53.4266C41.4276 53.5036 41.6477 53.5206 41.8593 53.4754C42.0708 53.4302 42.2648 53.3249 42.4179 53.172L45.7969 49.793L47.2109 51.207L43.8319 54.586C43.2443 55.1703 42.4496 55.4988 41.6209 55.5Z" fill="#E6E9EF"/>
<path d="M20.5 24.5V19.643L22.5 20.5L24.5 22.5V24.5H20.5Z" fill="#E6E9EF"/>
<path d="M28.386 14.357L32.5 19.5V24.5H36.5V17.5L30.5 5.5L21.5 2.5H2.5V12.5L13.5 14.5L15.5 17.5L22.5 20.5L29.879 27.879C30.076 28.076 30.3098 28.2322 30.5672 28.3388C30.8246 28.4453 31.1004 28.5001 31.379 28.5C31.9414 28.4997 32.4808 28.2762 32.8785 27.8785C33.2762 27.4808 33.4997 26.9414 33.5 26.379V26.3C33.5005 25.7851 33.3139 25.2876 32.975 24.9L26.5 17.5L28.386 14.357Z" fill="#E6E9EF"/>
</svg>
