<svg width="48" height="48" viewBox="0 0 48 48" fill="none" xmlns="http://www.w3.org/2000/svg">
<rect opacity="0.6" width="48" height="48" rx="8" fill="#EFEFF2"/>
<path d="M27.7841 38H19.3333L8 29.3333L8.06857 29.2876C9.26292 28.4914 10.7923 28.3962 12.0762 29.0381L12.6667 29.3333L18.0626 32.3311C18.4588 32.5512 18.9045 32.6667 19.3577 32.6667H23.3333L21.3333 32C20.2288 31.6318 19.6318 30.4379 20 29.3333H32.1603C33.328 29.3333 34.4374 29.8436 35.1973 30.7302L38 34L33.3333 40L31.9001 39.1401C30.6568 38.3941 29.2341 38 27.7841 38Z" fill="#3784F9"/>
<path fill-rule="evenodd" clip-rule="evenodd" d="M33.3333 12H14.6667V14.6667H33.3333V12ZM14.6667 16H33.3333V25.3333H14.6667V16ZM17.3333 21.3333H21.3333V22.6667H17.3333V21.3333Z" fill="#3784F9"/>
</svg>
