<svg width="104" height="7" viewBox="0 0 104 7" fill="none" xmlns="http://www.w3.org/2000/svg">
<path d="M3.0598e-07 7L10 -4.37114e-07L14 -6.11959e-07L4 7L3.0598e-07 7Z" fill="#FF8E3D"/>
<path d="M10 7L20 -8.74228e-07L24 -1.04907e-06L14 7L10 7Z" fill="#FF8E3D"/>
<path d="M30 -1.31134e-06L20 7L24 7L34 -1.48619e-06L30 -1.31134e-06Z" fill="#FF8E3D"/>
<path d="M30 7L40 -1.74846e-06L44 -1.9233e-06L34 7L30 7Z" fill="#FF8E3D"/>
<path d="M50 -2.18557e-06L40 7L44 7L54 -2.36041e-06L50 -2.18557e-06Z" fill="#FF8E3D"/>
<path d="M50 7L60 -2.62268e-06L64 -2.79753e-06L54 7L50 7Z" fill="#FF8E3D"/>
<path d="M70 -3.0598e-06L60 7L64 7L74 -3.23464e-06L70 -3.0598e-06Z" fill="#FF8E3D"/>
<path d="M70 7L80 -3.49691e-06L84 -3.67176e-06L74 7L70 7Z" fill="#FF8E3D"/>
<path d="M90 -3.93402e-06L80 7L84 7L94 -4.10887e-06L90 -3.93402e-06Z" fill="#FF8E3D"/>
<path d="M90 7L100 -4.37114e-06L104 -4.54598e-06L94 7L90 7Z" fill="#FF8E3D"/>
</svg>
