<svg width="166" height="52" viewBox="0 0 166 52" fill="none" xmlns="http://www.w3.org/2000/svg">
<g clip-path="url(#clip0_8832_3147)">
<path d="M74.5603 18.8345C75.6941 18.8312 76.8244 18.9617 77.9268 19.2234C79.1509 19.5283 80.3365 19.9682 81.4616 20.5347V24.1571C80.3782 23.5241 79.2264 23.0135 78.0279 22.6348C76.9597 22.3169 75.8497 22.1576 74.7344 22.1626C73.3894 22.1406 72.0591 22.4418 70.8573 23.0404C69.7403 23.5919 68.8072 24.4501 68.1698 25.5129C67.5429 26.5992 67.2132 27.8286 67.2132 29.0797C67.2132 30.3308 67.5429 31.5604 68.1698 32.6468C68.8022 33.7037 69.7324 34.5552 70.8461 35.0968C72.0569 35.6853 73.3915 35.9806 74.74 35.9582C75.8126 35.9629 76.8798 35.8055 77.9044 35.4914C79.2171 35.0368 80.4863 34.4679 81.6973 33.7913V37.4138C80.5538 38.0247 79.3457 38.5092 78.0951 38.8583C76.8412 39.1609 75.5536 39.3048 74.263 39.2861C72.2874 39.3212 70.3317 38.891 68.557 38.0304C66.9254 37.2217 65.5623 35.9664 64.6294 34.4136C63.6803 32.8528 63.185 31.0627 63.1987 29.241C63.1682 27.3356 63.6795 25.4605 64.6744 23.8294C65.6486 22.2425 67.0571 20.9614 68.7364 20.1346C70.5458 19.2491 72.5424 18.8034 74.5603 18.8345Z" fill="#222222"/>
<path d="M90.8825 25.4405C92.2084 25.4247 93.5186 25.7237 94.7034 26.3128C95.8054 26.8579 96.7265 27.7043 97.3573 28.752C97.9904 29.8328 98.3143 31.064 98.2944 32.3133C98.3224 33.5786 98.0105 34.8287 97.3911 35.9358C96.7682 36.994 95.8455 37.8478 94.7372 38.3914C93.5453 38.9976 92.2223 39.3064 90.8825 39.2916C89.5462 39.3089 88.2261 38.9999 87.0392 38.3914C85.9394 37.8441 85.0248 36.9905 84.4079 35.9358C83.7883 34.8287 83.4764 33.5786 83.5044 32.3133C83.4822 31.0562 83.8124 29.8176 84.4583 28.7351C85.0908 27.695 86.0094 26.8546 87.1066 26.3128C88.2761 25.7255 89.5713 25.4264 90.8825 25.4405ZM87.2245 32.3133C87.1649 33.4582 87.5146 34.5873 88.2118 35.5025C88.5286 35.8906 88.9324 36.2003 89.3912 36.4066C89.85 36.6131 90.3509 36.7107 90.8545 36.6913C91.3664 36.717 91.8772 36.6279 92.3493 36.4306C92.8216 36.2333 93.2426 35.9331 93.5814 35.5524C94.3 34.6181 94.6528 33.4576 94.5745 32.2855C94.6467 31.1534 94.2886 30.0356 93.57 29.1518C93.2277 28.7805 92.8068 28.4884 92.3375 28.2962C91.8681 28.1043 91.3618 28.017 90.8545 28.0408C90.3565 28.0264 89.8618 28.1245 89.4078 28.3277C88.954 28.5307 88.5527 28.8336 88.2344 29.2131C87.5266 30.0896 87.1674 31.1924 87.2245 32.3133Z" fill="#222222"/>
<path d="M102.279 19.5349C102.809 19.5378 103.317 19.7477 103.692 20.1191C104.067 20.4904 104.279 20.9933 104.282 21.5183C104.286 21.776 104.238 22.0318 104.142 22.2712C104.046 22.5103 103.902 22.7286 103.721 22.9129C103.54 23.1072 103.321 23.2616 103.076 23.3659C102.832 23.4703 102.568 23.5223 102.301 23.5186C102.038 23.5182 101.778 23.4644 101.536 23.3602C101.295 23.256 101.078 23.1038 100.899 22.9129C100.71 22.732 100.559 22.5153 100.456 22.2759C100.353 22.0363 100.299 21.7788 100.298 21.5183C100.295 21.2553 100.347 20.9943 100.451 20.7521C100.556 20.5101 100.71 20.2923 100.904 20.1127C101.268 19.7484 101.762 19.5407 102.279 19.5349ZM104.052 25.702V39.0365H100.539V25.702H104.052Z" fill="white"/>
<path d="M114.773 25.441C115.417 25.4166 116.058 25.5296 116.653 25.772C117.249 26.0145 117.784 26.3811 118.224 26.8467C119.116 27.8736 119.578 29.1994 119.514 30.5526V39.0309H115.98V30.9081C116.021 30.1719 115.8 29.4447 115.357 28.8525C115.15 28.6045 114.887 28.4073 114.591 28.2762C114.294 28.1451 113.97 28.0836 113.645 28.0968C113.095 28.0995 112.557 28.2659 112.102 28.5747C111.496 29.0231 110.962 29.5608 110.52 30.1692V39.0589H106.974V25.7244H110.52V27.5913C111.068 26.9143 111.752 26.358 112.529 25.9578C113.228 25.6187 113.995 25.442 114.773 25.441Z" fill="#222222"/>
<path d="M125.748 19.0962V27.5691H125.838C126.309 26.9165 126.929 26.3835 127.648 26.0138C128.366 25.644 129.163 25.4477 129.973 25.4412C130.617 25.4153 131.259 25.5269 131.855 25.7685C132.452 26.0099 132.988 26.3759 133.429 26.8413C134.331 27.844 134.802 29.1558 134.742 30.4971V39.0311H131.213V31.1639C131.251 30.4005 131.024 29.6473 130.568 29.0304C130.359 28.7715 130.092 28.5652 129.788 28.428C129.484 28.2909 129.151 28.227 128.817 28.2414C128.276 28.2414 127.747 28.4 127.297 28.6969C126.704 29.1173 126.181 29.6273 125.748 30.2082V39.0311H122.202V19.0962H125.748Z" fill="#222222"/>
<path d="M140.846 25.7017V33.9468C140.793 34.6651 141.026 35.3757 141.497 35.9249C141.723 36.1519 141.994 36.3297 142.294 36.4466C142.593 36.5633 142.914 36.6165 143.236 36.6025C143.85 36.5931 144.447 36.3993 144.948 36.0469C145.519 35.6623 145.977 35.1355 146.277 34.519V25.7017H149.818V39.0362H146.277V37.2194C144.998 38.6047 143.614 39.2955 142.125 39.2918C141.476 39.3175 140.83 39.2057 140.228 38.9643C139.626 38.7228 139.083 38.3573 138.635 37.8917C137.729 36.8931 137.254 35.5828 137.311 34.2412V25.7017H140.846Z" fill="#222222"/>
<path d="M156.174 19.0962V26.5579C157.211 25.8197 158.46 25.4301 159.737 25.4467C160.871 25.4344 161.986 25.7344 162.958 26.3134C163.923 26.8931 164.702 27.7335 165.202 28.7358C165.743 29.8199 166.016 31.0157 165.998 32.2249C165.998 34.4141 165.34 36.1382 164.023 37.3976C162.707 38.6569 160.906 39.2886 158.62 39.2923C156.57 39.2976 154.537 38.9206 152.628 38.1811V19.0962H156.174ZM156.174 36.2475C157.032 36.5175 157.928 36.647 158.828 36.631C159.322 36.6497 159.814 36.5527 160.263 36.348C160.713 36.1436 161.107 35.8368 161.415 35.453C162.105 34.508 162.444 33.3559 162.374 32.1917C162.43 31.1088 162.087 30.0428 161.409 29.1915C161.096 28.8264 160.704 28.5367 160.262 28.3441C159.82 28.1516 159.339 28.0614 158.856 28.0803C158.391 28.0741 157.93 28.167 157.504 28.3526C157.025 28.572 156.578 28.8541 156.174 29.1915V36.2475Z" fill="#222222"/>
<path d="M77.7144 35.5362V38.942L78.0903 38.8585C79.3407 38.5094 80.5488 38.0249 81.6923 37.414V33.7915C80.4814 34.4681 79.2121 35.0371 77.8994 35.4916L77.7144 35.5362Z" fill="#22A079"/>
<path d="M32.9856 22.7019C32.9856 22.7019 35.7291 31.425 46.4513 32.636C48.2244 32.8362 50.233 33.0527 52.2864 32.4527C52.3739 32.4581 52.4594 32.4821 52.5366 32.523C52.614 32.5639 52.6817 32.6206 52.735 32.6897C52.7881 32.7587 52.8257 32.8384 52.8452 32.9231C52.8647 33.0077 52.8653 33.0955 52.8475 33.1805C52.5455 35.2211 51.8625 37.1881 50.8333 38.9811C48.23 43.5646 42.5125 49.6264 29.6023 51.7598C28.9177 51.7598 27.5654 51.1654 26.9371 51.271C26.9371 51.2597 11.3673 37.731 32.9856 22.7019Z" fill="#CFBFA3"/>
<path d="M29.6021 51.7596C29.6021 51.7596 18.3246 35.7917 36.0321 27.6132L33.827 24.7686C33.827 24.7686 10.8959 36.3584 29.6021 51.7596Z" fill="#B9A798"/>
<path d="M52.8473 33.2029C52.4973 35.3378 51.7577 37.3917 50.6648 39.2644L47.388 32.7361C48.9063 32.9362 50.4484 32.8589 51.9385 32.5084C52.651 32.3473 52.9596 32.5805 52.8473 33.2029Z" fill="#222222"/>
<path d="M34.0347 37.6641C35.2959 37.6641 36.3182 36.6517 36.3182 35.4029C36.3182 34.154 35.2959 33.1416 34.0347 33.1416C32.7735 33.1416 31.7511 34.154 31.7511 35.4029C31.7511 36.6517 32.7735 37.6641 34.0347 37.6641Z" fill="#222222"/>
<path d="M34.4668 3.80031L36.3631 0.711167C33.1656 1.23736 30.0377 2.11701 27.0381 3.33359C26.251 3.40682 25.4683 3.51994 24.6929 3.6725L28.4914 0C24.7367 0.909813 21.3368 2.89665 18.7174 5.71156C18.3303 5.90048 17.9488 6.10605 17.5953 6.32273L20.5746 0.888963C16.5331 3.04695 13.3637 6.51507 11.5974 10.712L13.4377 4.37813C13.4377 4.37813 8.78642 7.86731 7.96165 16.4735C7.85504 16.6847 7.74842 16.8958 7.64743 17.1125L7.14248 9.40075C7.14248 9.40075 2.62023 16.5402 5.52658 24.6131L2.36774 16.8347C2.36774 16.8347 0.409584 22.9463 5.1731 30.8692L0 24.9353C0 24.9353 0.499355 35.1749 6.41308 40.7144C6.41308 40.7144 8.53954 40.0866 9.84685 41.5755C11.9294 44.5748 14.6856 47.0553 17.8991 48.8224C21.1125 50.5893 24.696 51.5949 28.3679 51.7597C28.6765 51.7597 29.2936 51.7597 29.2936 51.7597C29.2936 51.7597 18.3191 42.3756 28.8952 28.9801C39.4771 16.6513 53.1505 25.2242 53.0214 24.1185C52.3825 19.2651 50.2642 14.72 46.949 11.0897C43.6337 7.45936 39.2793 4.91647 34.4668 3.80031Z" fill="#22A079"/>
<path d="M24.6701 43.8253C24.6701 43.8253 12.5565 48.0089 1.30133 31.8076C2.50868 36.0585 4.67027 39.9843 7.62463 43.2918C11.7373 47.9757 19.9066 52.0426 29.602 51.7482C28.4306 50.8521 27.4537 49.7317 26.7291 48.4534C25.8923 46.9807 25.2025 45.4308 24.6701 43.8253Z" fill="#1B8061"/>
<path d="M102.411 19.52C102.942 19.5229 103.449 19.7329 103.824 20.1042C104.199 20.4755 104.411 20.9783 104.414 21.5035C104.418 21.7611 104.37 22.017 104.274 22.2561C104.178 22.4955 104.035 22.7137 103.853 22.898C103.673 23.0924 103.453 23.2467 103.209 23.3511C102.964 23.4555 102.7 23.5075 102.434 23.5036C102.17 23.5034 101.91 23.4495 101.669 23.3454C101.427 23.2412 101.21 23.0889 101.031 22.898C100.842 22.717 100.691 22.5004 100.588 22.2609C100.485 22.0215 100.432 21.7638 100.431 21.5035C100.427 21.2403 100.479 20.9793 100.584 20.7373C100.688 20.4952 100.842 20.2774 101.037 20.0978C101.4 19.7335 101.894 19.5259 102.411 19.52ZM104.184 25.6872V39.0215H100.672V25.6872H104.184Z" fill="#222222"/>
</g>
<defs>
<clipPath id="clip0_8832_3147">
<rect width="166" height="51.7798" fill="white"/>
</clipPath>
</defs>
</svg>
