<svg width="80" height="80" viewBox="0 0 80 80" fill="none" xmlns="http://www.w3.org/2000/svg">
<path d="M32.9929 1.65C50.3089 1.65 64.35 15.6873 64.35 33C64.35 50.3144 50.3144 64.35 33 64.35C15.6856 64.35 1.65 50.3144 1.65 33C1.65 15.6865 15.6848 1.65 32.9929 1.65Z" fill="#2C73FF" stroke="#2E6CE6" stroke-width="3.3"/>
<path d="M17.6695 22.546C16.9383 19.643 19.0286 16.6817 22.1405 16.6008C26.4757 16.4974 30.8554 16.3806 35.1507 16.7693C43.4532 17.522 50.1247 24.375 50.4832 32.0885C50.6657 36.0487 49.3574 39.9399 46.7971 43.0523C44.2367 46.1648 40.5948 48.2911 36.5357 49.0434C34.8345 49.3825 33.0877 49.4583 31.3616 49.2681C27.7833 48.8074 25.4048 46.0393 25.3767 42.5814C25.3392 37.8202 25.3767 33.0591 25.3603 28.298C25.3603 28.0508 25.3322 27.8014 25.3134 27.4846C24.4089 27.4846 23.5278 27.4082 22.6701 27.5071C21.8992 27.597 21.4727 28.152 21.4703 28.9069C21.4703 34.0477 21.5055 39.065 21.5055 44.3249C21.5313 45.9876 22.5436 47.2773 23.8488 48.3311C24.2402 48.6457 24.6549 48.9378 25.1002 49.2703C21.6531 50.3128 17.6062 47.6593 17.5523 44.2845C17.4703 39.0852 17.496 33.8815 17.5523 28.68C17.5757 26.1163 19.7644 23.9301 22.649 23.829C26.3585 23.7009 30.0985 23.6245 33.7869 23.9346C39.2422 24.3839 42.9259 28.653 42.633 33.7152C42.3612 38.3707 37.9979 42.2174 32.7301 42.2174H29.4166C29.1167 44.2396 30.6023 45.7764 32.7769 45.8281C38.6845 45.9652 44.3437 41.9702 46.0449 36.4609C47.7063 31.0684 45.3419 25.2872 40.203 22.2202C37.9621 20.8776 35.3725 20.1667 32.7301 20.1688C29.4728 20.1441 26.2156 20.1688 22.9584 20.1688C20.9384 20.1688 19.209 20.762 17.9788 22.382C17.9162 22.4502 17.8436 22.5093 17.7632 22.5572C17.7327 22.564 17.6999 22.546 17.6695 22.546ZM29.3533 38.5437C30.675 38.5437 31.8888 38.5932 33.1027 38.5325C35.9639 38.3909 38.3447 36.3351 38.6681 33.7916C39.0102 31.0527 37.4167 28.5204 34.5579 27.7992C32.9175 27.3813 31.1436 27.4307 29.3533 27.2644V38.5437Z" fill="white"/>
<path d="M80 57C80 44.2975 69.7025 34 57 34C44.2975 34 34 44.2975 34 57C34 69.7025 44.2975 80 57 80C69.7025 80 80 69.7025 80 57Z" fill="#6363FF"/>
<path d="M76.4062 57C76.4062 46.2822 67.7178 37.5938 57 37.5938C46.2822 37.5938 37.5938 46.2822 37.5938 57C37.5938 67.7178 46.2822 76.4062 57 76.4062C67.7178 76.4062 76.4062 67.7178 76.4062 57Z" fill="black"/>
<path d="M65.9844 44.9609H49.9922V70.4766H57.3594V49.4531H65.9844V44.9609Z" fill="#00A3E0"/>
<path d="M62.8319 54.3392L58.2578 58.9133L62.8319 63.4874L67.406 58.9133L62.8319 54.3392Z" fill="white"/>
</svg>
