<svg width="52" height="36" viewBox="0 0 52 36" fill="none" xmlns="http://www.w3.org/2000/svg">
<path fill-rule="evenodd" clip-rule="evenodd" d="M19.315 0.514638L18.8742 0L18.6232 0.00290226C17.4203 0.0377256 12.0733 0.42721 6.48734 4.50031L6.30961 4.82731C5.28128 6.76358 0.139648 17.0659 0.139648 29.4858L0.23133 29.6279C0.855073 30.5564 4.71924 35.727 13.5844 36L14.8827 34.4516C15.3965 33.8349 15.9933 33.1135 16.5379 32.4429C11.3991 30.948 9.19453 27.9366 8.86718 27.4522L8.82365 27.3858L9.00496 27.5033C9.20384 27.6289 9.56201 27.8465 10.0579 28.1144C10.102 28.1572 10.1461 28.2001 10.2342 28.2429C10.3665 28.3287 10.4987 28.3715 10.631 28.4572C11.733 29.0572 12.835 29.5286 13.8489 29.9143C15.6562 30.6001 17.8162 31.2858 20.3288 31.7572C23.5405 32.34 27.2929 32.5589 31.384 31.8638L31.7459 31.8C33.8177 31.4572 35.9336 30.8572 38.1376 29.9572C39.6805 29.4001 41.3997 28.5858 43.207 27.4287L43.1347 27.5355C42.7128 28.1351 40.4055 31.1069 35.2283 32.5286L35.9573 33.4169C37.0706 34.7609 38.1376 36 38.1376 36C47.8796 35.7 51.6265 29.4858 51.6265 29.4858C51.6265 15.6859 45.2788 4.50031 45.2788 4.50031C39.8198 0.519781 34.589 0.0573322 33.2314 0.00586529L32.892 0L32.2748 0.686063C38.9203 2.66232 42.4112 5.41372 43.1164 6.01137L43.2511 6.12887C38.6666 3.68604 34.1703 2.48605 29.9826 2.01462C26.8088 1.67177 23.7672 1.75748 21.0782 2.10034C20.8137 2.10034 20.5933 2.14319 20.3288 2.18605L20.081 2.20868C18.4089 2.37398 14.8033 2.97247 10.3224 4.88602L9.68191 5.17639C8.88114 5.54486 8.29769 5.83434 7.98444 5.99338L7.72162 6.12887C7.72162 6.12887 11.3075 2.81056 19.0782 0.581837L19.315 0.514638ZM17.6399 15.9859C20.1525 15.9859 22.1802 18.1287 22.1362 20.743C22.1362 23.3573 20.1525 25.5001 17.6399 25.5001C15.1713 25.5001 13.1436 23.3573 13.1436 20.743C13.1436 18.1287 15.1273 15.9859 17.6399 15.9859ZM33.7295 15.9859C36.2422 15.9859 38.2258 18.1287 38.2258 20.743C38.2258 23.3573 36.2422 25.5001 33.7295 25.5001C31.261 25.5001 29.2332 23.3573 29.2332 20.743C29.2332 18.1287 31.2169 15.9859 33.7295 15.9859Z" fill="white"/>
</svg>
