<svg width="13" height="137" viewBox="0 0 13 137" fill="none" xmlns="http://www.w3.org/2000/svg">
<path d="M0 20L13 0V137L0 117V20Z" fill="#08EDA8"/>
<path d="M11 12L4 22V26L11 16V12Z" fill="#0D0312"/>
<path d="M11 22L4 32V36L11 26V22Z" fill="#0D0312"/>
<path d="M4 42L11 32V36L4 46V42Z" fill="#0D0312"/>
<path d="M11 42L4 52V56L11 46V42Z" fill="#0D0312"/>
<path d="M4 62L11 52V56L4 66V62Z" fill="#0D0312"/>
<path d="M11 62L4 72V76L11 66V62Z" fill="#0D0312"/>
<path d="M4 82L11 72V76L4 86V82Z" fill="#0D0312"/>
<path d="M11 82L4 92V96L11 86V82Z" fill="#0D0312"/>
<path d="M4 102L11 92V96L4 106V102Z" fill="#0D0312"/>
<path d="M11 102L4 112V116L11 106V102Z" fill="#0D0312"/>
</svg>
