<svg xmlns="http://www.w3.org/2000/svg" xmlns:xlink="http://www.w3.org/1999/xlink" width="24px" viewBox="0 0 40 45" id="prefix__svg2522" color="text" class="sc-bdvvtL eKAnfN"><defs id="prefix__defs2526"><linearGradient id="prefix__linear-gradient" x1="2.94" y1="325.95" x2="474.47" y2="325.95" gradientUnits="userSpaceOnUse"><stop offset="0" stop-color="#f2ad6c" id="prefix__stop3265"></stop><stop offset="1" stop-color="#fff" id="prefix__stop3267"></stop></linearGradient><linearGradient gradientTransform="matrix(.3349 0 0 .3349 -4.818 -60.655)" id="prefix__linear-gradient-2" x1="2.94" y1="324.48" x2="474.47" y2="324.48" xlink:href="#prefix__linear-gradient"></linearGradient><linearGradient gradientTransform="matrix(.3349 0 0 .3349 -4.818 -60.655)" id="prefix__linear-gradient-3" x1="2.94" y1="323.46" x2="474.47" y2="323.46" xlink:href="#prefix__linear-gradient"></linearGradient><linearGradient gradientTransform="matrix(.3349 0 0 .3349 -4.818 -60.655)" id="prefix__linear-gradient-4" x1="2.94" y1="324.76" x2="474.47" y2="324.76" xlink:href="#prefix__linear-gradient"></linearGradient><linearGradient gradientTransform="matrix(.3349 0 0 .3349 -4.818 -60.655)" id="prefix__linear-gradient-5" x1="2.94" y1="330.82" x2="474.47" y2="330.82" xlink:href="#prefix__linear-gradient"></linearGradient><linearGradient gradientTransform="matrix(.3349 0 0 .3349 -4.818 -60.655)" id="prefix__linear-gradient-8" x1="2.94" y1="330.29" x2="474.47" y2="330.29" xlink:href="#prefix__linear-gradient"></linearGradient><linearGradient gradientTransform="matrix(.3349 0 0 .3349 -4.818 -60.655)" id="prefix__linear-gradient-11" x1="2.94" y1="330.75" x2="474.47" y2="330.75" xlink:href="#prefix__linear-gradient"></linearGradient><linearGradient id="prefix__linear-gradient-13" x1="4467.36" y1="-5319.48" x2="4467.7" y2="-5319.48" gradientTransform="matrix(13.8956 0 0 -14.58078 -62046.648 -77548.351)" xlink:href="#prefix__linear-gradient"></linearGradient><linearGradient gradientTransform="matrix(.1655 0 0 .1655 -22.043 0)" id="prefix__linear-gradient-14" x1="341.45" y1="96.06" x2="345.2" y2="96.06" xlink:href="#prefix__linear-gradient"></linearGradient><linearGradient gradientTransform="matrix(.1655 0 0 .1655 -22.043 0)" id="prefix__linear-gradient-15" x1="267.96" y1="89.13" x2="273.05" y2="89.13" xlink:href="#prefix__linear-gradient"></linearGradient><linearGradient gradientTransform="matrix(.1655 0 0 .1655 -22.043 0)" id="prefix__linear-gradient-16" x1="332.37" y1="86.8" x2="341.77" y2="86.8" xlink:href="#prefix__linear-gradient"></linearGradient><linearGradient gradientTransform="matrix(.1655 0 0 .1655 -22.043 0)" id="prefix__linear-gradient-17" x1="207.72" y1="72.44" x2="343.39" y2="72.44" xlink:href="#prefix__linear-gradient"></linearGradient><linearGradient gradientTransform="matrix(.1655 0 0 .1655 -22.043 0)" id="prefix__linear-gradient-18" x1="272.58" y1="79.79" x2="285.09" y2="79.79" xlink:href="#prefix__linear-gradient"></linearGradient><linearGradient gradientTransform="matrix(.1655 0 0 .1655 -22.043 0)" id="prefix__linear-gradient-19" x1="133.18" y1="186.27" x2="339.51" y2="186.27" xlink:href="#prefix__linear-gradient"></linearGradient><linearGradient gradientTransform="matrix(.1655 0 0 .1655 -22.043 0)" id="prefix__linear-gradient-20" x1="212.61" y1="186.42" x2="212.67" y2="186.42" xlink:href="#prefix__linear-gradient"></linearGradient><linearGradient gradientTransform="matrix(.1655 0 0 .1655 -22.043 0)" y2="186.42" x2="212.67" y1="186.42" x1="212.61" id="prefix__linearGradient3441" xlink:href="#prefix__linear-gradient"></linearGradient><linearGradient gradientTransform="matrix(.1655 0 0 .1655 -22.043 0)" y2="186.42" x2="212.67" y1="186.42" x1="212.61" id="prefix__linearGradient3443" xlink:href="#prefix__linear-gradient"></linearGradient><linearGradient gradientTransform="matrix(.1655 0 0 .1655 -22.043 0)" y2="186.42" x2="212.67" y1="186.42" x1="212.61" id="prefix__linearGradient3445" xlink:href="#prefix__linear-gradient"></linearGradient><linearGradient gradientTransform="matrix(.1655 0 0 .1655 -22.043 0)" y2="186.42" x2="212.67" y1="186.42" x1="212.61" id="prefix__linearGradient3447" xlink:href="#prefix__linear-gradient"></linearGradient><linearGradient gradientTransform="matrix(.1655 0 0 .1655 -22.043 0)" y2="186.42" x2="212.67" y1="186.42" x1="212.61" id="prefix__linearGradient3449" xlink:href="#prefix__linear-gradient"></linearGradient><linearGradient gradientUnits="userSpaceOnUse" y2="47.766" x2="57.464" y1="47.766" x1="-4.818" id="prefix__linearGradient3592" xlink:href="#prefix__linear-gradient"></linearGradient><linearGradient gradientTransform="matrix(1.18594 0 0 1.18594 50.616 -35.125)" y2="47.766" x2="57.464" y1="47.766" x1="-4.818" gradientUnits="userSpaceOnUse" id="prefix__linearGradient3594" xlink:href="#prefix__linear-gradient"></linearGradient><linearGradient gradientTransform="matrix(1.18594 0 0 1.18594 50.616 -35.125)" y2="47.766" x2="57.464" y1="47.766" x1="-4.818" gradientUnits="userSpaceOnUse" id="prefix__linearGradient3596" xlink:href="#prefix__linear-gradient"></linearGradient><linearGradient gradientTransform="matrix(1.18594 0 0 1.18594 50.616 -35.125)" y2="47.766" x2="57.464" y1="47.766" x1="-4.818" gradientUnits="userSpaceOnUse" id="prefix__linearGradient3598" xlink:href="#prefix__linear-gradient"></linearGradient><linearGradient gradientTransform="matrix(1.18594 0 0 1.18594 50.616 -35.125)" y2="47.766" x2="57.464" y1="47.766" x1="-4.818" gradientUnits="userSpaceOnUse" id="prefix__linearGradient3600" xlink:href="#prefix__linear-gradient"></linearGradient><linearGradient gradientTransform="matrix(1.18594 0 0 1.18594 50.616 -35.125)" y2="47.766" x2="57.464" y1="47.766" x1="-4.818" gradientUnits="userSpaceOnUse" id="prefix__linearGradient3602" xlink:href="#prefix__linear-gradient"></linearGradient><style id="style3263">.prefix__cls-17{fill:url(#prefix__linear-gradient-20)}</style></defs>{textColor} /&amp;gt; {textColor} /&amp;gt; {textColor} /&amp;gt; {textColor} /&amp;gt; {textColor} /&amp;gt; {textColor} /&amp;gt; {textColor} /&amp;gt; {textColor} /&amp;gt; {textColor} /&amp;gt; {textColor} /&amp;gt; path d=&amp;quot;M150.28 23.6447C149.908 23.6447 149.645 23.5678 149.491 23.4138C149.35 23.2598 149.279 23.016 149.279 22.6824V11.654C149.857 11.2434 150.582 10.9034 151.454 10.6339C152.327 10.3645 153.238 10.2297 154.187 10.2297C158.062 10.2297 160 11.8721 160 15.1569C160 16.6453 159.589 17.8322 158.768 18.7176C157.947 19.6029 156.786 20.0456 155.284 20.0456C154.861 20.0456 154.45 19.9943 154.053 19.8916C153.668 19.789 153.347 19.6478 153.09 19.4682V22.6824C153.09 23.016 153.013 23.2598 152.859 23.4138C152.705 23.5678 152.442 23.6447 152.07 23.6447H150.28ZM154.457 17.4473C155.009 17.4473 155.419 17.242 155.689 16.8314C155.971 16.408 156.112 15.8434 156.112 15.1377C156.112 14.3036 155.945 13.7198 155.612 13.3862C155.291 13.0398 154.79 12.8665 154.11 12.8665C153.674 12.8665 153.328 12.9243 153.071 13.0398V16.1C153.071 16.5363 153.193 16.8699 153.437 17.1008C153.681 17.3318 154.021 17.4473 154.457 17.4473Z&amp;quot; fill={textColor} /&amp;gt;<path d="M29.517 3.583l-.014-.02.018.035s-.004-.008-.004-.015zm2.927 13.009a.073.073 0 000-.017.015.015 0 010 .017zm.082.29a.314.314 0 00.015.049.457.457 0 00-.015-.05zm1.83 2.905a.455.455 0 00.026-.06.452.452 0 01-.025.06zm-2.963 3.082a6.29 6.29 0 00.673-.382q-.32.205-.673.382z" data-name="Path 12" id="prefix__Path_12" fill="url(#prefix__linear-gradient-13)" stroke-width="0.166"></path><path id="prefix__path3312" d="M32.444 16.592a.073.073 0 000-.017.015.015 0 010 .017z" stroke-width="0.166"></path><path id="prefix__path3316" d="M22.353 15.125zm0 0zm0 0zm3.015-2.994c0-.021-.015-.041-.021-.06-.007-.017 0 0 0 0l.023.06.01.024-.012-.024zm-3.015 2.994zm0 0zm0 0z" stroke-width="0.166"></path><path d="M34.383 19.728a.455.455 0 01-.025.06l.025-.06z" id="prefix__path3320" stroke-width="0.166"></path><path d="M32.526 16.881a.314.314 0 00.015.048.457.457 0 00-.015-.048zm-.082-.291a.073.073 0 000-.017.015.015 0 010 .019z" id="prefix__path3322" stroke-width="0.166"></path><path d="M32.448 16.582a.073.073 0 010 .016.015.015 0 000-.016z" id="prefix__path3326" stroke-width="0.166"></path><path d="M29.52 3.598l-.017-.035.014.02s.004.01.004.015z" id="prefix__path3328" stroke-width="0.166"></path><path d="M32.526 16.881a.314.314 0 00.015.048.457.457 0 00-.015-.048z" id="prefix__path3332" stroke-width="0.166"></path><path d="M34.535 15.448a.142.142 0 01.01-.038.285.285 0 00-.01.038z" id="prefix__path3334" stroke-width="0.166"></path><path d="M35.088 15.897a1.28 1.28 0 01-.011.178.48.48 0 01-.01.068.57.57 0 01-.116.331.247.247 0 01-.166.071.245.245 0 01-.188-.07.478.478 0 01-.101-.25 1.784 1.784 0 01-.035-.33c0-.056 0-.113.008-.166 0-.024 0-.046.01-.07a.842.842 0 01.083-.29.247.247 0 01.32-.09.228.228 0 01.102.1.79.79 0 01.073.244 1.49 1.49 0 01.031.274z" id="prefix__path3336" fill="url(#prefix__linear-gradient-14)" stroke-width="0.166"></path><path d="M23.147 14.75a1.533 1.533 0 01-.02.246.942.942 0 01-.063.237.331.331 0 01-.072.1.247.247 0 01-.045.037.348.348 0 01-.11.055.379.379 0 01-.332-.056.435.435 0 01-.152-.247 1.49 1.49 0 01-.047-.372c0-.214.015-.482.204-.62a.367.367 0 01.219-.07.386.386 0 01.221.072.4.4 0 01.15.242 1.314 1.314 0 01.034.165c0 .038.01.077.012.115l.001.096z" id="prefix__path3338" fill="url(#prefix__linear-gradient-15)" stroke-width="0.166"></path><path d="M34.52 14.369a2.4 2.4 0 01-.38 1.288.573.573 0 01-.37.292.417.417 0 01-.332-.117.766.766 0 01-.192-.286c-.036-.095-.083-.182-.12-.277a2.74 2.74 0 01-.097-.3 2.579 2.579 0 01-.072-.627 2.45 2.45 0 01.33-1.206.867.867 0 01.23-.276.379.379 0 01.343-.063.535.535 0 01.232.21 2.406 2.406 0 01.425 1.324.212.212 0 01.004.038z" id="prefix__path3340" fill="url(#prefix__linear-gradient-16)" stroke-width="0.166"></path><path d="M34.774 18.606a2.317 2.317 0 01-.934-.195 2.347 2.347 0 01-.587-.375 2.294 2.294 0 01-.392-.436l-.043-.063a3.851 3.851 0 01-.45-1.288 6.14 6.14 0 01.153-2.944c.009-.03.017-.058.027-.086a.031.031 0 000-.014 2.385 2.385 0 01.614-.993 2.347 2.347 0 011.008-.569l.051-.013.061-.015-.025-.056q-.165-.343-.342-.662c-.01-.02-.022-.037-.033-.057a1.48 1.48 0 01-.166-.288c-.033-.112-.051-.23-.09-.34a.033.033 0 000-.012 2.69 2.69 0 01-.06-.278 16.724 16.724 0 00-.156-.869A16.151 16.151 0 0028.6.485c-.165-.149-.322-.296-.496-.439L28.059 0c0 .023-.008.046-.011.071-.058.38-.111.761-.146 1.144-.035.382-.054.776-.063 1.158v.292a16.236 16.236 0 00.4 3.574 10.011 10.011 0 00-6.743.229c-.048-.051-.095-.103-.144-.152a.374.374 0 00-.043-.048 15.438 15.438 0 00-2.447-2.129 16.153 16.153 0 00-5.488-2.5 18.18 18.18 0 00-.61-.138l-.067-.011c0 .02 0 .04-.011.06a16.61 16.61 0 00-.243 1.489 16.15 16.15 0 002.586 10.79 16.716 16.716 0 002.062 2.518 9.943 9.943 0 001.113 2.72 10.096 10.096 0 004.965 4.223 9.857 9.857 0 003.475.688 10.177 10.177 0 003.552-.584 7.866 7.866 0 002.708-1.56 6.73 6.73 0 001.701-2.649 6.9 6.9 0 00.136-.407l.031-.103.018-.06zM18.364 8.72a6.29 6.29 0 00-.521.806 6.145 6.145 0 00-.455 1.066q-.088.238-.166.487c-.064.213-.122.43-.174.649a10.044 10.044 0 00-.218 1.438L16.726 13a.733.733 0 01-.048-.076q-.331-.538-.626-1.107l-.03-.066a16.347 16.347 0 01-.827-1.905c0-.023-.017-.045-.023-.068a15.99 15.99 0 01-.896-5.296v-.234a16.165 16.165 0 014.634 2.753c.131.11.26.223.388.34a.26.26 0 01.044.042l.166.144.016.015-.086.066c-.122.1-.243.202-.357.31l-.053.048-.071.07a6.27 6.27 0 00-.593.684zm7.257 6.491a5.889 5.889 0 01-.203.828c-.01.033-.02.066-.033.1a2.317 2.317 0 01-.828 1.096l-.056.04a2.29 2.29 0 01-.801.343l-.09.016a2.305 2.305 0 01-.403.037 2.279 2.279 0 01-.64-.093.39.39 0 01-.064-.017 2.317 2.317 0 01-1.037-.678 3.11 3.11 0 01-.644-1.465c-.205-.993-.209-2.123.132-3.09a2.602 2.602 0 01.838-1.214l.051-.04a2.344 2.344 0 011.364-.442c1.122 0 1.951.783 2.272 1.82a4.483 4.483 0 01.113.439 6.175 6.175 0 01.132 1.27 6.079 6.079 0 01-.102 1.05zm3.954 4.183a.531.531 0 01-.314.382.508.508 0 01-.207.041.53.53 0 11.521-.427zm2.317-11.046a9.93 9.93 0 00-1.06-.828q-.307-.208-.624-.393c0-.045-.009-.088-.012-.133-.043-.496-.11-.993-.197-1.49l-.015-.07c-.058-.332-.129-.646-.208-.964 0-.023-.012-.048-.019-.07q-.102-.4-.223-.792l-.018-.035.015.02q.349.467.662.958l.053.085c.251.394.485.8.7 1.218.016.031.033.061.048.093a16.04 16.04 0 011.032 2.537 2.546 2.546 0 00-.145-.136z" id="prefix__path3342" fill="url(#prefix__linear-gradient-17)" stroke-width="0.166"></path><path d="M34.535 15.448a.142.142 0 01.01-.038.285.285 0 00-.01.038zm0 0a.142.142 0 01.01-.038.285.285 0 00-.01.038zm0 0a.142.142 0 01.01-.038.285.285 0 00-.01.038zm0 0a.142.142 0 01.01-.038.285.285 0 00-.01.038zm0 0a.142.142 0 01.01-.038.285.285 0 00-.01.038zm0 0a.142.142 0 01.01-.038.285.285 0 00-.01.038zm0 0a.142.142 0 01.01-.038.285.285 0 00-.01.038zm0 0a.142.142 0 01.01-.038.285.285 0 00-.01.038zm0 0a.142.142 0 01.01-.038.285.285 0 00-.01.038zm0 0a.142.142 0 01.01-.038.285.285 0 00-.01.038zm0 0a.142.142 0 01.01-.038.285.285 0 00-.01.038zm0 0a.142.142 0 01.01-.038.285.285 0 00-.01.038zm0 0a.142.142 0 01.01-.038.285.285 0 00-.01.038zm0 0a.142.142 0 01.01-.038.285.285 0 00-.01.038zm0 0a.142.142 0 01.01-.038.285.285 0 00-.01.038zm0 0a.142.142 0 01.01-.038.285.285 0 00-.01.038zm0 0a.142.142 0 01.01-.038.285.285 0 00-.01.038zm0 0a.142.142 0 01.01-.038.285.285 0 00-.01.038zm0 0a.142.142 0 01.01-.038.285.285 0 00-.01.038zm0 0a.142.142 0 01.01-.038.285.285 0 00-.01.038zm0 0a.142.142 0 01.01-.038.285.285 0 00-.01.038zm-3.144 7.421a6.29 6.29 0 00.674-.382q-.32.205-.672.382zm2.964-3.082a.455.455 0 00.025-.06.297.297 0 01-.023.06zm.179-4.339a.142.142 0 01.01-.038.285.285 0 00-.009.038zm0 0a.142.142 0 01.01-.038.285.285 0 00-.009.038zm0 0a.142.142 0 01.01-.038.285.285 0 00-.009.038zm0 0a.142.142 0 01.01-.038.285.285 0 00-.009.038zm0 0a.142.142 0 01.01-.038.285.285 0 00-.009.038zm0 0a.142.142 0 01.01-.038.285.285 0 00-.009.038zm0 0a.142.142 0 01.01-.038.285.285 0 00-.009.038zm0 0a.142.142 0 01.01-.038.285.285 0 00-.009.038zm0 0a.142.142 0 01.01-.038.285.285 0 00-.009.038zm0 0a.142.142 0 01.01-.038.285.285 0 00-.009.038zm0 0a.142.142 0 01.01-.038.285.285 0 00-.009.038zm-9.189-3.376s.017.04.023.06c-.006-.022-.015-.042-.021-.06zm9.189 3.376a.142.142 0 01.01-.038.285.285 0 00-.009.038zm0 0a.142.142 0 01.01-.038.285.285 0 00-.009.038zm0 0a.142.142 0 01.01-.038.285.285 0 00-.009.038zm0 0a.142.142 0 01.01-.038.285.285 0 00-.009.038zm0 0a.142.142 0 01.01-.038.285.285 0 00-.009.038zm0 0a.142.142 0 01.01-.038.285.285 0 00-.009.038zm0 0a.142.142 0 01.01-.038.285.285 0 00-.009.038zm0 0a.142.142 0 01.01-.038.285.285 0 00-.009.038zm0 0a.142.142 0 01.01-.038.285.285 0 00-.009.038zm0 0a.142.142 0 01.01-.038.285.285 0 00-.009.038z" id="prefix__path3344" fill="#ff1d25" stroke-width="0.166"></path><path d="M25.14 13.205a2.317 2.317 0 01-.18.907 1.738 1.738 0 01-.497.744.6.6 0 01-.166.087.578.578 0 01-.38 0 1.106 1.106 0 01-.535-.564 2.46 2.46 0 01-.291-.879c0-.021 0-.043-.008-.068 0-.073-.01-.149-.01-.227a1.718 1.718 0 01.008-.185v-.061a2.368 2.368 0 01.331-1.005c.146-.25.404-.524.717-.52.34 0 .569.345.71.615a2.56 2.56 0 01.296 1.026q.005.07.005.13z" id="prefix__path3346" fill="url(#prefix__linear-gradient-18)" stroke-width="0.166"></path><path d="M34.143 25.201a.243.243 0 01-.07.137.248.248 0 01-.284.045.194.194 0 01-.05-.031l-.023-.023a.134.134 0 00-.02-.024.108.108 0 00-.086-.028.083.083 0 00-.04.015.106.106 0 00-.044.063.012.012 0 000 .008.09.09 0 000 .047.101.101 0 01.011.023.166.166 0 010 .084.156.156 0 01-.043.093.166.166 0 01-.274-.073v-.012a.103.103 0 00-.076-.067.166.166 0 00-.08.01l-.09.023c-.12.031-.238.064-.353.1-.03 0-.057.017-.083.025a9.645 9.645 0 00-1.612.67 9.988 9.988 0 00-4.336 4.433l-.116.24c-.209.453-.404.91-.404 1.417a2.289 2.289 0 00.124.748c0 .021.015.043.023.064.009.022.009.018.012.028a.303.303 0 00.023.053.094.094 0 00.04.032.11.11 0 00.033.01h.008a.094.094 0 00.063-.022l.02-.018.033-.005a.185.185 0 01.053-.02.252.252 0 01.063-.008.245.245 0 01.136.45.189.189 0 01-.093.036.103.103 0 00-.073.042.096.096 0 00.018.144.093.093 0 00.028.015.104.104 0 00.032 0h.063a.266.266 0 01.061.011.258.258 0 01.084.045.225.225 0 01.062.074.202.202 0 01.028.091.255.255 0 010 .072.27.27 0 01-.03.076.124.124 0 01-.015.025.247.247 0 01-.198.099.225.225 0 01-.048 0 .194.194 0 01-.034-.01.268.268 0 01-.057-.028.3.3 0 01-.035-.03.1.1 0 00-.091-.026.12.12 0 00-.047.021.197.197 0 00-.024.03.139.139 0 000 .02.106.106 0 00.018.094l.02.017.018.024a.242.242 0 01.028.055.248.248 0 01-.23.331.27.27 0 01-.098-.02.248.248 0 01-.08-.056.237.237 0 01-.055-.085.247.247 0 01-.019-.089.068.068 0 010-.02.113.113 0 000-.023.101.101 0 00-.041-.081.103.103 0 00-.081-.02.118.118 0 00-.03.013.094.094 0 00-.036.032.084.084 0 00-.012.028.331.331 0 01-.015.068.152.152 0 01-.026.045.26.26 0 01-.04.034.166.166 0 01-.05.02.175.175 0 01-.082 0 .166.166 0 01-.085-.06.166.166 0 01-.033-.095v-.062a.086.086 0 00-.016-.044.103.103 0 00-.065-.043l-.116-.032a1.632 1.632 0 01-.165-.054 2.396 2.396 0 01-1.194-.993 1.52 1.52 0 01-.064-.113c-.02-.038-.042-.078-.06-.118-.018-.04-.02-.04-.028-.06a.91.91 0 01-.023-.062c-.007-.02 0-.017-.012-.025a.166.166 0 00-.008-.02 2.329 2.329 0 00-2.133-1.4c-.497 0-.94.182-1.382.38a9.952 9.952 0 00-3.034 2.132 10.06 10.06 0 00-1.92 2.78 11.468 11.468 0 00-.496 1.361 6.517 6.517 0 01-1.927 3.072 6.188 6.188 0 01-.74.553l-.11.07-.111.066a6.516 6.516 0 01-.967.455 4.76 4.76 0 01-.306.104l-.13.041a10.574 10.574 0 01-2.516.436 8.866 8.866 0 01-1.715-.073 9.6 9.6 0 01-2.282-.571 6.352 6.352 0 01-1.185-.63 3.002 3.002 0 01-.166-.12 6.887 6.887 0 01-.738-.632 6.355 6.355 0 01-.717-.86l-.057-.085a6.155 6.155 0 01-.952-2.411l-.022-.126a3.246 3.246 0 01-.028-.222A3.515 3.515 0 010 36.927a3.956 3.956 0 01.053-.642 3.851 3.851 0 011.455-2.407l.054-.041c.095-.071.194-.136.295-.199l.066-.04a3.84 3.84 0 01.87-.367c.08-.023.165-.044.24-.061a2.152 2.152 0 01.249-.04c.08 0 .165-.011.237-.011a2.137 2.137 0 01.307.02h.057a2.71 2.71 0 01.266.056l.13.04.127.048.092.038a2.411 2.411 0 011.084.98l.035.062q.045.081.085.166c.024.058.048.117.07.177a1.837 1.837 0 01.055.185c.017.063.032.126.043.19 0 .029.01.057.014.087.003.03 0 .053.008.08a2.468 2.468 0 01.013.247v.12c-.033 1.055.773 2.02 1.781 2.262a2.375 2.375 0 002.224-.662 5.546 5.546 0 00.546-.751 16.62 16.62 0 012.57-2.884 16.22 16.22 0 011.576-1.234 18.15 18.15 0 011.917-1.13l.318-.154.165-.078.118-.053.048-.023.058-.025.165-.075c.055-.021.11-.044.166-.07a2.363 2.363 0 00-.393-.108 2.329 2.329 0 00-1.51.238 2.569 2.569 0 01-1.244.347 2.363 2.363 0 01-.68-.099l-.09-.028a.19.19 0 00-.079-.017.094.094 0 00-.056.03.212.212 0 00-.025.042.26.26 0 01-.031.043.19.19 0 01-.032.023.177.177 0 01-.135.015.166.166 0 01-.065-.04.166.166 0 01-.048-.094.166.166 0 01.015-.091.146.146 0 00.012-.024.1.1 0 000-.086.139.139 0 00-.035-.034.101.101 0 00-.121 0c-.013.008-.018.023-.026.034a.142.142 0 01-.022.024.265.265 0 01-.05.038.247.247 0 01-.298-.388.265.265 0 01.085-.054.23.23 0 01.074-.015.1.1 0 00.072-.03.103.103 0 00.024-.036.106.106 0 000-.068.091.091 0 00-.036-.05.088.088 0 00-.05-.02h-.061a.255.255 0 01-.061-.015.27.27 0 01-.078-.053.242.242 0 01-.068-.135.25.25 0 01.023-.15.232.232 0 01.115-.112.22.22 0 01.06-.02.252.252 0 01.166.03.166.166 0 01.037.023c.018.015.03.035.048.05a.096.096 0 00.06.02.104.104 0 00.102-.09.101.101 0 00-.02-.074l-.01-.012a.207.207 0 01-.05-.089.242.242 0 01.06-.247.248.248 0 01.35 0 .146.146 0 01.02.025.217.217 0 01.034.06.293.293 0 00.03.074.1.1 0 00.063.04.116.116 0 00.074-.017l.106-.066c.05-.033.098-.07.144-.107a2.107 2.107 0 00.275-.255 3.908 3.908 0 00.634-1.147 10.187 10.187 0 00.662-2.774l.014-.187c.014-.232.025-.465.025-.697v-.011a9.895 9.895 0 00-.645-3.526c-.076-.203-.166-.402-.25-.599-.015-.033-.032-.064-.046-.099a.142.142 0 00-.039-.055.104.104 0 00-.06-.02.13.13 0 00-.036 0 .24.24 0 01-.036.015.142.142 0 01-.046 0h-.042a.166.166 0 01-.074-.033.166.166 0 01-.063-.129.154.154 0 01.036-.1.137.137 0 01.043-.039l.029-.013a.166.166 0 01.026-.01.096.096 0 00.043-.038.104.104 0 000-.108.1.1 0 00-.056-.044.068.068 0 00-.027 0 .404.404 0 01-.044 0 .177.177 0 01-.042 0 .258.258 0 01-.078-.028l-.021-.017a.24.24 0 01-.081-.11.248.248 0 01.035-.233.194.194 0 01.043-.046.25.25 0 01.152-.053.255.255 0 01.165.056l.043.043a.104.104 0 00.058.019.096.096 0 00.043-.01h.014a.104.104 0 00.021-.018.1.1 0 00.025-.067.093.093 0 00-.008-.038.088.088 0 00-.022-.033l-.021-.028a.13.13 0 01-.019-.033.222.222 0 01-.011-.03.248.248 0 01-.012-.073.237.237 0 01.043-.137.248.248 0 01.204-.108.25.25 0 01.246.245.407.407 0 010 .047.084.084 0 000 .021.103.103 0 00.18.066.1.1 0 00.024-.066v-.013a.276.276 0 01.018-.098.271.271 0 01.096-.11.258.258 0 01.061-.029.235.235 0 01.07-.01.23.23 0 01.101.022.22.22 0 01.083.063.248.248 0 01.06.117.276.276 0 010 .111c-.01.035-.035.066-.034.101a.127.127 0 00.013.045c.025.046.07.051.116.064l.068.02c.056.017.113.037.166.057.053.02.165.054.245.086a6.322 6.322 0 011.069.534c.074.047.145.095.217.144q.183.124.357.263c.147.12.291.244.429.376.372.358.682.775 1.046 1.142a10.028 10.028 0 001.168 1.015l.253.18a.449.449 0 00.058.04 9.866 9.866 0 002.868 1.347 8.972 8.972 0 001.96.352q.384.03.77.03a9.919 9.919 0 002.949-.445l.207-.068a6.165 6.165 0 011.08-.232l.128-.013a5.844 5.844 0 01.64-.033 6.105 6.105 0 011.311.14l.123.027a.106.106 0 00.096-.026.11.11 0 00.03-.073.213.213 0 01.028-.1.217.217 0 01.043-.06.248.248 0 01.349 0 .238.238 0 01.068.132.15.15 0 010 .038v.05a.132.132 0 01-.015.042c-.01.024-.025.047-.037.07a.106.106 0 00-.01.03.094.094 0 00.012.06.074.074 0 00.018.028.1.1 0 00.114.02l.025-.016.018-.021.024-.027a.22.22 0 01.054-.04.243.243 0 01.293.04.247.247 0 01.056.26.207.207 0 01-.056.09.24.24 0 01-.084.054l-.042.014H33.888a.084.084 0 00-.06.028.094.094 0 00-.03.066.101.101 0 00.03.078.106.106 0 00.036.023.061.061 0 00.023 0h.066a.197.197 0 01.053.016.227.227 0 01.074.05.248.248 0 01.063.225z" id="prefix__path3348" fill="url(#prefix__linear-gradient-19)" stroke-width="0.166"></path></svg>