<svg xmlns="http://www.w3.org/2000/svg" width="40" height="40" viewBox="0 0 40 40">
    <g fill="none" fill-rule="evenodd">
        <g>
            <g>
                <g>
                    <g>
                        <g transform="translate(-183.000000, -434.000000) translate(84.000000, 171.000000) translate(40.000000, 223.000000) translate(52.000000, 40.000000) translate(7.000000, 0.000000)">
                            <circle cx="20" cy="20" r="20" fill="#FFF"/>
                            <g fill-rule="nonzero">
                                <path fill="#282E5B" d="M13.51 9.834c0-4.48-2.16-8.34-3.814-9.604 0 0-.115-.07-.115.115-.138 8.662-4.526 11.028-6.962 14.176-5.583 7.306-.39 15.302 4.894 16.772 2.964.827-.69-1.47-1.149-6.295-.551-5.859 7.146-10.316 7.146-15.164" transform="translate(10.000000, 4.000000)"/>
                                <path fill="#059BDC" d="M16.405 12.798c-.023-.023-.07-.023-.115 0l-.023.023c-.092 1.08-1.287 3.423-2.78 5.56-5.078 7.26-2.183 10.753-.552 12.637.943 1.102 0 0 2.367-1.126.184-.092 4.595-2.436 5.078-7.743.482-5.17-2.803-8.41-3.975-9.351" transform="translate(10.000000, 4.000000)"/>
                            </g>
                        </g>
                    </g>
                </g>
            </g>
        </g>
    </g>
</svg>
