<svg xmlns="http://www.w3.org/2000/svg" xmlns:xlink="http://www.w3.org/1999/xlink" width="20" height="20" viewBox="0 0 20 20">
    <defs>
        <path id="32h098nboa" d="M0 0.039L8.281 0.039 8.281 2.031 0 2.031z"/>
        <path id="rtm46twwac" d="M0 0.047L8.578 0.047 8.578 9.344 0 9.344z"/>
    </defs>
    <g fill="none" fill-rule="evenodd">
        <g>
            <g>
                <g>
                    <g>
                        <g>
                            <g>
                                <path fill="#E2761B" d="M19.003.099c-.01-.018-.03-.025-.048-.018L12.62 2.448c-.01.004-.018.011-.022.021l-1.438 3.406c-.006.017-.002.036.012.046.007.006.016.009.024.009s.017-.003.024-.008L18.992.149c.016-.012.02-.033.011-.05" transform="translate(-857.000000, -518.000000) translate(53.000000, 396.000000) translate(0.000000, 88.000000) translate(798.000000, 28.000000) translate(6.000000, 4.000000) translate(0.000000, 2.000000)"/>
                                <path fill="#E4761B" d="M8.734 5.984c.009 0 .017-.002.024-.008.014-.01.02-.029.013-.045l-.066-.167-.01-.289c0-.015-.01-.028-.023-.034-.014-.006-.03-.004-.042.006l-.037.034-1.19-3.01c-.004-.011-.012-.02-.022-.023L1.037.08C1.02.074 1 .08.99.098.98.115.984.137 1 .148L8.346 5.7 5.623 8.111l-.007.008-1.234 1.867c-.008.012-.01.027-.003.04.007.012.02.02.033.02l4.399.196h.002c.01 0 .02-.004.027-.011.008-.008.012-.018.012-.03l-.14-4.224c.007.005.014.007.022.007M19.836 13.547c-.007-.01-.018-.015-.03-.016l-3.633-.07c-.014-.001-.026.006-.034.018l-2.011 3.082-.355-2.964c-.002-.014-.01-.026-.024-.032-.013-.005-.028-.003-.039.006l-2.28 1.781c-.011.008-.017.022-.016.035.002.013.01.025.022.031l2.648 1.289h.004l.003.003 4.43 1.218.01.002c.017 0 .033-.011.038-.028l1.273-4.32c.004-.012.001-.025-.006-.035M15.62 10.026c.007-.013.006-.028-.002-.04L14.376 8.12l-.006-.007-3.047-2.72c-.011-.01-.028-.012-.042-.006-.014.006-.023.02-.023.035l-.102 4.781c0 .011.004.021.012.03.007.006.017.01.027.01h.002l4.39-.195c.015 0 .027-.009.034-.021M6.282 13.57c-.011-.008-.026-.01-.04-.004-.012.005-.021.017-.023.031l-.347 2.963-2.011-3.081c-.008-.012-.02-.018-.034-.018l-3.625.07c-.012 0-.023.006-.03.016-.008.01-.01.023-.006.034l1.265 4.32c.005.018.02.029.038.029.003 0 .007 0 .01-.002l4.43-1.218.003-.002h.004l2.64-1.29c.012-.006.02-.018.022-.031.001-.013-.004-.027-.015-.035l-2.281-1.781z" transform="translate(-857.000000, -518.000000) translate(53.000000, 396.000000) translate(0.000000, 88.000000) translate(798.000000, 28.000000) translate(6.000000, 4.000000) translate(0.000000, 2.000000)"/>
                                <path fill="#D7C1B3" d="M14.119 16.637l-2.649-1.29c-.013-.006-.028-.004-.04.004-.011.008-.017.022-.016.037l.211 1.72-.023.727c0 .013.006.026.017.034.007.004.014.006.022.006.005 0 .011-.001.016-.004l2.461-1.164c.014-.006.023-.02.023-.035 0-.015-.009-.029-.022-.035M8.562 15.351c-.012-.008-.027-.01-.04-.003l-2.64 1.289c-.014.006-.023.02-.023.035 0 .015.01.029.023.035l2.46 1.164c.006.003.012.004.017.004.008 0 .015-.002.022-.006.011-.008.018-.02.017-.034l-.015-.721.195-1.727c.002-.014-.005-.028-.016-.036" transform="translate(-857.000000, -518.000000) translate(53.000000, 396.000000) translate(0.000000, 88.000000) translate(798.000000, 28.000000) translate(6.000000, 4.000000) translate(0.000000, 2.000000)"/>
                                <path fill="#233447" d="M8.398 12.461L6.195 11.813 7.75 11.102z" transform="translate(-857.000000, -518.000000) translate(53.000000, 396.000000) translate(0.000000, 88.000000) translate(798.000000, 28.000000) translate(6.000000, 4.000000) translate(0.000000, 2.000000)"/>
                                <path fill="#233447" d="M6.307 11.805l2.018.594-.594-1.246-1.424.652zm2.091.695c-.003 0-.007 0-.01-.002l-2.204-.648c-.015-.005-.027-.018-.028-.035 0-.016.008-.031.023-.038l1.555-.711c.02-.009.042 0 .051.019l.649 1.36c.006.013.004.03-.006.041-.007.01-.018.014-.03.014zM11.594 12.461L12.242 11.102 13.805 11.813z" transform="translate(-857.000000, -518.000000) translate(53.000000, 396.000000) translate(0.000000, 88.000000) translate(798.000000, 28.000000) translate(6.000000, 4.000000) translate(0.000000, 2.000000)"/>
                                <path fill="#233447" d="M12.261 11.153l-.594 1.246 2.026-.594-1.432-.652zm-.667 1.347c-.012 0-.022-.005-.03-.014-.01-.011-.012-.028-.005-.042l.648-1.36c.01-.018.032-.027.051-.018l1.563.711c.015.007.024.022.023.038-.001.017-.013.03-.028.035l-2.211.648-.011.002z" transform="translate(-857.000000, -518.000000) translate(53.000000, 396.000000) translate(0.000000, 88.000000) translate(798.000000, 28.000000) translate(6.000000, 4.000000) translate(0.000000, 2.000000)"/>
                                <path fill="#CD6116" d="M6.272 13.461l-2.445.07c-.014 0-.027.009-.034.021-.006.013-.005.028.003.04l2.07 3.102c.007.01.02.017.032.017l.01-.001c.015-.004.027-.017.03-.033l.374-3.172c.002-.012-.002-.023-.01-.031-.007-.009-.02-.013-.03-.013M16.207 13.552c-.007-.012-.02-.02-.034-.02l-2.445-.071c-.011 0-.023.004-.03.013-.008.008-.012.02-.01.03l.375 3.173c.002.016.014.03.03.033l.009.001c.012 0 .025-.006.032-.017l2.07-3.102c.008-.012.01-.027.003-.04M13.84 11.84l1.774-1.805c.011-.011.014-.028.008-.043-.007-.015-.02-.026-.038-.023l-4.39.195c-.012 0-.022.006-.03.015-.006.009-.01.02-.007.031l.406 2.258c.003.017.017.03.033.032h.006c.014 0 .028-.008.035-.022l.632-1.325 1.527.695c.015.007.033.004.044-.008M8.814 10.164L4.416 9.97c-.017-.002-.031.008-.038.023-.006.015-.003.032.008.043l1.782 1.805c.011.012.029.015.043.008l1.528-.695.624 1.325c.007.013.02.022.035.022h.005c.017-.002.03-.015.034-.032l.414-2.258c.002-.01 0-.022-.008-.031-.007-.01-.017-.014-.029-.015" transform="translate(-857.000000, -518.000000) translate(53.000000, 396.000000) translate(0.000000, 88.000000) translate(798.000000, 28.000000) translate(6.000000, 4.000000) translate(0.000000, 2.000000)"/>
                                <path fill="#E4751F" d="M6.223 11.785L4.442 9.98c-.014-.013-.035-.015-.05-.004-.016.011-.022.033-.013.05l1.844 3.593c.007.014.02.022.035.022.003 0 .006 0 .01-.002.017-.004.03-.02.029-.039l-.063-1.789c0-.01-.004-.019-.01-.026M15.609 9.976c-.016-.011-.037-.01-.05.004l-1.774 1.805c-.007.007-.011.016-.012.026l-.078 1.789c0 .018.012.035.03.04h.01c.014 0 .027-.007.034-.02l1.852-3.594c.009-.017.003-.038-.012-.05M8.813 10.164c-.02-.001-.035.013-.039.032l-.414 2.258v.014l.516 2.664c.003.019.02.032.038.032h.003c.02-.002.035-.018.036-.038l.117-3.515-.219-1.414c-.003-.019-.019-.033-.038-.033M11.195 10.164c-.02 0-.035.014-.038.033l-.212 1.413.094 3.516c0 .02.016.036.036.038h.003c.019 0 .035-.013.038-.031l.524-2.664v-.015l-.406-2.258c-.004-.019-.02-.033-.04-.032" transform="translate(-857.000000, -518.000000) translate(53.000000, 396.000000) translate(0.000000, 88.000000) translate(798.000000, 28.000000) translate(6.000000, 4.000000) translate(0.000000, 2.000000)"/>
                                <g transform="translate(-857.000000, -518.000000) translate(53.000000, 396.000000) translate(0.000000, 88.000000) translate(798.000000, 28.000000) translate(6.000000, 4.000000) translate(0.000000, 2.000000) translate(5.859375, 16.593828)">
                                    <mask id="bjm629z5xb" fill="#fff">
                                        <use xlink:href="#32h098nboa"/>
                                    </mask>
                                    <path fill="#C0AD9E" d="M8.275.057c-.01-.016-.032-.023-.05-.014L5.822 1.179l.022-.662c0-.012-.005-.023-.014-.03L5.635.313C5.628.308 5.62.304 5.61.304H2.664c-.01 0-.02.005-.027.012l-.18.171c-.007.008-.012.018-.012.03l.015.663L.056.043C.038.034.016.04.006.057c-.01.017-.007.039.008.051l.862.705 1.742 1.211c.007.005.015.007.023.007h2.992c.008 0 .016-.002.022-.007L7.408.811l.859-.703c.015-.012.019-.034.008-.05" mask="url(#bjm629z5xb)"/>
                                </g>
                                <path fill="#161616" d="M11.492 15.378c-.001-.011-.008-.021-.017-.027l-.375-.258c-.006-.005-.014-.007-.022-.007H8.914c-.008 0-.016.002-.022.007l-.375.258c-.01.006-.015.016-.017.027l-.195 1.727c-.002.016.007.032.021.04l.018.003c.01 0 .02-.003.027-.01l.168-.161h2.915l.184.162c.012.01.03.013.044.005.015-.008.023-.023.02-.04l-.21-1.726z" transform="translate(-857.000000, -518.000000) translate(53.000000, 396.000000) translate(0.000000, 88.000000) translate(798.000000, 28.000000) translate(6.000000, 4.000000) translate(0.000000, 2.000000)"/>
                                <path fill="#763D16" d="M19.297 6.266L19.961 3.078 18.969 0.117 11.453 5.695 14.344 8.141 18.43 9.336 19.336 8.281 18.945 8 19.57 7.43 19.086 7.055 19.711 6.578z" transform="translate(-857.000000, -518.000000) translate(53.000000, 396.000000) translate(0.000000, 88.000000) translate(798.000000, 28.000000) translate(6.000000, 4.000000) translate(0.000000, 2.000000)"/>
                                <path fill="#763D16" d="M14.363 8.106l4.054 1.185.862-1.003-.357-.256c-.01-.007-.015-.018-.016-.03 0-.011.004-.023.013-.03l.59-.54-.447-.346c-.01-.008-.015-.02-.015-.031 0-.013.006-.024.015-.031l.584-.446-.373-.281c-.012-.01-.017-.024-.014-.04l.662-3.176-.972-2.9-7.433 5.516 2.847 2.409zm4.067 1.269c-.004 0-.008 0-.011-.002l-4.086-1.195c-.005-.001-.01-.004-.014-.007l-2.891-2.446c-.01-.008-.014-.019-.014-.03 0-.013.006-.024.016-.031L18.945.086c.01-.008.023-.01.035-.006.012.004.022.013.026.025l.992 2.96c.002.007.003.014.001.021L19.34 6.25l.394.298c.01.007.016.019.016.031s-.006.024-.015.031l-.585.446.444.344c.01.007.015.018.015.03 0 .01-.004.022-.012.03l-.59.537.352.254c.009.006.014.016.016.027.001.01-.002.021-.01.03L18.46 9.36c-.007.01-.018.014-.03.014zM.039 3.078L.703 6.266.281 6.578.906 7.055.43 7.43 1.055 8 .664 8.281 1.562 9.336 5.648 8.141 8.539 5.695 1.023.117z" transform="translate(-857.000000, -518.000000) translate(53.000000, 396.000000) translate(0.000000, 88.000000) translate(798.000000, 28.000000) translate(6.000000, 4.000000) translate(0.000000, 2.000000)"/>
                                <g transform="translate(-857.000000, -518.000000) translate(53.000000, 396.000000) translate(0.000000, 88.000000) translate(798.000000, 28.000000) translate(6.000000, 4.000000) translate(0.000000, 2.000000) translate(0.000000, 0.031328)">
                                    <mask id="p4ut2z4y3d" fill="#fff">
                                        <use xlink:href="#rtm46twwac"/>
                                    </mask>
                                    <path fill="#763D16" d="M.721 8.257l.855 1.003L5.63 8.074l2.846-2.408L1.043.149.08 3.05l.662 3.177c.003.015-.002.03-.015.04l-.38.281.584.445c.01.008.015.019.015.031s-.005.024-.015.031l-.44.347.591.539c.009.008.013.02.013.031-.001.012-.007.023-.016.03l-.357.256zm.842 1.087c-.012 0-.023-.005-.03-.014L.634 8.275c-.007-.008-.01-.019-.009-.03.002-.01.007-.02.016-.027l.352-.253-.59-.538C.395 7.42.39 7.408.391 7.397c0-.011.006-.022.014-.03l.437-.343-.584-.446c-.01-.007-.016-.02-.016-.031 0-.013.006-.024.016-.032l.402-.297L0 3.055c0-.007 0-.014.002-.02L.986.073C.99.062 1 .052 1.012.049c.012-.004.025-.002.035.006l7.515 5.578c.01.007.016.018.016.03s-.005.023-.014.03L5.674 8.14c-.005.004-.01.006-.015.008L1.573 9.342l-.01.002z" mask="url(#p4ut2z4y3d)"/>
                                </g>
                                <path fill="#F6851B" d="M19.842 13.558l-1.375-4.234c-.004-.012-.014-.022-.026-.026l-4.086-1.195c-.016-.004-.033.001-.043.015-.01.013-.01.03 0 .044l1.229 1.848-1.76 3.416.07-1.612c.001-.012-.004-.024-.014-.032s-.023-.01-.035-.007l-2.211.649c-.014.004-.025.015-.028.03l-.444 2.26.014-3.086.101-1.422.258-4.503 1.185-3.205c.005-.012.003-.025-.004-.036-.008-.01-.02-.017-.032-.017H7.367c-.013 0-.024.007-.032.017-.007.01-.009.024-.004.036L8.5 5.703l.273 4.503.093 1.42.007 3.087-.437-2.26c-.003-.014-.014-.025-.028-.03l-2.203-.648c-.012-.003-.025-.001-.035.007-.01.007-.015.02-.015.032l.057 1.614-1.754-3.418 1.222-1.848c.009-.013.009-.031-.001-.045-.01-.013-.027-.019-.043-.014L1.552 9.298c-.013.004-.023.014-.027.026l-1.36 4.234c-.003.012 0 .025.007.035.007.01.019.016.031.016h3.625l2.416.032 2.271 1.773c.007.005.016.008.024.008s.015-.002.022-.007l.365-.25h2.14l.365.25c.007.005.014.007.022.007.009 0 .017-.003.024-.008l2.271-1.773 2.424-.032h3.633c.012 0 .024-.006.031-.016.008-.01.01-.023.006-.035" transform="translate(-857.000000, -518.000000) translate(53.000000, 396.000000) translate(0.000000, 88.000000) translate(798.000000, 28.000000) translate(6.000000, 4.000000) translate(0.000000, 2.000000)"/>
                            </g>
                        </g>
                    </g>
                </g>
            </g>
        </g>
    </g>
</svg>
