<svg xmlns="http://www.w3.org/2000/svg" width="20" height="20" viewBox="0 0 20 20">
    <g fill="none" fill-rule="evenodd">
        <g fill-rule="nonzero">
            <g>
                <g>
                    <g>
                        <g>
                            <g>
                                <g>
                                    <path fill="#FFF" d="M8.444 6.146c0-2.8-1.35-5.213-2.384-6.002 0 0-.072-.043-.072.071-.086 5.414-2.829 6.893-4.351 8.86-3.49 4.567-.244 9.564 3.059 10.483 1.852.517-.431-.919-.718-3.934-.345-3.662 4.466-6.448 4.466-9.478" transform="translate(-966.000000, -246.000000) translate(53.000000, 111.000000) translate(0.000000, 96.000000) translate(907.000000, 32.000000) translate(6.000000, 5.000000) translate(0.000000, 2.000000) translate(4.000000, 0.000000)"/>
                                    <path fill="#059BDC" d="M10.253 7.999c-.014-.015-.043-.015-.072 0l-.014.014c-.058.675-.804 2.14-1.738 3.475-3.173 4.538-1.364 6.72-.344 7.898.588.69 0 0 1.479-.704.115-.057 2.872-1.522 3.173-4.839.302-3.231-1.752-5.256-2.484-5.844" transform="translate(-966.000000, -246.000000) translate(53.000000, 111.000000) translate(0.000000, 96.000000) translate(907.000000, 32.000000) translate(6.000000, 5.000000) translate(0.000000, 2.000000) translate(4.000000, 0.000000)"/>
                                </g>
                            </g>
                        </g>
                    </g>
                </g>
            </g>
        </g>
    </g>
</svg>
