<svg xmlns="http://www.w3.org/2000/svg" width="40" height="40" viewBox="0 0 40 40">
    <g fill="none" fill-rule="evenodd">
        <g>
            <g>
                <g>
                    <g>
                        <g transform="translate(-183.000000, -259.000000) translate(84.000000, 171.000000) translate(40.000000, 48.000000) translate(40.000000, 40.000000) translate(19.000000, 0.000000)">
                            <circle cx="20" cy="20" r="20" fill="#F3BA2F"/>
                            <g fill="#FFF" fill-rule="nonzero">
                                <path d="M9.882 13.301L16.029 7.154 22.179 13.304 25.756 9.727 16.029 0 6.305 9.724z" transform="translate(4.000000, 4.000000)"/>
                                <path d="M1.25 13.297L6.308 13.297 6.308 18.355 1.25 18.355z" transform="translate(4.000000, 4.000000) translate(3.779101, 15.825904) rotate(45.000000) translate(-3.779101, -15.825904)"/>
                                <path d="M9.882 18.352L16.029 24.499 22.179 18.349 25.758 21.924 25.756 21.926 16.029 31.653 6.305 21.929 6.3 21.924z" transform="translate(4.000000, 4.000000)"/>
                                <path d="M25.75 13.298L30.808 13.298 30.808 18.357 25.75 18.357z" transform="translate(4.000000, 4.000000) translate(28.278756, 15.827589) rotate(135.000000) translate(-28.278756, -15.827589)"/>
                                <path d="M19.657 15.825L19.658 15.825 16.029 12.195 13.347 14.877 13.346 14.877 13.038 15.185 12.403 15.821 12.403 15.821 12.398 15.826 12.403 15.832 16.029 19.458 19.658 15.828 19.66 15.826z" transform="translate(4.000000, 4.000000)"/>
                            </g>
                        </g>
                    </g>
                </g>
            </g>
        </g>
    </g>
</svg>
