<svg xmlns="http://www.w3.org/2000/svg" width="24" height="24" viewBox="0 0 24 24">
    <g fill="none" fill-rule="evenodd">
        <g>
            <g>
                <g transform="translate(-1226 -912) translate(1202 900) translate(24 12)">
                    <circle cx="12" cy="12" r="12" fill="#EE1C25"/>
                    <g fill="#FF0" fill-rule="nonzero">
                        <path d="M3.902 0L6.302 7.387 0.018 2.821 7.785 2.821 1.502 7.387z" transform="translate(2.863 5.735)"/>
                    </g>
                    <g fill="#FF0" fill-rule="nonzero">
                        <path d="M1.316 0L2.116 2.462 0.021 0.94 2.61 0.94 0.516 2.462z" transform="rotate(23.036 -3.27 33.682)"/>
                    </g>
                    <g fill="#FF0" fill-rule="nonzero">
                        <path d="M1.316 0L2.116 2.462 0.021 0.94 2.61 0.94 0.516 2.462z" transform="rotate(45.87 .501 22.782)"/>
                    </g>
                    <g fill="#FF0" fill-rule="nonzero">
                        <path d="M1.316 0L2.116 2.462 0.021 0.94 2.61 0.94 0.516 2.462z" transform="rotate(69.945 .919 17.872)"/>
                    </g>
                    <g fill="#FF0" fill-rule="nonzero">
                        <path d="M1.316 0L2.116 2.462 0.021 0.94 2.61 0.94 0.516 2.462z" transform="rotate(20.66 -30.687 41.97)"/>
                    </g>
                </g>
            </g>
        </g>
    </g>
</svg>
