<svg width="16" height="16" viewBox="0 0 16 16" fill="none" xmlns="http://www.w3.org/2000/svg">
<path d="M15.3333 0.666992H0.666626V15.3337H15.3333V0.666992Z" fill="white" fill-opacity="0.01"/>
<path d="M7.99993 14.1109C9.68745 14.1109 11.2152 13.4269 12.3211 12.321C13.427 11.2151 14.111 9.68731 14.111 7.99978C14.111 6.31226 13.427 4.78448 12.3211 3.67857C11.2152 2.57268 9.68745 1.88867 7.99993 1.88867C6.31241 1.88867 4.78463 2.57268 3.67872 3.67857C2.57283 4.78448 1.88882 6.31226 1.88882 7.99978C1.88882 9.68731 2.57283 11.2151 3.67872 12.321C4.78463 13.4269 6.31241 14.1109 7.99993 14.1109Z" stroke="#EFEFF2" stroke-width="1.2" stroke-linejoin="round"/>
<path fill-rule="evenodd" clip-rule="evenodd" d="M8.00009 4.02832C8.42198 4.02832 8.76398 4.37033 8.76398 4.79221C8.76398 5.21409 8.42198 5.5561 8.00009 5.5561C7.57821 5.5561 7.23621 5.21409 7.23621 4.79221C7.23621 4.37033 7.57821 4.02832 8.00009 4.02832Z" fill="#EFEFF2"/>
<path d="M8.15274 11.0561V6.77832H7.84718H7.54163" stroke="#EFEFF2" stroke-width="1.2" stroke-linecap="round" stroke-linejoin="round"/>
<path d="M7.08337 11.0557H9.22226" stroke="#EFEFF2" stroke-width="1.2" stroke-linecap="round" stroke-linejoin="round"/>
</svg>
