<svg width="123" height="42" viewBox="0 0 123 42" fill="none" xmlns="http://www.w3.org/2000/svg">
<path d="M43.3499 18.1737L42.1314 16.1255L35.4606 4.87568H35.4301L35.2169 4.47827H32.78L23.3068 21.2002L32.9323 37.8303H35.3692L35.4301 37.7386L43.3803 24.0737H38.4762L34.2421 31.6246L28.2109 21.1696L34.1203 10.7146L38.4152 18.1431L43.3499 18.1737Z" fill="#41E6AF"/>
<path d="M6.27924 15.453L10.7265 7.841L9.23392 5.42596L8.19826 3.71403L0.583098 17.1955L0.369873 17.5623L1.5883 19.7022H20.7481L30.4041 3.10263L29.0638 0.779297L15.6611 0.809867H15.4479L13.3156 0.779297L14.4427 2.91921L15.5697 5.05912L24.3424 5.02855L18.3112 15.453H6.27924Z" fill="#41E6AF"/>
<path d="M15.7525 6.64893C15.4175 6.64893 15.0519 6.71007 14.6864 6.83235C14.2904 6.95463 13.8944 7.13805 13.5289 7.35204C12.4933 7.99401 11.7622 8.91112 11.6404 9.76708C11.5794 10.1645 11.6708 10.5008 11.884 10.7453C11.9145 10.8065 11.9754 10.837 12.0059 10.8982C12.0363 10.9288 12.0668 10.9288 12.0973 10.9593C12.1277 10.9899 12.1277 10.9899 12.1582 11.0205C12.2191 11.051 12.2496 11.0816 12.3105 11.1122C12.9502 11.4179 13.9554 11.3567 14.9301 10.8982L14.9606 10.8676C15.0519 10.837 15.1433 10.7759 15.2347 10.7453C15.3261 10.7148 15.387 10.6536 15.4784 10.5925C15.5698 10.5313 15.6612 10.4702 15.7525 10.4091C15.8439 10.3479 15.9048 10.2868 15.9962 10.2256L16.0571 10.1951C16.1181 10.1339 16.179 10.1034 16.2399 10.0422C16.2704 10.0116 16.2704 10.0116 16.3008 9.98108C16.3618 9.95051 16.3922 9.88936 16.4227 9.85879C16.4531 9.82822 16.4836 9.79765 16.5141 9.73651C16.5445 9.67537 16.6054 9.6448 16.6359 9.58366C16.6664 9.55309 16.6664 9.55309 16.6968 9.52252C16.7273 9.46138 16.7882 9.43081 16.8187 9.36967L16.8796 9.30853C16.91 9.24739 16.9405 9.21682 16.971 9.15568C16.971 9.15568 16.971 9.15568 16.971 9.12511L17.0014 9.06397C17.0623 9.00283 17.0928 8.91112 17.1233 8.84998C17.1537 8.78884 17.1842 8.69713 17.2147 8.63599L17.2451 8.60542C17.2451 8.57485 17.2756 8.54428 17.2756 8.54428C17.2756 8.51371 17.2756 8.51371 17.306 8.48314C17.306 8.422 17.3365 8.39143 17.3365 8.33029C17.3365 8.26915 17.367 8.26915 17.367 8.23858C17.367 8.20801 17.367 8.17743 17.367 8.17743C17.367 8.11629 17.367 8.08572 17.367 8.05515V7.99401C17.367 7.93287 17.367 7.9023 17.367 7.84116C17.367 7.81059 17.367 7.81059 17.367 7.78002C17.367 7.74945 17.367 7.71888 17.367 7.71888C17.367 7.68831 17.367 7.68831 17.367 7.65774V7.62717C17.367 7.56603 17.3365 7.53546 17.306 7.47432C17.2756 7.41318 17.2451 7.38261 17.2147 7.32147C17.0014 6.86292 16.4227 6.64893 15.7525 6.64893Z" fill="#41E6AF"/>
<path d="M17.9762 8.88046C17.9762 8.9416 17.9457 8.97217 17.9152 9.03331C17.9152 9.06388 17.9152 9.06388 17.8848 9.09445C17.8543 9.18616 17.8239 9.2473 17.7629 9.33901C17.4279 9.98099 16.8796 10.5924 16.2094 11.0815C16.1181 11.1427 16.0267 11.2038 15.9353 11.2649C15.8439 11.3261 15.7525 11.3872 15.6612 11.4178H15.6307C15.6002 11.4484 15.5698 11.4484 15.5393 11.4789C15.4784 11.5095 15.4479 11.5401 15.387 11.5706H15.3565C15.3261 11.5706 15.2956 11.6012 15.2652 11.6012C15.2042 11.6318 15.1433 11.6623 15.0824 11.6623L15.0215 11.6929C15.0215 11.6929 15.0215 11.6929 14.991 11.6929C14.9606 11.6929 14.9301 11.7235 14.8996 11.7235C14.8387 11.7541 14.7778 11.7541 14.7169 11.7846L14.656 11.8152H14.6255C14.5646 11.8458 14.5037 11.8458 14.4427 11.8763C14.4123 11.8763 14.3818 11.9069 14.3209 11.9069H14.2904C14.2295 11.9069 14.1686 11.9375 14.1381 11.9375C14.1077 11.9375 14.0467 11.9375 14.0163 11.968H13.9858C13.9554 11.968 13.9249 11.968 13.8944 11.9986C13.864 11.9986 13.8335 11.9986 13.8031 11.9986C13.7117 11.9986 13.5898 12.0292 13.4984 12.0292H13.468C13.3766 12.0292 13.2852 12.0292 13.1938 12.0292C13.1634 12.0292 13.1329 12.0292 13.1329 12.0292H13.1025C13.0415 12.0292 12.9806 12.0292 12.9197 11.9986C12.8892 11.9986 12.8588 11.9986 12.8283 11.968C12.7674 11.968 12.7065 11.9375 12.6456 11.9375C12.6151 11.9375 12.5846 11.9069 12.5542 11.9069L14.2295 14.6277L17.8239 14.5971L19.682 11.2955L18.0066 8.54419C18.0066 8.57476 18.0066 8.60533 17.9762 8.6359C17.9762 8.66647 17.9762 8.66647 17.9762 8.69704C17.9762 8.72761 17.9457 8.75818 17.9457 8.81932C17.9762 8.84989 17.9762 8.88046 17.9762 8.88046Z" fill="#41E6AF"/>
<path d="M37.075 18.8157C37.2577 19.0909 37.3796 19.4271 37.471 19.8245C37.5623 20.222 37.6233 20.6499 37.6233 21.0779C37.6233 22.3007 37.2273 23.4013 36.5571 23.9515C36.2525 24.1961 35.9175 24.3184 35.5824 24.2572C35.5215 24.2572 35.4606 24.2266 35.3996 24.2266C35.3692 24.2266 35.3387 24.1961 35.3083 24.1961C35.2778 24.1961 35.2473 24.1655 35.2169 24.1655C35.156 24.1349 35.095 24.1044 35.0646 24.0738C34.4554 23.6764 33.9984 22.7899 33.8766 21.7199V21.6893C33.8766 21.5976 33.8461 21.5059 33.8461 21.3836C33.8461 21.2919 33.8461 21.2002 33.8461 21.1085C33.8461 20.9862 33.8461 20.8945 33.8461 20.7722C33.8461 20.6805 33.8461 20.5888 33.8766 20.4971V20.4359C33.8766 20.3748 33.9071 20.2831 33.9071 20.222C33.9071 20.1914 33.9071 20.1608 33.9071 20.1302C33.9071 20.0691 33.9375 20.008 33.9375 19.9468C33.9375 19.8857 33.968 19.8551 33.968 19.794C33.9984 19.7328 33.9984 19.6717 34.0289 19.6106C34.0289 19.58 34.0594 19.5494 34.0594 19.5188C34.0898 19.4577 34.0898 19.3966 34.1203 19.3354L34.1508 19.2437C34.1812 19.1826 34.2117 19.152 34.2117 19.0909C34.2117 19.0909 34.2117 19.0909 34.2117 19.0603L34.2421 18.9992C34.2726 18.9074 34.3335 18.8463 34.364 18.7852C34.3944 18.724 34.4554 18.6629 34.4858 18.6017L34.5163 18.5712C34.5467 18.5406 34.5467 18.5406 34.5772 18.51C34.6077 18.4795 34.6077 18.4795 34.6077 18.4489C34.6381 18.4183 34.6686 18.3877 34.699 18.3572C34.7295 18.3266 34.76 18.296 34.76 18.296C34.7904 18.2655 34.7904 18.2655 34.8209 18.2349C34.8513 18.2043 34.8818 18.1738 34.9123 18.1432L34.9732 18.1126C35.0036 18.082 35.0646 18.0515 35.095 18.0209C35.1255 18.0209 35.1255 18.0209 35.156 17.9903C35.1864 17.9903 35.2169 17.9598 35.2169 17.9598C35.2169 17.9598 35.2473 17.9598 35.2473 17.9292H35.2778C35.3387 17.9292 35.3692 17.8986 35.4301 17.8986C35.491 17.8986 35.5519 17.8986 35.6129 17.8986C36.2525 17.8681 36.7094 18.2349 37.075 18.8157Z" fill="#41E6AF"/>
<path d="M33.9985 18.082C33.968 18.1126 33.9375 18.1737 33.9071 18.2043C33.9071 18.2349 33.8766 18.2349 33.8766 18.2655C33.8157 18.3266 33.7852 18.4183 33.7243 18.4794C33.3283 19.0908 33.1151 19.8857 33.0542 20.7111C33.0542 20.8333 33.0542 20.9251 33.0542 21.0473C33.0542 21.1391 33.0542 21.2613 33.0542 21.353V21.3836C33.0542 21.4142 33.0542 21.4753 33.0542 21.5059C33.0542 21.567 33.0542 21.6282 33.0846 21.6893V21.7199C33.0846 21.7505 33.0846 21.781 33.0846 21.8116C33.0846 21.8727 33.1151 21.9339 33.1151 21.995V22.0562C33.1151 22.0562 33.1151 22.0562 33.1151 22.0867C33.1151 22.1173 33.1151 22.1479 33.1456 22.1784C33.1456 22.2396 33.176 22.3007 33.176 22.3619L33.2065 22.423V22.4536C33.2065 22.5147 33.2369 22.5759 33.2674 22.637C33.2674 22.6676 33.2979 22.6981 33.2979 22.7287V22.7593C33.3283 22.8204 33.3283 22.851 33.3588 22.9121C33.3588 22.9427 33.3892 22.9733 33.4197 23.0344V23.065C33.4197 23.0955 33.4502 23.1261 33.4502 23.1567C33.4806 23.1873 33.4806 23.2178 33.4806 23.2178C33.5111 23.3095 33.572 23.4012 33.6329 23.493L33.6634 23.5235C33.7243 23.6152 33.7548 23.6764 33.8157 23.7375C33.8157 23.7681 33.8461 23.7681 33.8461 23.7987L33.8766 23.8292C33.9071 23.8904 33.968 23.9209 33.9985 23.9821C34.0289 24.0126 34.0289 24.0432 34.0594 24.0432C34.1203 24.1044 34.1508 24.1349 34.1812 24.1961C34.2117 24.2266 34.2421 24.2266 34.2421 24.2572H31.0438L29.1857 21.1696L31.0133 17.868H34.2117C34.1812 17.8986 34.1812 17.8986 34.1508 17.9292L34.1203 17.9598C34.0898 17.9903 34.0594 18.0209 33.9985 18.082C34.0289 18.082 33.9985 18.082 33.9985 18.082Z" fill="#41E6AF"/>
<path d="M15.7525 35.66C15.4175 35.66 15.0519 35.5988 14.6864 35.4765C14.2904 35.3543 13.8944 35.1708 13.5289 34.9568C12.4933 34.3149 11.7622 33.3978 11.6404 32.5418C11.5794 32.1444 11.6708 31.8081 11.884 31.5636C11.9145 31.5024 11.9754 31.4719 12.0059 31.4107C12.0363 31.3801 12.0668 31.3801 12.0973 31.3496C12.1277 31.319 12.1277 31.319 12.1582 31.2884C12.2191 31.2579 12.2496 31.2273 12.3105 31.1967C12.9502 30.891 13.9554 30.9522 14.9301 31.4107L14.9606 31.4413C15.0519 31.4719 15.1433 31.533 15.2347 31.5636C15.3261 31.5941 15.387 31.6553 15.4784 31.7164C15.5698 31.7776 15.6612 31.8387 15.7525 31.8998C15.8439 31.961 15.9048 32.0221 15.9962 32.0833L16.0571 32.1138C16.1181 32.175 16.179 32.2055 16.2399 32.2667C16.2704 32.2972 16.2704 32.2972 16.3008 32.3278C16.3618 32.3584 16.3922 32.4195 16.4227 32.4501C16.4531 32.4807 16.4836 32.5112 16.5141 32.5724C16.5445 32.6335 16.6054 32.6641 16.6359 32.7252C16.6664 32.7558 16.6664 32.7558 16.6968 32.7864C16.7273 32.8475 16.7882 32.8781 16.8187 32.9392L16.8796 33.0004C16.91 33.0615 16.9405 33.0921 16.971 33.1532V33.1838L17.0014 33.2449C17.0623 33.3061 17.0928 33.3978 17.1233 33.4589C17.1537 33.5201 17.1842 33.6118 17.2147 33.6729L17.2451 33.7035C17.2451 33.734 17.2756 33.7646 17.2756 33.7646C17.2756 33.7952 17.2756 33.7952 17.306 33.8258C17.306 33.8869 17.3365 33.9175 17.3365 33.9786C17.3365 34.0397 17.367 34.0397 17.367 34.0703C17.367 34.1009 17.367 34.1315 17.367 34.1315C17.367 34.1926 17.367 34.2232 17.367 34.2537V34.3149C17.367 34.376 17.367 34.4066 17.367 34.4677C17.367 34.4983 17.367 34.4983 17.367 34.5289C17.367 34.5594 17.367 34.59 17.367 34.59C17.367 34.6206 17.367 34.6206 17.367 34.6511V34.6817C17.367 34.7429 17.3365 34.7734 17.306 34.8346C17.2756 34.8957 17.2451 34.9263 17.2147 34.9874C17.0014 35.446 16.4227 35.6905 15.7525 35.66Z" fill="#41E6AF"/>
<path d="M17.9762 33.4283C17.9762 33.3672 17.9457 33.3366 17.9152 33.2755C17.9152 33.2449 17.9152 33.2449 17.8848 33.2144C17.8543 33.1226 17.8239 33.0615 17.7629 32.9698C17.4279 32.3278 16.8796 31.7164 16.2094 31.2273C16.1181 31.1661 16.0267 31.105 15.9353 31.0439C15.8439 30.9827 15.7525 30.9216 15.6612 30.891H15.6307C15.6002 30.8604 15.5698 30.8604 15.5393 30.8299C15.4784 30.7993 15.4479 30.7687 15.387 30.7382H15.3565C15.3261 30.7382 15.2956 30.7076 15.2652 30.7076C15.2042 30.677 15.1433 30.6465 15.0824 30.6465L15.0215 30.6159C15.0215 30.6159 15.0215 30.6159 14.991 30.6159C14.9606 30.6159 14.9301 30.5853 14.8996 30.5853C14.8387 30.5547 14.7778 30.5547 14.7169 30.5242L14.656 30.4936H14.6255C14.5646 30.463 14.5037 30.463 14.4427 30.4325C14.4123 30.4325 14.3818 30.4019 14.3209 30.4019H14.2904C14.2295 30.4019 14.1686 30.3713 14.1381 30.3713C14.1077 30.3713 14.0467 30.3713 14.0163 30.3408H13.9858C13.9554 30.3408 13.9249 30.3408 13.8944 30.3102C13.864 30.3102 13.8335 30.3102 13.8031 30.3102C13.7117 30.3102 13.5898 30.2796 13.4984 30.2796H13.468C13.3766 30.2796 13.2852 30.2796 13.1938 30.2796C13.1634 30.2796 13.1329 30.2796 13.1329 30.2796H13.1025C13.0415 30.2796 12.9806 30.2796 12.9197 30.3102C12.8892 30.3102 12.8588 30.3102 12.8283 30.3408C12.7674 30.3408 12.7065 30.3713 12.6456 30.3713C12.6151 30.3713 12.5846 30.4019 12.5542 30.4019L14.2295 27.6812L17.8239 27.7117L19.682 31.0133L18.0066 33.7646C18.0066 33.734 18.0066 33.7035 17.9762 33.6729C17.9762 33.6423 17.9762 33.6423 17.9762 33.6118C17.9762 33.5812 17.9457 33.5506 17.9457 33.4895C17.9762 33.4589 17.9762 33.4283 17.9762 33.4283Z" fill="#41E6AF"/>
<path d="M24.3424 37.2803L15.5698 37.2497L14.2295 39.787L13.3157 41.5295L15.6611 41.4989V41.5295L29.0638 41.5601L30.4041 39.2367L20.7481 22.6371L1.58831 22.6066L0.369888 24.7465L0.613574 25.1439H0.583113L8.19828 38.5948L10.7265 34.4678L6.27925 26.8864H18.3112L24.3424 37.2803Z" fill="#41E6AF"/>
<path d="M83.9844 21.1698C83.9844 19.9775 83.9844 18.9687 84.0453 18.1739C84.0758 17.3791 84.1367 16.7371 84.2281 16.2174C84.5936 14.0469 86.2385 12.7935 88.3403 12.7935C89.711 12.7935 90.9599 13.3132 91.7519 14.4749C92.0869 14.9946 92.3611 15.5754 92.5134 16.248C92.5438 16.3091 92.5743 16.3397 92.6657 16.3397H97.3871C97.448 16.3397 97.4785 16.2785 97.4785 16.2174C96.9606 13.2827 95.4071 10.623 92.6352 9.3391C91.3559 8.7277 89.9242 8.422 88.3098 8.422C85.6293 8.422 83.4056 9.3391 81.578 11.1733C80.5423 12.2127 79.8417 13.4966 79.5371 14.9334C79.263 16.3397 79.1107 18.4184 79.1107 21.1698C79.1107 23.9211 79.263 25.9998 79.5371 27.4061C79.8113 28.8734 80.5423 30.1268 81.578 31.1662C83.4056 33.0004 85.6597 33.9175 88.3098 33.9175C89.9242 33.9175 91.3559 33.6118 92.6352 33.0004C95.4071 31.6859 96.9606 29.0569 97.4785 26.1221C97.4785 26.061 97.4785 25.9998 97.3871 25.9998H92.6657C92.5743 25.9998 92.5438 26.0304 92.5134 26.0916C92.3306 26.7641 92.0869 27.3449 91.7519 27.8646C90.9599 29.0263 89.711 29.546 88.3403 29.546C86.2385 29.546 84.5936 28.262 84.2281 26.1221C84.1367 25.633 84.0758 24.9605 84.0453 24.1656C83.9844 23.3708 83.9844 22.362 83.9844 21.1698Z" fill="#41E6AF"/>
<path d="M108.718 21.1698C108.718 19.9775 108.718 18.9687 108.779 18.1739C108.81 17.3791 108.871 16.7371 108.962 16.2174C109.328 14.0469 110.973 12.7935 113.074 12.7935C114.445 12.7935 115.694 13.3132 116.486 14.4749C116.821 14.9946 117.095 15.5754 117.247 16.248C117.278 16.3091 117.308 16.3397 117.4 16.3397H122.121C122.182 16.3397 122.213 16.2785 122.213 16.2174C121.695 13.2827 120.141 10.623 117.369 9.3391C116.09 8.7277 114.658 8.422 113.044 8.422C110.363 8.422 108.14 9.3391 106.312 11.1733C105.276 12.2127 104.576 13.4966 104.271 14.9334C103.997 16.3397 103.845 18.4184 103.845 21.1698C103.845 23.9211 103.997 25.9998 104.271 27.4061C104.545 28.8734 105.276 30.1268 106.312 31.1662C108.14 33.0004 110.394 33.9175 113.044 33.9175C114.658 33.9175 116.09 33.6118 117.369 33.0004C120.141 31.6859 121.695 29.0569 122.213 26.1221C122.213 26.061 122.213 25.9998 122.121 25.9998H117.4C117.308 25.9998 117.278 26.0304 117.247 26.0916C117.065 26.7641 116.821 27.3449 116.486 27.8646C115.694 29.0263 114.445 29.546 113.074 29.546C110.973 29.546 109.328 28.262 108.962 26.1221C108.871 25.633 108.81 24.9605 108.779 24.1656C108.749 23.3708 108.718 22.362 108.718 21.1698Z" fill="#41E6AF"/>
<path d="M58.3974 9.06385C58.3974 8.81929 58.2147 8.63586 57.971 8.63586H53.9502C53.7065 8.63586 53.5237 8.81929 53.5237 9.06385V33.2754C53.5237 33.52 53.7065 33.7034 53.9502 33.7034H57.971C58.2147 33.7034 58.3974 33.52 58.3974 33.2754V26.1831L61.6263 22.3007L68.2667 33.5811C68.3276 33.6728 68.3885 33.7034 68.5104 33.7034H73.3841C73.5973 33.7034 73.6582 33.5505 73.5364 33.3671L64.8551 18.6017L72.8053 9.03328C72.9576 8.84986 72.8967 8.66643 72.653 8.66643H67.3224C67.231 8.66643 67.2006 8.69701 67.1701 8.75815L58.4279 19.3049V9.06385H58.3974Z" fill="#41E6AF"/>
</svg>
