<svg width="150" height="45" viewBox="0 0 150 45" fill="none" xmlns="http://www.w3.org/2000/svg">
<path d="M59.9576 40.3318H58.6808L55.1297 29.5986H56.8055L59.2793 37.4191L61.7531 29.5986H63.4688L59.9576 40.3318Z" fill="#28CD96"/>
<path d="M67.8179 40.3318V29.5986H74.6808V31.0749H69.4539V34.2271H73.9227V35.6635H69.4539V38.8954H74.6808V40.3717H67.8179V40.3318Z" fill="#28CD96"/>
<path d="M86.3317 40.3318L81.3441 32.7907V40.3318H79.7082V29.5986H81.1845L86.1721 37.1398V29.5986H87.808V40.3318H86.3317Z" fill="#28CD96"/>
<path d="M97.1047 31.0749V40.3318H95.4688V31.0749H92.5162V29.5986H100.057V31.0749H97.1047Z" fill="#28CD96"/>
<path d="M108.436 40.4514C106.242 40.4514 104.566 38.9751 104.566 36.7407V29.6384H106.202V36.7008C106.202 38.1372 107.08 39.015 108.436 39.015C109.793 39.015 110.671 38.1372 110.671 36.7008V29.6384H112.307V36.7407C112.307 38.9352 110.631 40.4514 108.436 40.4514Z" fill="#28CD96"/>
<path d="M123.718 40.3318L121.444 35.8231H119.409V40.3318H117.773V29.5986H121.923C123.958 29.5986 125.274 30.9153 125.274 32.7508C125.274 34.3069 124.357 35.2645 123.12 35.5837L125.594 40.3318H123.718ZM121.843 31.0749H119.409V34.4266H121.843C122.92 34.4266 123.678 33.7882 123.678 32.7508C123.678 31.7133 122.92 31.0749 121.843 31.0749Z" fill="#28CD96"/>
<path d="M130.501 40.3318V29.5986H137.364V31.0749H132.137V34.2271H136.606V35.6635H132.137V38.8954H137.364V40.3717H130.501V40.3318Z" fill="#28CD96"/>
<path d="M145.304 40.4512C143.708 40.4512 142.511 40.0921 141.514 39.0148L142.591 37.9375C143.389 38.7355 144.227 38.9749 145.344 38.9749C146.741 38.9749 147.579 38.3764 147.579 37.339C147.579 36.8602 147.459 36.4612 147.14 36.2218C146.86 35.9824 146.581 35.8627 145.943 35.7829L144.666 35.5834C143.788 35.4637 143.11 35.1445 142.631 34.7056C142.112 34.2268 141.833 33.5485 141.833 32.6707C141.833 30.7954 143.19 29.5186 145.424 29.5186C146.86 29.5186 147.858 29.8777 148.776 30.7555L147.738 31.7929C147.06 31.1545 146.302 30.955 145.384 30.955C144.107 30.955 143.429 31.6732 143.429 32.6308C143.429 33.0298 143.549 33.3889 143.828 33.6283C144.107 33.8677 144.546 34.0672 145.025 34.1071L146.262 34.3066C147.259 34.4662 147.818 34.7056 148.257 35.1046C148.855 35.6233 149.135 36.3814 149.135 37.2991C149.135 39.2542 147.539 40.4512 145.304 40.4512Z" fill="#28CD96"/>
<path d="M13.0748 22.1771L26.0823 35.1447L34.3018 26.9252C35.7382 25.4888 38.0923 25.4888 39.5287 26.9252C40.9651 28.3616 40.9651 30.7157 39.5287 32.1521L28.7157 42.9651C27.2793 44.4015 24.8853 44.4015 23.4888 42.9651L7.88779 27.3641V36.6609C7.88779 38.6958 6.21198 40.3716 4.17706 40.3716C2.14215 40.3716 0.466339 38.6958 0.466339 36.6609V7.61348C0.466339 5.57857 2.14215 3.90276 4.17706 3.90276C6.21198 3.90276 7.88779 5.57857 7.88779 7.61348V16.9102L23.4888 1.30924C24.9252 -0.127169 27.2793 -0.127169 28.7157 1.30924L39.5287 12.1222C40.9651 13.5586 40.9651 15.9127 39.5287 17.3491C38.0923 18.7855 35.7382 18.7855 34.3018 17.3491L26.0424 9.16959L13.0748 22.1771ZM26.0823 18.4663C24.0474 18.4663 22.3716 20.1422 22.3716 22.1771C22.3716 24.212 24.0474 25.8878 26.0823 25.8878C28.1172 25.8878 29.793 24.212 29.793 22.1771C29.8329 20.1422 28.1571 18.4663 26.0823 18.4663Z" fill="#28CD96"/>
<path d="M121.045 12.96C121.045 12.2019 121.045 11.4438 121.005 10.7655C120.965 10.0872 120.925 9.44879 120.805 8.85029C120.686 8.25179 120.526 7.69318 120.287 7.17448C120.047 6.65578 119.688 6.17697 119.249 5.73807C118.611 5.09966 117.933 4.62087 117.095 4.30166C116.297 3.98246 115.379 3.78296 114.342 3.78296C113.304 3.78296 112.387 3.98246 111.589 4.30166C110.791 4.62087 110.072 5.09966 109.434 5.73807C108.995 6.17697 108.636 6.65578 108.397 7.17448C108.157 7.69318 107.998 8.25179 107.878 8.85029C107.758 9.44879 107.718 10.0872 107.678 10.7655C107.638 11.4438 107.638 12.162 107.638 12.96C107.638 13.758 107.638 14.4363 107.678 15.1545C107.718 15.8328 107.758 16.4712 107.878 17.0697C107.998 17.6682 108.117 18.2268 108.397 18.7456C108.676 19.2643 108.995 19.7431 109.434 20.182C110.072 20.8204 110.751 21.2992 111.589 21.6184C112.387 21.9376 113.304 22.1371 114.342 22.1371C115.379 22.1371 116.297 21.9376 117.095 21.6184C117.853 21.2992 118.611 20.8204 119.249 20.182C119.688 19.7431 120.047 19.2643 120.287 18.7456C120.526 18.2268 120.686 17.6682 120.805 17.0697C120.925 16.4712 121.005 15.8328 121.005 15.1545C121.045 14.4363 121.045 13.758 121.045 12.96ZM117.494 12.96C117.494 13.7979 117.494 14.556 117.454 15.1146C117.414 15.6732 117.374 16.152 117.294 16.5111C117.214 16.8702 117.135 17.1894 117.055 17.3889C116.975 17.5884 116.815 17.8278 116.656 18.0273C116.416 18.3066 116.057 18.546 115.698 18.7056C115.339 18.9052 114.9 18.9451 114.382 18.9451C113.863 18.9451 113.464 18.8653 113.065 18.7056C112.666 18.5061 112.387 18.3066 112.107 18.0273C111.908 17.8278 111.828 17.6283 111.708 17.3889C111.589 17.1495 111.509 16.8702 111.469 16.5111C111.389 16.152 111.349 15.7131 111.309 15.1146C111.269 14.556 111.269 13.7979 111.269 12.96C111.269 12.1221 111.269 11.364 111.309 10.8054C111.349 10.2468 111.389 9.768 111.469 9.4089C111.549 9.04979 111.628 8.73059 111.708 8.53109C111.828 8.29168 111.948 8.09219 112.107 7.89269C112.347 7.61338 112.706 7.37398 113.065 7.21438C113.424 7.05478 113.863 6.97498 114.382 6.97498C114.9 6.97498 115.299 7.05478 115.698 7.21438C116.057 7.41388 116.377 7.61338 116.656 7.89269C116.855 8.09219 116.935 8.29168 117.055 8.53109C117.175 8.77049 117.254 9.04979 117.294 9.4089C117.334 9.768 117.414 10.2069 117.454 10.8054C117.454 11.364 117.494 12.0822 117.494 12.96Z" fill="#28CD96"/>
<path d="M149.135 4.22204C149.135 4.02253 148.975 3.94273 148.855 3.94273H145.943C145.743 3.94273 145.663 4.10233 145.663 4.22204V14.9552L138.561 3.98263C138.521 3.90283 138.481 3.90283 138.362 3.90283H135.648C135.489 3.90283 135.369 4.06243 135.369 4.18213C135.369 10.0076 135.369 15.833 135.369 21.6185C135.369 21.818 135.529 21.8978 135.648 21.8978H138.561C138.761 21.8978 138.84 21.7382 138.84 21.6185V10.8455L145.943 21.8579C145.983 21.9377 146.022 21.9377 146.142 21.9377H148.855C149.055 21.9377 149.135 21.7781 149.135 21.6584V4.22204Z" fill="#28CD96"/>
<path d="M129.623 4.22193C129.623 4.02243 129.464 3.94263 129.344 3.94263H126.431C126.232 3.94263 126.152 4.10223 126.152 4.22193V21.6583C126.152 21.8578 126.312 21.9376 126.431 21.9376H129.344C129.544 21.9376 129.623 21.778 129.623 21.6583V4.22193Z" fill="#28CD96"/>
<path d="M94.8304 12.9602C94.8304 12.1222 94.8304 11.3641 94.8703 10.8055C94.9102 10.2469 94.9501 9.76814 95.0299 9.40903C95.2694 7.85292 96.4664 6.93521 98.0225 6.93521C99.02 6.93521 99.9377 7.29432 100.496 8.17212C100.736 8.53123 100.935 8.93023 101.055 9.44893C101.055 9.48883 101.095 9.52873 101.175 9.52873H104.606C104.646 9.52873 104.686 9.48883 104.686 9.44893C104.327 7.33422 103.209 5.45891 101.175 4.5013C100.257 4.0624 99.2195 3.823 98.0624 3.823C96.1072 3.823 94.5112 4.5013 93.1945 5.77811C92.4763 6.49631 91.9177 7.45392 91.7182 8.49133C91.5187 9.48883 91.4389 11.0449 91.4389 13.0001C91.4389 14.9552 91.5586 16.4714 91.7182 17.5088C91.9177 18.5462 92.3965 19.4639 93.1945 20.222C94.5112 21.5387 96.1471 22.1771 98.0624 22.1771C99.2195 22.1771 100.257 21.9377 101.175 21.4988C103.17 20.5811 104.287 18.626 104.686 16.5512C104.686 16.5113 104.686 16.4714 104.606 16.4714H101.135C101.055 16.4714 101.055 16.5113 101.015 16.5512C100.895 17.03 100.736 17.4689 100.456 17.828C99.8978 18.626 98.9801 19.025 97.9826 19.0649C96.4664 19.0649 95.2693 18.1472 94.99 16.5911C94.9102 16.232 94.8703 15.7931 94.8304 15.1946C94.8304 14.5562 94.8304 13.838 94.8304 12.9602Z" fill="#28CD96"/>
<path d="M58.6409 4.22193C58.6409 4.02243 58.4813 3.94263 58.3616 3.94263H55.4489C55.2494 3.94263 55.1696 4.10223 55.1696 4.22193V21.6583C55.1696 21.8578 55.3292 21.9376 55.4489 21.9376H58.3616C58.5611 21.9376 58.6409 21.778 58.6409 21.6583V16.5511L60.995 13.7581L65.7831 21.8977C65.823 21.9775 65.9028 21.9775 65.9826 21.9775H69.4938C69.6534 21.9775 69.6933 21.8578 69.6135 21.7381L63.3092 11.1247L69.0948 4.22193C69.2145 4.06233 69.1746 3.98253 68.9751 3.98253H65.1048C65.025 3.98253 65.025 3.98253 64.9851 4.02243L58.6409 11.6035V4.22193Z" fill="#28CD96"/>
<path d="M79.8279 18.985C78.192 18.985 76.7157 17.4688 76.7157 15.6733V4.22193C76.7157 4.02243 76.5561 3.94263 76.4364 3.94263H73.5237C73.3242 3.94263 73.2444 4.10223 73.2444 4.22193V15.5935C73.2444 19.5835 76.2369 22.0972 79.9077 22.0972C83.5786 22.0972 86.5711 19.5436 86.5711 15.5935V4.22193C86.5711 4.02243 86.4115 3.94263 86.2918 3.94263H83.3791C83.1796 3.94263 83.0998 4.10223 83.0998 4.22193V15.6733C82.9801 17.5087 81.4639 18.985 79.8279 18.985Z" fill="#28CD96"/>
</svg>
