<svg width="138" height="49" viewBox="0 0 138 49" fill="none" xmlns="http://www.w3.org/2000/svg">
<path fill-rule="evenodd" clip-rule="evenodd" d="M23.8989 40.6315L7.82277 24.2914L23.8989 7.95122L39.9751 24.2914L23.8989 40.6315ZM23.8989 19.72C21.411 19.72 19.4014 21.7625 19.4014 24.2914C19.4014 26.8202 21.411 28.8627 23.8989 28.8627C26.3869 28.8627 28.3964 26.8202 28.3964 24.2914C28.3007 21.7625 26.3869 19.72 23.8989 19.72ZM0.932991 21.9571C-0.310997 23.2215 -0.310997 25.3612 0.932991 26.6257L21.6023 47.6344C22.8463 48.8988 24.9515 48.8988 26.1955 47.6344L46.8649 26.6257C48.1089 25.3612 48.1089 23.2215 46.8649 21.9571L26.1955 0.948311C24.9515 -0.316104 22.8463 -0.316104 21.6023 0.948311L0.932991 21.9571ZM87.6364 42.8744L82.6817 29.3436H81.4576L76.5028 42.8744H78.0184L79.1259 39.7833H85.0133L86.1209 42.8744H87.6364ZM84.6053 38.5586H79.534L82.0988 31.3849L84.6053 38.5586ZM138 29.3436V30.6267H134.095V42.8744H132.637V30.6267H128.732V29.3436H138ZM124.768 42.8744V41.5913H117.773V36.6922H123.719V35.4091H117.773V30.6267H124.768V29.3436H116.316V42.8744H124.768ZM112.352 41.5913V42.8744H104.016V29.3436H105.415V41.5913H112.352ZM99.9942 42.8744V41.5913H93.1158V29.3436H91.6585V42.8744H99.9942ZM73.6465 29.3436H75.1621L71.7229 42.8744H70.3822L67.3511 32.0264L64.3782 42.8744H62.9793L59.5401 29.3436H61.0556L63.737 40.2499L66.7099 29.3436H67.9923L70.9651 40.2499L73.6465 29.3436ZM116.141 14.4713C116.141 13.7714 116.141 13.0715 116.083 12.4883C116.064 12.2897 116.052 12.1023 116.04 11.9209V11.9208V11.9207C116.013 11.5161 115.988 11.1413 115.908 10.7386C115.791 10.2137 115.616 9.68883 115.441 9.22225C115.208 8.75567 114.917 8.28908 114.509 7.88083C113.926 7.2976 113.285 6.88934 112.585 6.53941C111.827 6.24779 111.069 6.07282 110.079 6.07282C109.146 6.07282 108.33 6.24779 107.572 6.53941C106.814 6.83102 106.173 7.2976 105.648 7.88083C105.24 8.28908 104.891 8.69734 104.716 9.22225C104.483 9.68883 104.366 10.2137 104.249 10.7386C104.169 11.0998 104.144 11.4886 104.117 11.905C104.105 12.0938 104.093 12.2882 104.075 12.4883C104.016 13.1299 104.016 13.7714 104.016 14.4713C104.016 15.1711 104.016 15.8127 104.075 16.4542C104.093 16.6528 104.105 16.8402 104.117 17.0217V17.0218L104.117 17.0221V17.0222C104.144 17.4267 104.169 17.8014 104.249 18.2039C104.366 18.7288 104.483 19.2537 104.716 19.7203C104.949 20.1869 105.24 20.6535 105.648 21.0617C106.231 21.645 106.873 22.0532 107.572 22.4031C108.33 22.6948 109.088 22.8697 110.079 22.8697C111.011 22.8697 111.827 22.6948 112.585 22.4031C113.285 22.1115 113.984 21.645 114.509 21.0617C114.917 20.6535 115.266 20.2452 115.441 19.7203C115.674 19.2537 115.791 18.7288 115.908 18.2039C116.024 17.679 116.083 17.0958 116.083 16.4542C116.141 15.8127 116.141 15.1711 116.141 14.4713ZM112.935 14.4713C112.935 15.2295 112.935 15.9293 112.877 16.3959C112.85 16.6306 112.836 16.8419 112.823 17.0351C112.807 17.2742 112.792 17.4855 112.76 17.679C112.702 18.029 112.643 18.3206 112.527 18.4955C112.468 18.583 112.41 18.6851 112.352 18.7871C112.294 18.8892 112.235 18.9913 112.177 19.0788C111.944 19.3704 111.652 19.5453 111.303 19.7203C110.953 19.8953 110.545 19.9536 110.137 19.9536C109.671 19.9536 109.321 19.8953 108.971 19.7203C108.621 19.5453 108.33 19.3704 108.097 19.0788C107.922 18.9038 107.805 18.7288 107.747 18.4955C107.63 18.2622 107.572 18.029 107.514 17.679C107.455 17.3291 107.397 16.9208 107.397 16.3959C107.339 15.871 107.339 15.2295 107.339 14.4713C107.339 13.7131 107.339 13.0132 107.397 12.5466C107.423 12.312 107.438 12.1006 107.451 11.9074C107.467 11.6684 107.482 11.457 107.514 11.2635C107.572 10.9136 107.63 10.622 107.747 10.447C107.863 10.2138 107.98 10.0389 108.097 9.864L108.097 9.86379C108.33 9.57218 108.621 9.39721 108.971 9.22225C109.321 9.04728 109.729 8.98895 110.137 8.98895C110.603 8.98895 110.953 9.04728 111.303 9.22225C111.652 9.39721 111.944 9.57218 112.177 9.86379C112.352 10.0388 112.468 10.2137 112.527 10.447C112.643 10.6803 112.702 10.9136 112.76 11.2635C112.818 11.6135 112.877 12.0217 112.877 12.5466C112.877 12.7515 112.888 13.0013 112.9 13.2812V13.2814V13.2816V13.2819V13.2821V13.2824L112.9 13.2829L112.9 13.2832C112.917 13.6405 112.935 14.0467 112.935 14.4713ZM137.709 6.24788C137.883 6.24788 138 6.36453 138 6.5395V22.2866C138 22.4616 137.883 22.5782 137.709 22.5782H135.26C135.144 22.5782 135.144 22.5782 135.085 22.5199L128.615 12.5467V22.3449C128.615 22.5199 128.499 22.6365 128.324 22.6365H125.701C125.526 22.6365 125.409 22.5199 125.409 22.3449V6.5395C125.409 6.36453 125.584 6.24788 125.701 6.24788H128.149C128.265 6.24788 128.265 6.24789 128.324 6.30621L134.794 16.2794V6.5395C134.794 6.36453 134.911 6.24788 135.085 6.24788H137.709ZM122.203 6.5395C122.203 6.36453 122.087 6.24788 121.912 6.24788H119.289C119.114 6.24788 118.997 6.36453 118.997 6.5395V22.3449C118.997 22.5199 119.114 22.6365 119.289 22.6365H121.912C122.087 22.6365 122.203 22.5199 122.203 22.3449V6.5395ZM92.4163 14.471V14.4713V14.4717C92.4163 15.288 92.4163 15.9295 92.4746 16.5126C92.4746 17.0375 92.5329 17.4458 92.5912 17.7957C92.8243 19.1955 93.8736 20.012 95.2726 20.012C96.1469 19.9537 96.963 19.662 97.4876 18.9039C97.7208 18.5539 97.8957 18.204 98.0123 17.7374C98.0414 17.7374 98.056 17.7228 98.0705 17.7082C98.0851 17.6937 98.0997 17.6791 98.1288 17.6791H101.218C101.247 17.6791 101.262 17.6791 101.269 17.6864C101.277 17.6937 101.277 17.7082 101.277 17.7374C100.869 19.6037 99.8776 21.4117 98.0705 22.2282C97.2545 22.6365 96.3218 22.8698 95.2726 22.8698C93.5238 22.8698 92.0666 22.2866 90.8424 21.0618C90.1429 20.4202 89.6766 19.5454 89.5017 18.6122C89.3269 17.6791 89.2103 16.3377 89.2103 14.5297C89.2103 12.7217 89.3269 11.3802 89.5017 10.4471C89.6766 9.51392 90.2012 8.63908 90.8424 7.99753C92.0666 6.83108 93.5238 6.18954 95.2726 6.18954C96.2635 6.18954 97.2545 6.42282 98.0705 6.83108C99.9359 7.70592 100.927 9.39727 101.277 11.3219C101.277 11.3219 101.277 11.3802 101.218 11.3802H98.1288C98.0705 11.3802 98.0123 11.3802 98.0123 11.3219C97.8957 10.8553 97.7208 10.5054 97.4876 10.1555C97.0213 9.39727 96.2052 9.04734 95.2726 9.04734C93.9319 9.04734 92.8243 9.86386 92.5912 11.2636C92.5589 11.4571 92.5445 11.6684 92.5282 11.9073V11.9075C92.5151 12.1007 92.5006 12.312 92.4746 12.5467C92.4163 13.0132 92.4163 13.713 92.4163 14.471ZM62.6878 6.5395C62.6878 6.36453 62.5712 6.24788 62.3964 6.24788H59.7733C59.5984 6.24788 59.4818 6.36453 59.4818 6.5395V22.3449C59.4818 22.5199 59.5984 22.6365 59.7733 22.6365H62.3964C62.5712 22.6365 62.6878 22.5199 62.6878 22.3449V17.6791L64.7863 15.1712L69.1581 22.5782C69.2164 22.6365 69.2747 22.6365 69.333 22.6365H72.539C72.6556 22.6365 72.7139 22.5199 72.6556 22.4032L66.9431 12.78L72.1893 6.5395C72.3058 6.42285 72.2476 6.30621 72.0727 6.30621H68.5752C68.5169 6.30621 68.5169 6.30621 68.4586 6.36453L62.7461 13.2466L62.6878 6.5395ZM77.7269 16.9793C77.7269 18.554 79.0093 19.9537 80.5249 19.9537C82.0405 19.9537 83.3812 18.6123 83.4395 16.9793V6.59786C83.4395 6.4229 83.5561 6.30625 83.7309 6.30625H86.354C86.5289 6.30625 86.6455 6.4229 86.6455 6.59786V16.921C86.6455 20.537 83.9058 22.8115 80.5832 22.8115C77.2023 22.8115 74.5209 20.537 74.5209 16.921V6.59786C74.5209 6.4229 74.6375 6.30625 74.8124 6.30625H77.4355C77.6103 6.30625 77.7269 6.4229 77.7269 6.59786V16.9793Z" fill="#28CD96"/>
</svg>
