<svg width="128" height="128" viewBox="0 0 128 128" fill="none" xmlns="http://www.w3.org/2000/svg">
<path d="M31 56H99V62L86 71H44L31 62V56Z" fill="white"/>
<path fill-rule="evenodd" clip-rule="evenodd" d="M33.3205 26.3778C33.3717 20.3401 34.9586 13.5594 39.5683 8.38843C18.5924 17.8877 4 39.0041 4 63.5288C4 96.942 31.0868 124.029 64.5 124.029C97.9132 124.029 125 96.942 125 63.5288C125 39.6162 111.127 18.9439 90.9903 9.12129C93.3241 13.5686 95.9931 19.8612 96.2963 26.9048C106.53 35.797 113 48.9073 113 63.5288C113 90.3146 91.2858 112.029 64.5 112.029C37.7142 112.029 16 90.3146 16 63.5288C16 48.6156 22.7309 35.2746 33.3205 26.3778Z" fill="white"/>
<path d="M41.1753 39.8656C39.9408 48.1212 45.553 55.4976 47.7791 56H83.5284C88.9098 51.2727 89.7328 44.1818 88.4983 40.6364C88.1054 41.6412 86.4408 44.9697 83.5284 45.7576C86.3569 36.7141 83.6594 27.3623 81.957 24.3478C82.2189 24.8502 81.8784 27.5884 78.4214 34.5217C76.4571 20.5797 69.3858 17.5652 69.3858 4C56.5004 11.5362 52.2314 27.4879 51.7076 34.5217C51.0529 34.1449 49.3505 31.8841 47.7791 25.8551C43.3792 33.9942 45.9458 42.8116 47.7791 46.2029C46.9364 46.5455 44.0559 44.9697 41.1753 39.8656Z" fill="#FF6534"/>
<path fill-rule="evenodd" clip-rule="evenodd" d="M49 67H80L74 118H55L49.7552 74.426L70 71C64.2889 71.0793 56.3128 71.0831 49.4134 71.0654L49 67ZM76 75L72.5 75.5L72 112L76 75Z" fill="white"/>
</svg>
