<svg width="140" height="33" viewBox="0 0 140 33" fill="none" xmlns="http://www.w3.org/2000/svg">
<path d="M47.2594 11.6527V7.14844H43.1646V19.0233C43.1646 23.3201 46.6479 26.8033 50.9447 26.8033V22.7085C48.9093 22.7085 47.2594 21.0586 47.2594 19.0233V14.9285H50.1257V11.6527H47.2594Z" fill="white"/>
<path d="M94.7586 7.55791V26.8033H98.8534V17.289C99.5258 16.5889 100.468 16.1569 101.511 16.1569C103.546 16.1569 105.196 17.8069 105.196 19.8422V26.8033H109.291V19.8422C109.291 15.5454 105.808 12.0622 101.511 12.0622C100.578 12.0622 99.6825 12.2268 98.8534 12.5283V7.55791H94.7586Z" fill="white"/>
<path d="M81.4088 13.9466L78.4965 16.8589C77.8233 15.9333 76.7377 15.338 75.5132 15.338C73.4779 15.338 71.828 16.9879 71.828 19.0233V26.8033H67.7332V19.0233C67.7332 14.7264 71.2164 11.2432 75.5132 11.2432C77.8717 11.2432 79.9844 12.2941 81.4088 13.9466Z" fill="white"/>
<path d="M84.5217 19.4327C84.5217 21.4681 86.1717 23.118 88.207 23.118C89.229 23.118 90.1538 22.702 90.8214 22.0301L93.7168 24.9255C92.3083 26.3384 90.3597 27.2128 88.207 27.2128C83.9102 27.2128 80.427 23.7295 80.427 19.4327C80.427 15.1359 83.9102 11.6527 88.207 11.6527C90.3511 11.6527 92.2926 12.52 93.6998 13.9229L90.8044 16.8183C90.1381 16.1564 89.2203 15.7474 88.207 15.7474C86.1717 15.7474 84.5217 17.3974 84.5217 19.4327Z" fill="white"/>
<path d="M126.497 23.3448C127.172 25.9235 129.311 27.2128 132.913 27.2128C134.917 27.2128 136.493 26.7679 137.641 25.8782C138.808 24.9696 139.392 23.8244 139.392 22.4425C139.392 21.3068 139.1 20.3981 138.516 19.7167C137.932 19.0352 137.222 18.5809 136.386 18.3537C135.569 18.1266 134.742 17.9562 133.905 17.8426C133.088 17.7101 132.388 17.5398 131.804 17.3315C131.22 17.1233 130.928 16.7921 130.928 16.3377C130.928 15.9213 131.113 15.5806 131.483 15.3155C131.853 15.0316 132.368 14.8896 133.03 14.8896C133.73 14.8896 134.275 15.06 134.664 15.4007C135.046 15.7195 135.267 16.1129 135.325 16.5808L139.092 15.3969C138.832 14.598 138.367 13.861 137.699 13.186C136.687 12.1638 135.141 11.6527 133.059 11.6527C131.23 11.6527 129.751 12.1259 128.623 13.0724C127.495 14.0189 126.93 15.183 126.93 16.5649C126.93 17.6628 127.222 18.543 127.806 19.2056C128.389 19.8681 129.1 20.313 129.936 20.5401C130.773 20.7673 131.6 20.9471 132.417 21.0796C133.253 21.2121 133.963 21.3919 134.547 21.6191C135.131 21.8273 135.423 22.1586 135.423 22.6129C135.423 23.0293 135.218 23.3606 134.81 23.6067C134.401 23.8528 133.808 23.9758 133.03 23.9758C132.212 23.9758 131.59 23.796 131.162 23.4363C130.764 23.0678 130.542 22.6186 130.494 22.0886L126.497 23.3448Z" fill="white"/>
<path fill-rule="evenodd" clip-rule="evenodd" d="M59.1342 11.2432C54.8374 11.2432 51.3541 14.7264 51.3541 19.0233C51.3541 23.3201 54.8374 26.8033 59.1342 26.8033C63.431 26.8033 66.9142 23.3201 66.9142 19.0233C66.9142 14.7264 63.431 11.2432 59.1342 11.2432ZM55.4489 19.0233C55.4489 16.9879 57.0989 15.338 59.1342 15.338C61.1695 15.338 62.8195 16.9879 62.8195 19.0233C62.8195 21.0586 61.1695 22.7085 59.1342 22.7085C57.0989 22.7085 55.4489 21.0586 55.4489 19.0233Z" fill="white"/>
<path fill-rule="evenodd" clip-rule="evenodd" d="M125.413 20.5969H114.702C114.834 21.6191 115.21 22.4047 115.83 22.9536C116.45 23.4837 117.267 23.7487 118.282 23.7487C118.921 23.7487 119.494 23.6162 120.001 23.3511C120.51 23.0767 120.878 22.6873 121.106 22.1829L123.961 24.5032C123.578 24.9911 123.122 25.4305 122.594 25.8215C121.335 26.749 119.86 27.2128 118.169 27.2128C115.99 27.2128 114.204 26.484 112.814 25.0264C111.423 23.5688 110.728 21.6948 110.728 19.4043C110.728 17.1896 111.423 15.3439 112.814 13.8674C114.204 12.3909 115.98 11.6527 118.141 11.6527C120.302 11.6527 122.059 12.3909 123.412 13.8674C124.783 15.325 125.469 17.1706 125.469 19.4043L125.413 20.5969ZM118.113 14.8896C117.211 14.8896 116.469 15.1452 115.886 15.6563C115.304 16.1484 114.928 16.8299 114.759 17.7007H121.467C121.317 16.8488 120.95 16.1674 120.368 15.6563C119.785 15.1452 119.034 14.8896 118.113 14.8896Z" fill="white"/>
<path d="M7.42322 14.2965H26.1187V15.9461L22.5446 18.4205H10.9974L7.42322 15.9461V14.2965Z" fill="white"/>
<path fill-rule="evenodd" clip-rule="evenodd" d="M8.06122 6.15232C8.07533 4.49228 8.51171 2.62795 9.77925 1.2063C4.0121 3.81789 0 9.62361 0 16.3664C0 25.5528 7.44708 32.9999 16.6335 32.9999C25.8199 32.9999 33.267 25.5528 33.267 16.3664C33.267 9.79198 29.4528 4.10842 23.9165 1.40788C24.5581 2.63059 25.292 4.36065 25.3754 6.29724C28.1889 8.74199 29.9678 12.3465 29.9678 16.3664C29.9678 23.7307 23.9978 29.7007 16.6335 29.7007C9.26918 29.7007 3.29921 23.7307 3.29921 16.3664C3.29921 12.2663 5.14977 8.59834 8.06122 6.15232Z" fill="white"/>
<path d="M10.2207 9.86068C9.88133 12.1304 11.4243 14.1584 12.0364 14.2966H21.8651C23.3446 12.9969 23.5709 11.0474 23.2314 10.0726C23.1234 10.3488 22.6658 11.264 21.8651 11.4806C22.6427 8.99422 21.9011 6.4231 21.433 5.59431C21.505 5.73244 21.4114 6.48526 20.461 8.39147C19.9209 4.55833 17.9768 3.72954 17.9768 0C14.4341 2.07197 13.2604 6.45763 13.1164 8.39147C12.9364 8.28787 12.4684 7.66628 12.0364 6.0087C10.8267 8.24643 11.5323 10.6706 12.0364 11.603C11.8047 11.6972 11.0127 11.264 10.2207 9.86068Z" fill="#FF7347"/>
<path fill-rule="evenodd" clip-rule="evenodd" d="M12.372 17.3208H20.895L19.2454 31.3424H14.0216L12.5 20L18.1456 18.4205C16.5755 18.4423 14.3826 18.4434 12.4857 18.4385L12.372 17.3208ZM19.7952 19.5203L18.5 19.5L18.6955 29.6928L19.7952 19.5203Z" fill="white"/>
</svg>
