<svg width="283" height="282" viewBox="0 0 283 282" fill="none" xmlns="http://www.w3.org/2000/svg">
<path d="M69.0015 123.391H218.681V136.598L190.066 156.408H97.6167L69.0015 136.598V123.391Z" fill="#858793"/>
<path fill-rule="evenodd" clip-rule="evenodd" d="M74.1093 58.1876C74.222 44.8976 77.7151 29.972 87.8619 18.5898C41.6903 39.4992 9.56985 85.9802 9.56985 139.963C9.56985 213.512 69.1925 273.134 142.741 273.134C216.289 273.134 275.912 213.512 275.912 139.963C275.912 87.3276 245.375 41.8242 201.05 20.203C206.188 29.9924 212.062 43.8434 212.73 59.3477C235.256 78.9208 249.498 107.779 249.498 139.963C249.498 198.923 201.701 246.72 142.741 246.72C83.7806 246.72 35.9839 198.923 35.9839 139.963C35.9839 107.137 50.7998 77.7709 74.1093 58.1876Z" fill="#858793"/>
<path d="M91.3991 87.8761C88.6817 106.048 101.035 122.285 105.935 123.391H184.626C196.471 112.985 198.282 97.3768 195.565 89.5726C194.7 91.7844 191.036 99.111 184.626 100.845C190.852 80.939 184.914 60.3542 181.167 53.7188C181.743 54.8247 180.994 60.8518 173.384 76.1133C169.06 45.4245 153.495 38.7891 153.495 8.92969C125.132 25.5182 115.736 60.6306 114.583 76.1133C113.141 75.2839 109.394 70.3073 105.935 57.0365C96.2503 74.9521 101.9 94.3607 105.935 101.826C104.08 102.58 97.7397 99.111 91.3991 87.8761Z" fill="#FF6534"/>
<path fill-rule="evenodd" clip-rule="evenodd" d="M108.623 147.604H176.859L163.652 259.863H121.83L110.285 163.95L154.847 156.408C142.276 156.583 124.719 156.591 109.533 156.552L108.623 147.604ZM168.054 165.213L160.35 166.313L159.25 246.656L168.054 165.213Z" fill="#858793"/>
</svg>
