<svg width="56" height="32" viewBox="0 0 56 32" fill="none" xmlns="http://www.w3.org/2000/svg">
<path d="M31.0488 15.5244C31.0488 24.0983 24.0983 31.0488 15.5244 31.0488C6.95051 31.0488 0 24.0983 0 15.5244C0 6.95051 6.95051 0 15.5244 0C24.0983 0 31.0488 6.95051 31.0488 15.5244Z" fill="white"/>
<path d="M47.2481 15.5244C47.2481 24.0983 43.924 31.0488 39.8234 31.0488C35.7229 31.0488 32.3987 24.0983 32.3987 15.5244C32.3987 6.95055 35.7229 4.57764e-05 39.8234 4.57764e-05C43.924 4.57764e-05 47.2481 6.95055 47.2481 15.5244Z" fill="white"/>
<path d="M55.3478 15.5243C55.3478 22.6071 54.139 28.3488 52.6479 28.3488C51.1568 28.3488 49.948 22.6071 49.948 15.5243C49.948 8.44157 51.1568 2.69985 52.6479 2.69985C54.139 2.69985 55.3478 8.44157 55.3478 15.5243Z" fill="white"/>
</svg>
