<svg width="273" height="78" viewBox="0 0 273 78" fill="none" xmlns="http://www.w3.org/2000/svg">
<path d="M0 7H267V73H102.5L97.5 78H57L52 73H13L0 60V7Z" fill="#08EDA8"/>
<path d="M204 0H248L254 7H197L204 0Z" fill="#08EDA8"/>
<path d="M249.842 10.289L249.991 10.5H250.25H263.5V69.5H100.805H54.2079H15.8129L3.5 57.5761V10.5H134.5H200H200.207L200.354 10.3536L206.207 4.5H245.741L249.842 10.289Z" stroke="black"/>
<rect x="267" y="7" width="6" height="66" fill="#EDFF23"/>
<rect x="3" y="17" width="16" height="4" fill="black"/>
<rect width="16" height="4" transform="matrix(1 0 0 -1 248 64)" fill="black"/>
<rect x="3" y="23" width="16" height="2" fill="black"/>
<rect width="16" height="2" transform="matrix(1 0 0 -1 248 58)" fill="black"/>
<path d="M54 70H100L96 74H58L54 70Z" fill="black"/>
</svg>
