<svg width="217" height="41" viewBox="0 0 217 41" fill="none" xmlns="http://www.w3.org/2000/svg">
<circle cx="20.7359" cy="20.5" r="18.5238" stroke="url(#paint0_linear_331_1363)" stroke-width="2.64626"/>
<path d="M30.3168 28.9826C30.2644 28.9826 30.2142 28.9619 30.1772 28.925C30.1402 28.8881 30.1194 28.8381 30.1194 28.7859V12.4703C30.1203 12.2149 30.058 11.9632 29.938 11.7376C29.8181 11.5119 29.6442 11.3192 29.4317 11.1765C29.2192 11.0337 28.9746 10.9454 28.7197 10.9193C28.4648 10.8932 28.2073 10.9301 27.9701 11.0267C25.8334 11.9041 23.8183 13.0509 21.9742 14.4389C18.2243 17.2651 16.6889 20.8071 16.6889 24.1839C16.6889 27.5607 18.9368 28.9197 20.7604 28.9197C22.5841 28.9197 24.8676 27.3286 24.8676 24.1839C24.8676 21.0391 24.0485 19.7529 22.9808 17.916C23.972 17.3893 25.0362 17.0121 26.1386 16.797C26.2155 16.7816 26.2949 16.7834 26.3711 16.8022C26.4472 16.821 26.5183 16.8565 26.579 16.9059C26.6398 16.9554 26.6888 17.0177 26.7225 17.0883C26.7563 17.1589 26.7739 17.236 26.7741 17.3142V28.9826C26.7741 29.3352 26.9147 29.6734 27.1649 29.9227C27.4151 30.172 27.7544 30.3121 28.1083 30.3121H31.4397V28.9826H30.3168ZM20.7624 28.2117C19.973 28.2117 18.6901 27.1693 18.6901 24.4336C18.6901 21.698 20.3578 19.867 20.7802 19.5818C21.1394 19.8355 22.8703 21.6645 22.8703 24.4317C22.8703 27.1988 21.5519 28.2117 20.7624 28.2117ZM17.4309 17.3673C16.7759 17.0806 16.0878 16.8758 15.3823 16.7577C15.3071 16.7466 15.2304 16.7519 15.1574 16.7731C15.0845 16.7944 15.017 16.8311 14.9596 16.8808C14.9022 16.9305 14.8563 16.992 14.8251 17.061C14.7938 17.1301 14.7779 17.205 14.7784 17.2808V28.9826C14.7784 29.3352 14.6378 29.6734 14.3876 29.9227C14.1374 30.172 13.7981 30.3121 13.4442 30.3121H10.0318V28.9826H11.2436C11.296 28.9826 11.3462 28.9619 11.3832 28.925C11.4202 28.8881 11.441 28.8381 11.441 28.7859V12.4899C11.4411 12.2345 11.5044 11.983 11.6252 11.7577C11.746 11.5324 11.9207 11.3403 12.1337 11.1982C12.3467 11.0561 12.5916 10.9684 12.8466 10.943C13.1017 10.9175 13.3591 10.9551 13.5962 11.0523C15.8205 11.947 17.9084 13.1471 19.7993 14.6179C18.8908 15.4255 18.0944 16.3501 17.4309 17.3673Z" fill="url(#paint1_linear_331_1363)"/>
<path d="M114.763 29.2864C114.763 29.8179 114.332 30.2488 113.801 30.2488H111.126C110.595 30.2488 110.164 29.8179 110.164 29.2864V16.888C110.164 16.6166 109.944 16.3965 109.672 16.3965H108.224C107.722 16.3965 107.315 15.9895 107.315 15.4875C107.315 14.9855 107.722 14.5785 108.224 14.5785H109.672C109.944 14.5785 110.164 14.3585 110.164 14.0871V9.7748C110.164 9.24327 110.595 8.81238 111.126 8.81238H113.801C114.332 8.81238 114.763 9.24327 114.763 9.7748V14.0871C114.763 14.3585 114.983 14.5785 115.255 14.5785H118.603C119.105 14.5785 119.512 14.9855 119.512 15.4875C119.512 15.9895 119.105 16.3965 118.603 16.3965H115.255C114.983 16.3965 114.763 16.6166 114.763 16.888V29.2864Z" fill="#2E2E2E"/>
<path fill-rule="evenodd" clip-rule="evenodd" d="M89.8992 22.3797C89.8992 23.1938 89.7906 23.9581 89.5736 24.6726C89.3565 25.3872 89.0535 26.0474 88.6646 26.6534C88.2847 27.2594 87.8234 27.8067 87.2807 28.2951C86.738 28.7745 86.141 29.1815 85.4898 29.5161C84.8476 29.8508 84.1557 30.1086 83.414 30.2895C82.6814 30.4704 81.9261 30.5608 81.1483 30.5608C80.3704 30.5608 79.6151 30.4704 78.8825 30.2895C78.1499 30.1086 77.4579 29.8508 76.8067 29.5161C76.1645 29.1815 75.5721 28.7745 75.0294 28.2951C74.4867 27.8067 74.0209 27.2594 73.6319 26.6534C73.2521 26.0474 72.9536 25.3872 72.7365 24.6726C72.5194 23.949 72.4109 23.1847 72.4109 22.3797C72.4109 21.5747 72.5194 20.815 72.7365 20.1004C72.9536 19.3768 73.2521 18.712 73.6319 18.106C74.0209 17.5 74.4867 16.9573 75.0294 16.4779C75.5721 15.9895 76.1645 15.578 76.8067 15.2433C77.4579 14.9086 78.1499 14.6509 78.8825 14.47C79.6151 14.2891 80.3704 14.1986 81.1483 14.1986C81.9261 14.1986 82.6814 14.2891 83.414 14.47C84.1557 14.6509 84.8476 14.9086 85.4898 15.2433C86.141 15.578 86.738 15.9895 87.2807 16.4779C87.8234 16.9573 88.2847 17.5 88.6646 18.106C89.0535 18.712 89.3565 19.3768 89.5736 20.1004C89.7906 20.815 89.8992 21.5747 89.8992 22.3797ZM85.232 22.3797C85.232 21.9456 85.2049 21.4888 85.1506 21.0094C85.1054 20.521 85.024 20.0461 84.9064 19.5848C84.7888 19.1145 84.626 18.6668 84.418 18.2417C84.219 17.8075 83.9703 17.4322 83.6718 17.1156C83.3733 16.79 83.016 16.5322 82.6 16.3423C82.1839 16.1433 81.7 16.0438 81.1483 16.0438C80.6236 16.0438 80.1578 16.1433 79.7508 16.3423C79.3438 16.5412 78.9865 16.8081 78.679 17.1427C78.3805 17.4683 78.1273 17.8482 77.9192 18.2824C77.7202 18.7165 77.5574 19.1688 77.4308 19.6391C77.3042 20.1004 77.2137 20.5707 77.1595 21.0501C77.1052 21.5205 77.078 21.9637 77.078 22.3797C77.078 22.7958 77.1052 23.2435 77.1595 23.7229C77.2137 24.1932 77.3042 24.6636 77.4308 25.1339C77.5574 25.6042 77.7202 26.0565 77.9192 26.4906C78.1273 26.9157 78.3805 27.2956 78.679 27.6303C78.9865 27.9559 79.3438 28.2182 79.7508 28.4172C80.1578 28.6162 80.6236 28.7157 81.1483 28.7157C81.6909 28.7157 82.1703 28.6207 82.5864 28.4308C83.0025 28.2318 83.3597 27.9695 83.6582 27.6439C83.9657 27.3182 84.219 26.9429 84.418 26.5178C84.617 26.0927 84.7753 25.6449 84.8928 25.1746C85.0195 24.7043 85.1054 24.2294 85.1506 23.75C85.2049 23.2706 85.232 22.8139 85.232 22.3797Z" fill="#2E2E2E"/>
<path d="M97.4426 25.7173C97.4426 26.7936 97.307 27.8881 97.0356 29.0006C96.7643 30.1041 96.3799 31.1714 95.8824 32.2025C95.394 33.2426 94.806 34.215 94.1186 35.1195C93.5838 35.8397 93.004 36.4812 92.3793 37.044C92.0789 37.3146 91.6364 37.3408 91.2906 37.1312L90.9715 36.9378C90.4895 36.6456 90.3636 36.0044 90.646 35.5166C90.877 35.1175 91.0894 34.6912 91.2831 34.2376C91.6268 33.4416 91.9117 32.614 92.1378 31.7548C92.373 30.8955 92.5493 30.0317 92.6669 29.1634C92.7845 28.286 92.8433 27.4539 92.8433 26.667V15.5409C92.8433 15.0094 93.2742 14.5785 93.8057 14.5785H96.4802C97.0117 14.5785 97.4426 15.0094 97.4426 15.5409V25.7173Z" fill="#2E2E2E"/>
<path d="M104.046 30.2488C104.577 30.2488 105.008 29.8179 105.008 29.2864V15.5545C105.008 15.023 104.577 14.5921 104.046 14.5921H101.371C100.84 14.5921 100.409 15.023 100.409 15.5545V29.2864C100.409 29.8179 100.84 30.2488 101.371 30.2488H104.046Z" fill="#2E2E2E"/>
<path fill-rule="evenodd" clip-rule="evenodd" d="M136.344 24.6726C136.561 23.9581 136.669 23.1938 136.669 22.3797C136.669 21.5747 136.561 20.815 136.344 20.1004C136.127 19.3768 135.824 18.712 135.435 18.106C135.055 17.5 134.594 16.9573 134.051 16.4779C133.508 15.9895 132.911 15.578 132.26 15.2433C131.618 14.9086 130.926 14.6509 130.184 14.47C129.451 14.2891 128.696 14.1986 127.918 14.1986C127.141 14.1986 126.385 14.2891 125.653 14.47C124.92 14.6509 124.228 14.9086 123.577 15.2433C122.935 15.578 122.342 15.9895 121.799 16.4779C121.257 16.9573 120.791 17.5 120.402 18.106C120.022 18.712 119.724 19.3768 119.507 20.1004C119.29 20.815 119.181 21.5747 119.181 22.3797C119.181 23.1847 119.29 23.949 119.507 24.6726C119.724 25.3872 120.022 26.0474 120.402 26.6534C120.791 27.2594 121.257 27.8067 121.799 28.2951C122.342 28.7745 122.935 29.1815 123.577 29.5161C124.228 29.8508 124.92 30.1086 125.653 30.2895C126.385 30.4704 127.141 30.5608 127.918 30.5608C128.696 30.5608 129.451 30.4704 130.184 30.2895C130.926 30.1086 131.618 29.8508 132.26 29.5161C132.911 29.1815 133.508 28.7745 134.051 28.2951C134.594 27.8067 135.055 27.2594 135.435 26.6534C135.824 26.0474 136.127 25.3872 136.344 24.6726ZM131.921 21.0094C131.975 21.4888 132.002 21.9456 132.002 22.3797C132.002 22.8139 131.975 23.2706 131.921 23.75C131.876 24.2294 131.79 24.7043 131.663 25.1746C131.545 25.6449 131.387 26.0927 131.188 26.5178C130.989 26.9429 130.736 27.3182 130.428 27.6439C130.13 27.9695 129.773 28.2318 129.357 28.4308C128.94 28.6207 128.461 28.7157 127.918 28.7157C127.394 28.7157 126.928 28.6162 126.521 28.4172C126.114 28.2182 125.757 27.9559 125.449 27.6303C125.151 27.2956 124.897 26.9157 124.689 26.4906C124.49 26.0565 124.328 25.6042 124.201 25.1339C124.074 24.6636 123.984 24.1932 123.93 23.7229C123.875 23.2435 123.848 22.7958 123.848 22.3797C123.848 21.9637 123.875 21.5205 123.93 21.0501C123.984 20.5707 124.074 20.1004 124.201 19.6391C124.328 19.1688 124.49 18.7165 124.689 18.2824C124.897 17.8482 125.151 17.4683 125.449 17.1427C125.757 16.8081 126.114 16.5412 126.521 16.3423C126.928 16.1433 127.394 16.0438 127.918 16.0438C128.47 16.0438 128.954 16.1433 129.37 16.3423C129.786 16.5322 130.143 16.79 130.442 17.1156C130.74 17.4322 130.989 17.8075 131.188 18.2417C131.396 18.6668 131.559 19.1145 131.677 19.5848C131.794 20.0461 131.876 20.521 131.921 21.0094Z" fill="#2E2E2E"/>
<path d="M156.344 24.2792C156.344 25.1203 156.235 25.862 156.018 26.5042C155.81 27.1464 155.512 27.7026 155.123 28.173C154.743 28.6433 154.291 29.0368 153.766 29.3533C153.241 29.6699 152.667 29.9232 152.043 30.1131C151.428 30.3031 150.772 30.4387 150.076 30.5201C149.388 30.6015 148.687 30.6422 147.973 30.6422C147.032 30.6422 146.164 30.5699 145.368 30.4252C144.572 30.2895 143.821 30.0724 143.116 29.7739C142.419 29.4664 141.745 29.0729 141.094 28.5936C140.668 28.2754 140.242 27.9113 139.815 27.5015C139.443 27.1438 139.453 26.5532 139.816 26.1856L140.908 25.0771C141.394 24.5843 142.237 24.7503 142.633 25.3174C142.742 25.4723 142.857 25.6236 142.98 25.7716C143.423 26.2962 143.907 26.7484 144.432 27.1283C144.965 27.5082 145.517 27.8067 146.087 28.0237C146.657 28.2408 147.195 28.3494 147.701 28.3494C148.298 28.3494 148.859 28.3087 149.384 28.2272C149.908 28.1368 150.365 27.9921 150.754 27.7931C151.143 27.5941 151.446 27.3318 151.663 27.0062C151.889 26.6715 152.002 26.2555 152.002 25.758C152.002 25.3781 151.916 25.0525 151.744 24.7811C151.573 24.5098 151.346 24.2792 151.066 24.0892C150.795 23.8902 150.483 23.7229 150.13 23.5872C149.777 23.4515 149.415 23.3385 149.045 23.248C148.683 23.1485 148.325 23.0626 147.973 22.9903C147.62 22.9088 147.308 22.8274 147.037 22.746C146.503 22.5923 145.947 22.4295 145.368 22.2576C144.789 22.0767 144.219 21.8732 143.658 21.6471C143.098 21.421 142.564 21.1632 142.057 20.8737C141.56 20.5753 141.121 20.227 140.741 19.8291C140.361 19.422 140.058 18.9562 139.832 18.4316C139.606 17.898 139.493 17.2874 139.493 16.6C139.493 15.7769 139.593 15.0488 139.792 14.4157C140 13.7735 140.289 13.2172 140.66 12.7469C141.031 12.2766 141.469 11.8831 141.976 11.5665C142.482 11.2409 143.039 10.9832 143.645 10.7932C144.251 10.5942 144.893 10.454 145.571 10.3726C146.259 10.2822 146.96 10.2369 147.674 10.2369C148.651 10.2369 149.537 10.3274 150.333 10.5083C151.138 10.6892 151.88 10.947 152.558 11.2816C153.237 11.6163 153.856 12.0188 154.417 12.4891C154.761 12.7674 155.092 13.0655 155.409 13.3833C155.765 13.7395 155.745 14.3131 155.391 14.6717L154.352 15.726C153.848 16.2378 152.967 16.0344 152.581 15.4285C152.505 15.3096 152.425 15.1936 152.341 15.0805C151.962 14.5559 151.536 14.1082 151.066 13.7373C150.596 13.3574 150.103 13.068 149.587 12.869C149.072 12.661 148.574 12.557 148.095 12.557C147.471 12.557 146.896 12.6022 146.372 12.6926C145.847 12.774 145.395 12.9142 145.015 13.1132C144.644 13.3032 144.355 13.5655 144.147 13.9001C143.939 14.2257 143.835 14.6328 143.835 15.1212C143.835 15.5101 143.912 15.8403 144.065 16.1116C144.219 16.383 144.423 16.6136 144.676 16.8035C144.938 16.9935 145.232 17.1518 145.558 17.2784C145.883 17.396 146.218 17.5 146.562 17.5904C146.914 17.6809 147.258 17.7623 147.593 17.8347C147.937 17.898 148.249 17.9703 148.529 18.0517C149.072 18.2055 149.641 18.3683 150.238 18.5402C150.835 18.712 151.423 18.9155 152.002 19.1507C152.581 19.3768 153.133 19.6391 153.657 19.9376C154.182 20.2361 154.643 20.5934 155.041 21.0094C155.439 21.4164 155.756 21.8913 155.991 22.434C156.226 22.9676 156.344 23.5827 156.344 24.2792Z" fill="#2E2E2E"/>
<path fill-rule="evenodd" clip-rule="evenodd" d="M194.402 30.2488C194.933 30.2488 195.364 29.8179 195.364 29.2864V15.5409C195.364 15.0094 194.933 14.5785 194.402 14.5785H194.146C193.808 14.5785 193.494 14.7565 193.32 15.0472L192.374 16.6304C192.053 17.1673 191.21 17.0955 190.847 16.5859C190.812 16.5357 190.775 16.4862 190.738 16.4372C190.394 15.9669 189.991 15.5689 189.53 15.2433C189.078 14.9086 188.576 14.6509 188.024 14.47C187.481 14.2891 186.907 14.1986 186.301 14.1986C185.107 14.1986 184.04 14.4112 183.099 14.8363C182.158 15.2614 181.363 15.8448 180.711 16.5865C180.06 17.3191 179.563 18.1829 179.219 19.1778C178.875 20.1728 178.703 21.2401 178.703 22.3797C178.703 23.5194 178.875 24.5867 179.219 25.5816C179.563 26.5766 180.06 27.4449 180.711 28.1865C181.363 28.9192 182.158 29.4981 183.099 29.9232C184.04 30.3483 185.107 30.5608 186.301 30.5608C187.215 30.5608 188.051 30.3845 188.811 30.0317C189.199 29.8489 189.559 29.6177 189.89 29.338C190.206 29.0702 190.778 29.2742 190.778 29.6889C190.778 29.9981 191.029 30.2488 191.338 30.2488H194.402ZM190.683 21.0908C190.729 21.5431 190.751 21.9727 190.751 22.3797C190.751 22.7415 190.724 23.144 190.67 23.5872C190.615 24.0214 190.53 24.46 190.412 24.9032C190.294 25.3464 190.141 25.7761 189.951 26.1921C189.761 26.6082 189.526 26.9791 189.245 27.3047C188.974 27.6303 188.653 27.8926 188.282 28.0916C187.92 28.2815 187.504 28.3765 187.034 28.3765C186.518 28.3765 186.07 28.286 185.691 28.1051C185.311 27.9152 184.985 27.6665 184.714 27.3589C184.442 27.0424 184.216 26.6806 184.035 26.2736C183.863 25.8665 183.728 25.4414 183.628 24.9982C183.529 24.555 183.456 24.1073 183.411 23.6551C183.375 23.2028 183.357 22.7777 183.357 22.3797C183.357 21.9817 183.375 21.5612 183.411 21.118C183.456 20.6657 183.529 20.218 183.628 19.7748C183.728 19.3316 183.863 18.9065 184.035 18.4995C184.216 18.0924 184.442 17.7352 184.714 17.4276C184.985 17.1111 185.311 16.8623 185.691 16.6814C186.07 16.4915 186.518 16.3965 187.034 16.3965C187.549 16.3965 188.001 16.487 188.39 16.6679C188.779 16.8488 189.109 17.0975 189.381 17.4141C189.661 17.7216 189.887 18.0789 190.059 18.4859C190.24 18.8839 190.38 19.3045 190.48 19.7477C190.579 20.1909 190.647 20.6386 190.683 21.0908Z" fill="#2E2E2E"/>
<path fill-rule="evenodd" clip-rule="evenodd" d="M214.992 22.3797C214.992 23.5194 214.82 24.5867 214.476 25.5816C214.132 26.5766 213.635 27.4449 212.984 28.1865C212.332 28.9192 211.536 29.4981 210.596 29.9232C209.655 30.3483 208.588 30.5608 207.394 30.5608C206.48 30.5608 205.639 30.3845 204.87 30.0317C204.77 29.9841 204.672 29.9332 204.576 29.879C203.955 29.5292 202.917 29.9195 202.917 30.6323V36.5178C202.917 37.0493 202.486 37.4802 201.954 37.4802H199.293C198.762 37.4802 198.331 37.0493 198.331 36.5178V15.5409C198.331 15.0094 198.762 14.5785 199.293 14.5785H199.549C199.887 14.5785 200.201 14.7565 200.375 15.0472L201.321 16.6304C201.642 17.1673 202.483 17.0949 202.84 16.5815C202.874 16.5328 202.908 16.4847 202.944 16.4372C203.297 15.9669 203.699 15.5689 204.151 15.2433C204.613 14.9086 205.115 14.6509 205.657 14.47C206.209 14.2891 206.788 14.1986 207.394 14.1986C208.588 14.1986 209.655 14.4112 210.596 14.8363C211.536 15.2614 212.332 15.8448 212.984 16.5865C213.635 17.3191 214.132 18.1829 214.476 19.1778C214.82 20.1728 214.992 21.2401 214.992 22.3797ZM210.338 22.3797C210.338 21.9817 210.315 21.5612 210.27 21.118C210.234 20.6657 210.166 20.218 210.067 19.7748C209.967 19.3316 209.827 18.9065 209.646 18.4995C209.474 18.0924 209.253 17.7352 208.981 17.4276C208.71 17.1111 208.38 16.8623 207.991 16.6814C207.611 16.4915 207.168 16.3965 206.661 16.3965C206.137 16.3965 205.68 16.487 205.291 16.6679C204.911 16.8488 204.581 17.0975 204.301 17.4141C204.029 17.7216 203.803 18.0789 203.622 18.4859C203.45 18.8839 203.315 19.3045 203.215 19.7477C203.116 20.1909 203.043 20.6386 202.998 21.0908C202.962 21.5431 202.944 21.9727 202.944 22.3797C202.944 22.7415 202.971 23.144 203.025 23.5872C203.08 24.0214 203.165 24.46 203.283 24.9032C203.401 25.3464 203.554 25.7761 203.744 26.1921C203.934 26.6082 204.165 26.9791 204.436 27.3047C204.717 27.6303 205.038 27.8926 205.4 28.0916C205.77 28.2815 206.191 28.3765 206.661 28.3765C207.177 28.3765 207.625 28.286 208.004 28.1051C208.384 27.9152 208.71 27.6665 208.981 27.3589C209.253 27.0424 209.474 26.6806 209.646 26.2736C209.827 25.8665 209.967 25.4414 210.067 24.9982C210.166 24.555 210.234 24.1073 210.27 23.6551C210.315 23.2028 210.338 22.7777 210.338 22.3797Z" fill="#2E2E2E"/>
<path d="M67.4936 10.3578C66.9098 10.3558 66.3472 10.577 65.9201 10.9764L65.8895 11.0033C65.8486 11.0414 65.8122 11.0817 65.7768 11.1209C65.7658 11.133 65.7549 11.1451 65.744 11.1569C65.7329 11.1662 65.7226 11.1765 65.7134 11.1877C65.6518 11.2603 65.5955 11.3374 65.545 11.4182L61.0314 17.6308L56.4144 11.2914V11.2722C56.1222 10.8732 55.711 10.5779 55.2404 10.429C54.7698 10.2802 54.2642 10.2856 53.7969 10.4443C53.3295 10.6031 52.9246 10.9071 52.6409 11.3122C52.3571 11.7173 52.2092 12.2025 52.2186 12.6976L52.2186 29.6403C52.2186 30.1719 52.6495 30.6028 53.181 30.6028H55.9076C56.4391 30.6028 56.87 30.1719 56.87 29.6403V16.5396L59.9671 20.666C60.0909 20.8307 60.2511 20.9643 60.4352 21.0563C60.6192 21.1483 60.822 21.1962 61.0275 21.1962C61.2331 21.1962 61.4359 21.1483 61.6199 21.0563C61.8039 20.9643 61.9642 20.8307 62.088 20.666L65.1506 16.5588V29.6442C65.1506 30.1757 65.5815 30.6066 66.1131 30.6066H68.8588C69.3903 30.6066 69.8212 30.1757 69.8212 29.6442V12.6976C69.8222 12.3904 69.7627 12.086 69.6461 11.8019C69.5296 11.5178 69.3582 11.2596 69.1419 11.0422C68.9256 10.8248 68.6687 10.6524 68.3858 10.535C68.1029 10.4175 67.7997 10.3573 67.4936 10.3578Z" fill="#2E2E2E"/>
<path d="M163.085 29.8553C162.68 30.2363 162.148 30.4473 161.595 30.4454C161.305 30.4459 161.018 30.3885 160.75 30.2764C160.482 30.1644 160.239 29.9999 160.034 29.7925C159.829 29.5851 159.667 29.3388 159.556 29.0678C159.446 28.7968 159.389 28.5065 159.39 28.2134V15.4658C159.39 14.9343 159.821 14.5034 160.353 14.5034L162.851 14.5034C163.383 14.5034 163.814 14.9343 163.814 15.4658V24.53L166.714 20.612C166.832 20.4549 166.983 20.3275 167.158 20.2397C167.332 20.1519 167.524 20.1063 167.719 20.1063C167.913 20.1063 168.105 20.1519 168.28 20.2397C168.454 20.3275 168.606 20.4549 168.723 20.612L171.656 24.5483V15.4695C171.656 14.938 172.087 14.5071 172.619 14.5071L175.099 14.5071C175.631 14.5071 176.062 14.938 176.062 15.4695V28.2134C176.07 28.6857 175.93 29.1486 175.662 29.535C175.393 29.9215 175.009 30.2114 174.567 30.3629C174.124 30.5143 173.645 30.5194 173.2 30.3775C172.754 30.2355 172.364 29.9538 172.088 29.5731V29.5548L167.715 23.5074L163.44 29.4339C163.392 29.511 163.339 29.5844 163.281 29.6537C163.272 29.6644 163.262 29.6742 163.252 29.6831C163.241 29.6944 163.231 29.7059 163.221 29.7175C163.187 29.7548 163.153 29.7933 163.114 29.8297L163.085 29.8553Z" fill="#2E2E2E"/>
<defs>
<linearGradient id="paint0_linear_331_1363" x1="36.2597" y1="4.38666" x2="6.19453" y2="38.1854" gradientUnits="userSpaceOnUse">
<stop stop-color="#16D6A1"/>
<stop offset="1" stop-color="#0BC6DA"/>
</linearGradient>
<linearGradient id="paint1_linear_331_1363" x1="10.0318" y1="31.4271" x2="32.2593" y2="10.833" gradientUnits="userSpaceOnUse">
<stop stop-color="#0AC4DD"/>
<stop offset="1" stop-color="#18D995"/>
</linearGradient>
</defs>
</svg>
