<svg width="64" height="64" viewBox="0 0 64 64" fill="none" xmlns="http://www.w3.org/2000/svg">
<path d="M14.5294 0H49.6667V23.8431H14.5294V0Z" fill="#E6E9EF"/>
<path d="M32.0981 20.0783C35.5634 20.0783 38.3726 17.2691 38.3726 13.8038C38.3726 10.3385 35.5634 7.5293 32.0981 7.5293C28.6327 7.5293 25.8235 10.3385 25.8235 13.8038C25.8235 17.2691 28.6327 20.0783 32.0981 20.0783Z" fill="#00D092"/>
<path d="M9.50983 31.3726H54.6863V64H9.50983V31.3726Z" fill="#00D092"/>
<path d="M7 23.843H57.1961V31.3724H7V23.843Z" fill="#02B68A"/>
<path d="M25.8235 36.3921H38.3726V41.4117H25.8235V36.3921Z" fill="#F8F9FD"/>
<path d="M31.2032 16.3138C31.045 16.3137 30.8933 16.2546 30.7814 16.1493L29.5883 15.0267L30.4318 14.233L31.2032 14.9588L33.7643 12.5491L34.6079 13.3428L31.625 16.1493C31.5131 16.2546 31.3614 16.3137 31.2032 16.3138Z" fill="#F8F9FD"/>
</svg>
