<svg width="64" height="64" viewBox="0 0 64 64" fill="none" xmlns="http://www.w3.org/2000/svg">
<path d="M62.1177 13.2006C62.1172 11.2285 61.5769 9.29412 60.5551 7.60732C59.5334 5.92052 58.0694 4.54566 56.3218 3.63182C54.5742 2.71799 52.6097 2.30007 50.6415 2.42339C48.6733 2.54672 46.7764 3.20657 45.1565 4.3314C43.5366 5.45622 42.2556 7.00308 41.4525 8.80422C40.6493 10.6054 40.3546 12.592 40.6003 14.5487C40.846 16.5055 41.6228 18.3576 42.8464 19.9042C44.0699 21.4508 45.6936 22.633 47.5413 23.3223C47.4425 24.4458 46.9574 25.5002 46.1687 26.3062C46.1687 26.3062 49.7173 26.2575 51.6448 23.994C54.4511 23.9093 57.114 22.735 59.069 20.7201C61.0241 18.7052 62.1176 16.0081 62.1177 13.2006Z" fill="#02B68A"/>
<path d="M1.88235 23.3173H39.6836V44.8043H1.88235V23.3173Z" fill="#00D092"/>
<path d="M22.4619 41.4155C22.0026 42.4848 21.778 43.6402 21.8031 44.8037H25.4225L27.4044 41.4155H22.4619Z" fill="#00D092"/>
<path d="M39.6836 23.3173H42.2899V44.8043H39.6836V23.3173Z" fill="#00D092"/>
<path d="M33.6849 26.6074H7.88085C7.88085 28.0647 6.74654 29.2461 5.3472 29.2461V38.8753C6.74654 38.8753 7.88085 40.0567 7.88085 41.5142H33.6849C33.6849 40.0567 34.8192 38.8753 36.2185 38.8753V29.2461C34.8192 29.2461 33.6849 28.0647 33.6849 26.6074Z" fill="#02B68A"/>
<path d="M12.0941 44.8043H33.7223V46.1726C33.7231 46.7821 33.5875 47.384 33.3255 47.9343C32.7781 49.0778 32.0964 50.152 31.2949 51.1343C30.7538 51.8007 30.4602 52.6339 30.464 53.4923V53.738H16.6965C16.5646 53.2651 16.3277 52.8282 16.0034 52.4597L13.888 50.0555C12.8496 48.8759 12.2304 47.386 12.1271 45.8178C12.1064 45.5038 12.0941 45.1655 12.0941 44.8043Z" fill="#FFC0B8"/>
<path d="M23.6256 44.8043H12.0941C12.0941 45.1655 12.1064 45.5038 12.1271 45.8178C12.1335 45.9145 12.1418 46.011 12.1521 46.1073H23.5799L23.6256 44.8043Z" fill="#FFC0B8"/>
<path d="M16.6965 53.7374C16.7763 54.0229 16.8168 54.318 16.8168 54.6144V61.6002H30.4638V53.7374H16.6965Z" fill="#FFC0B8"/>
<path d="M25.2089 32.3416C24.9929 33.4146 25.1119 34.9016 26.0747 36.8969C26.1352 37.0211 26.1492 37.1627 26.1143 37.2962C26.0795 37.4298 25.998 37.5465 25.8846 37.6252C25.1042 38.166 23.3529 39.2951 22.4185 41.5134H27.348L29.2651 38.2353L27.4338 32.2511C27.0871 31.12 25.4425 31.1814 25.2089 32.3416Z" fill="#02B68A"/>
<path d="M23.8682 47.9761C23.8682 47.9761 21.4101 41.5142 28.2008 38.0235L26.6801 35.4293C26.1238 34.4996 25.8613 33.4236 25.9271 32.3422C25.9615 31.6957 26.1514 31.067 26.4806 30.5095C26.601 30.3145 26.7637 30.149 26.9568 30.0254C27.1498 29.9018 27.3682 29.8231 27.5957 29.7953C27.8233 29.7675 28.0541 29.7913 28.2713 29.8648C28.4884 29.9383 28.6862 30.0597 28.8501 30.22L32.3414 33.631C32.7782 34.0578 33.1253 34.5675 33.3623 35.1303C33.5993 35.6931 33.7214 36.2976 33.7214 36.9082V45.1467L23.8682 47.9761Z" fill="#FFC0B8"/>
<path d="M48.2071 17.4929C48.0768 17.4929 47.9494 17.4543 47.841 17.3819C47.7327 17.3095 47.6482 17.2066 47.5983 17.0862C47.5485 16.9658 47.5354 16.8333 47.5608 16.7055C47.5863 16.5777 47.649 16.4603 47.7412 16.3682L54.5212 9.58815C54.5824 9.52697 54.655 9.47844 54.735 9.44532C54.8149 9.41221 54.9006 9.39517 54.9871 9.39517C55.0736 9.39517 55.1593 9.41221 55.2392 9.44532C55.3192 9.47844 55.3918 9.52697 55.453 9.58815C55.5142 9.64933 55.5627 9.72196 55.5958 9.8019C55.6289 9.88183 55.646 9.96751 55.646 10.054C55.646 10.1406 55.6289 10.2262 55.5958 10.3062C55.5627 10.3861 55.5142 10.4587 55.453 10.5199L48.6729 17.3C48.6118 17.3612 48.5392 17.4098 48.4593 17.4429C48.3793 17.476 48.2936 17.493 48.2071 17.4929Z" fill="white"/>
<path d="M21.306 37.6696H20.0173C19.6061 37.6701 19.2039 37.5492 18.8612 37.3221C18.5185 37.0949 18.2504 36.7716 18.0907 36.3927C18.057 36.313 18.0393 36.2274 18.0387 36.1409C18.0381 36.0544 18.0545 35.9685 18.087 35.8884C18.1195 35.8082 18.1675 35.7352 18.2282 35.6735C18.289 35.6119 18.3612 35.5628 18.4409 35.5291C18.6019 35.4611 18.7833 35.4597 18.9452 35.5254C19.1072 35.5911 19.2364 35.7184 19.3045 35.8793C19.3634 36.0196 19.4626 36.1393 19.5894 36.2234C19.7163 36.3075 19.8651 36.3523 20.0173 36.352H21.306C21.5224 36.352 21.73 36.266 21.8831 36.1129C22.0362 35.9599 22.1222 35.7523 22.1222 35.5358C22.1222 35.3193 22.0362 35.1117 21.8831 34.9587C21.73 34.8056 21.5224 34.7196 21.306 34.7196H20.06C19.4941 34.7196 18.9514 34.4948 18.5512 34.0946C18.151 33.6945 17.9262 33.1517 17.9262 32.5858C17.9262 32.0199 18.151 31.4771 18.5512 31.0769C18.9514 30.6768 19.4941 30.452 20.06 30.452H21.3487C21.7809 30.4524 22.2023 30.5865 22.5552 30.8359C22.9082 31.0853 23.1753 31.4377 23.3201 31.8449C23.349 31.9265 23.3615 32.0129 23.357 32.0994C23.3524 32.1858 23.3309 32.2704 23.2936 32.3485C23.2564 32.4266 23.2041 32.4966 23.1398 32.5545C23.0754 32.6124 23.0004 32.6571 22.9188 32.6859C22.8372 32.7148 22.7507 32.7273 22.6643 32.7228C22.5779 32.7182 22.4932 32.6967 22.4151 32.6595C22.337 32.6222 22.2671 32.5699 22.2092 32.5056C22.1513 32.4413 22.1066 32.3662 22.0777 32.2846C22.0241 32.1341 21.9252 32.0038 21.7946 31.9116C21.664 31.8195 21.5082 31.7699 21.3483 31.7698H20.0597C19.8432 31.7698 19.6356 31.8558 19.4825 32.0089C19.3295 32.1619 19.2435 32.3695 19.2435 32.586C19.2435 32.8024 19.3295 33.01 19.4825 33.1631C19.6356 33.3162 19.8432 33.4022 20.0597 33.4022H21.3056C21.8715 33.4022 22.4143 33.627 22.8145 34.0272C23.2146 34.4273 23.4394 34.9701 23.4394 35.536C23.4394 36.1019 23.2146 36.6447 22.8145 37.0448C22.4143 37.445 21.8715 37.6698 21.3056 37.6698L21.306 37.6696Z" fill="white"/>
<path d="M20.6829 31.7696C20.5082 31.7696 20.3406 31.7002 20.217 31.5767C20.0935 31.4531 20.0241 31.2855 20.0241 31.1108V30.1335C20.0241 29.9588 20.0935 29.7912 20.217 29.6676C20.3406 29.5441 20.5082 29.4747 20.6829 29.4747C20.8576 29.4747 21.0252 29.5441 21.1488 29.6676C21.2723 29.7912 21.3417 29.9588 21.3417 30.1335V31.1108C21.3417 31.2855 21.2723 31.4531 21.1488 31.5767C21.0252 31.7002 20.8576 31.7696 20.6829 31.7696Z" fill="white"/>
<path d="M20.6829 38.647C20.5082 38.647 20.3406 38.5776 20.217 38.454C20.0935 38.3305 20.0241 38.1629 20.0241 37.9881V37.0108C20.0241 36.8361 20.0935 36.6685 20.217 36.545C20.3406 36.4214 20.5082 36.352 20.6829 36.352C20.8576 36.352 21.0252 36.4214 21.1488 36.545C21.2723 36.6685 21.3417 36.8361 21.3417 37.0108V37.9881C21.3417 38.1629 21.2723 38.3305 21.1488 38.454C21.0252 38.5776 20.8576 38.647 20.6829 38.647Z" fill="white"/>
<path d="M54.294 16.9647C54.749 16.9647 55.1178 16.5959 55.1178 16.141C55.1178 15.6861 54.749 15.3173 54.294 15.3173C53.8391 15.3173 53.4703 15.6861 53.4703 16.141C53.4703 16.5959 53.8391 16.9647 54.294 16.9647Z" fill="white"/>
<path d="M48.9001 11.5708C49.3551 11.5708 49.7239 11.202 49.7239 10.7471C49.7239 10.2922 49.3551 9.9234 48.9001 9.9234C48.4452 9.9234 48.0764 10.2922 48.0764 10.7471C48.0764 11.202 48.4452 11.5708 48.9001 11.5708Z" fill="white"/>
<path d="M21.8031 45.7963C21.8031 45.7963 22.0024 48.1481 23.5537 49.5168C23.6157 49.5701 23.6936 49.6014 23.7753 49.6056C23.857 49.6099 23.9377 49.5869 24.0049 49.5403C24.0721 49.4937 24.122 49.4261 24.1466 49.3481C24.1713 49.2702 24.1694 49.1862 24.1412 49.1095C23.7782 48.1454 23.5546 47.1345 23.4769 46.1073L21.8031 45.7963Z" fill="#FFC0B8"/>
</svg>
