<svg width="64" height="64" viewBox="0 0 64 64" fill="none" xmlns="http://www.w3.org/2000/svg">
<path d="M42.3571 33.638C36.6744 33.638 32.0678 38.2447 32.0678 43.9273C32.0678 38.2447 27.4611 33.638 21.7785 33.638H17.8166V37.0297C17.8166 42.7125 22.4233 47.319 28.106 47.319H36.0296C41.7122 47.319 46.319 42.7125 46.319 37.0297V33.638H42.3571Z" fill="#00D092"/>
<path d="M26.3541 18.6518C29.178 20.1368 30.9322 23.0396 30.9322 26.2272V54.1595C30.9322 54.7865 31.4406 55.2949 32.0677 55.2949C32.6948 55.2949 33.2032 54.7865 33.2032 54.1595V26.2272C33.2032 23.0396 34.9574 20.1368 37.7813 18.6518C38.3363 18.3599 38.5497 17.6733 38.2578 17.1183C37.9659 16.5632 37.2792 16.3497 36.7243 16.6419C34.6687 17.723 33.0624 19.3987 32.0677 21.3946C31.073 19.3987 29.4667 17.723 27.4111 16.6419C26.8559 16.35 26.1694 16.5632 25.8776 17.1183C25.5857 17.6733 25.7991 18.3599 26.3541 18.6518Z" fill="#FFC0B8"/>
<path d="M39.4783 54.1595H24.6572C20.8793 54.1595 17.8166 57.2222 17.8166 61.0001H46.3189C46.3189 57.2222 43.2563 54.1595 39.4783 54.1595Z" fill="#FFC0B8"/>
<path d="M15.5364 29.0727C8.62381 29.0727 3 23.4489 3 16.5364C3 9.62381 8.62381 4 15.5364 4C22.9352 4 28.7439 10.4136 28.0124 17.7593C27.3971 24.1475 22.0092 29.0727 15.5364 29.0727Z" fill="#02B68A"/>
<path fill-rule="evenodd" clip-rule="evenodd" d="M14.8977 13.2051V13.4947C14.3954 13.5031 13.9156 13.7063 13.5598 14.0621C13.1963 14.4256 12.992 14.9187 12.992 15.4327C12.992 15.9468 13.1963 16.4398 13.5598 16.8033C13.9233 17.1668 14.4163 17.371 14.9303 17.371H16.0621C16.2587 17.371 16.4473 17.4491 16.5864 17.5882C16.7254 17.7272 16.8035 17.9158 16.8035 18.1124C16.8035 18.309 16.7254 18.4976 16.5864 18.6367C16.4473 18.7757 16.2587 18.8538 16.0621 18.8538H15.5107C15.5058 18.8537 15.501 18.8536 15.4961 18.8536C15.4913 18.8536 15.4864 18.8537 15.4816 18.8538H14.8915C14.7533 18.8541 14.6181 18.8134 14.5028 18.737C14.3876 18.6606 14.2976 18.5519 14.244 18.4245C14.1822 18.2783 14.0648 18.1626 13.9177 18.103C13.7706 18.0433 13.6058 18.0445 13.4596 18.1063C13.3872 18.137 13.3216 18.1815 13.2664 18.2375C13.2112 18.2935 13.1676 18.3598 13.1381 18.4327C13.1085 18.5055 13.0936 18.5834 13.0942 18.662C13.0948 18.7406 13.1109 18.8184 13.1415 18.8907C13.2865 19.2349 13.53 19.5286 13.8413 19.735C14.1527 19.9413 14.518 20.0512 14.8915 20.0507H14.8977V20.3399C14.8977 20.4986 14.9607 20.6508 15.073 20.763C15.1852 20.8753 15.3374 20.9383 15.4961 20.9383C15.6549 20.9383 15.8071 20.8753 15.9193 20.763C16.0315 20.6508 16.0946 20.4986 16.0946 20.3399V20.0506C16.5968 20.0421 17.0766 19.8389 17.4324 19.4832C17.7959 19.1197 18.0001 18.6267 18.0001 18.1126C18.0001 17.5985 17.7959 17.1055 17.4324 16.742C17.0689 16.3785 16.5758 16.1743 16.0618 16.1743H14.93C14.7334 16.1743 14.5448 16.0962 14.4058 15.9571C14.2667 15.8181 14.1886 15.6295 14.1886 15.4329C14.1886 15.2363 14.2667 15.0477 14.4058 14.9086C14.5448 14.7696 14.7334 14.6915 14.93 14.6915H16.1006C16.2458 14.6916 16.3874 14.7366 16.506 14.8203C16.6246 14.904 16.7144 15.0224 16.7632 15.1591C16.7894 15.2332 16.8299 15.3014 16.8825 15.3599C16.9351 15.4183 16.9987 15.4658 17.0696 15.4996C17.1406 15.5335 17.2175 15.553 17.296 15.5572C17.3745 15.5613 17.453 15.5499 17.5271 15.5237C17.6012 15.4975 17.6694 15.4569 17.7279 15.4043C17.7863 15.3517 17.8338 15.2881 17.8676 15.2172C17.9015 15.1463 17.921 15.0693 17.9251 14.9909C17.9293 14.9124 17.9179 14.8338 17.8917 14.7597C17.7602 14.3899 17.5175 14.0697 17.1969 13.8432C16.8763 13.6167 16.4935 13.4948 16.1009 13.4944H16.0946V13.2051C16.0946 13.0464 16.0315 12.8941 15.9193 12.7819C15.8071 12.6697 15.6549 12.6066 15.4961 12.6066C15.3374 12.6066 15.1852 12.6697 15.073 12.7819C14.9607 12.8941 14.8977 13.0464 14.8977 13.2051Z" fill="white"/>
<path d="M48.5991 29.0727C55.5227 29.0727 61.1354 23.46 61.1354 16.5364C61.1354 9.61272 55.5227 4 48.5991 4C41.6754 4 36.0627 9.61272 36.0627 16.5364C36.0627 23.46 41.6754 29.0727 48.5991 29.0727Z" fill="#02B68A"/>
<path d="M44.9729 20.7985C44.8546 20.7985 44.7388 20.7634 44.6404 20.6977C44.542 20.6319 44.4653 20.5384 44.42 20.4291C44.3747 20.3197 44.3628 20.1994 44.3859 20.0833C44.409 19.9672 44.466 19.8605 44.5497 19.7768L50.7085 13.6181C50.7641 13.5625 50.8301 13.5184 50.9027 13.4883C50.9753 13.4583 51.0531 13.4428 51.1317 13.4428C51.2103 13.4428 51.2881 13.4583 51.3607 13.4883C51.4333 13.5184 51.4993 13.5625 51.5549 13.6181C51.6105 13.6736 51.6546 13.7396 51.6846 13.8122C51.7147 13.8848 51.7302 13.9627 51.7302 14.0413C51.7302 14.1199 51.7147 14.1977 51.6846 14.2703C51.6546 14.3429 51.6105 14.4089 51.5549 14.4645L45.3961 20.6232C45.3406 20.6789 45.2746 20.723 45.202 20.7531C45.1294 20.7832 45.0515 20.7986 44.9729 20.7985V20.7985Z" fill="white"/>
<path d="M50.5021 20.3186C50.9154 20.3186 51.2504 19.9836 51.2504 19.5704C51.2504 19.1571 50.9154 18.8221 50.5021 18.8221C50.0889 18.8221 49.7539 19.1571 49.7539 19.5704C49.7539 19.9836 50.0889 20.3186 50.5021 20.3186Z" fill="white"/>
<path d="M45.6025 15.4191C46.0158 15.4191 46.3508 15.0841 46.3508 14.6709C46.3508 14.2576 46.0158 13.9226 45.6025 13.9226C45.1893 13.9226 44.8543 14.2576 44.8543 14.6709C44.8543 15.0841 45.1893 15.4191 45.6025 15.4191Z" fill="white"/>
</svg>
