<svg width="64" height="64" viewBox="0 0 64 64" fill="none" xmlns="http://www.w3.org/2000/svg">
<path d="M5 24H53V48H5V24Z" fill="#00D092"/>
<path d="M12 44H46C46 43.2044 46.3161 42.4413 46.8787 41.8787C47.4413 41.3161 48.2043 41 49 41V31C48.2043 31 47.4413 30.6839 46.8787 30.1213C46.3161 29.5587 46 28.7956 46 28H12C12 28.7956 11.6839 29.5587 11.1213 30.1213C10.5587 30.6839 9.79565 31 9 31V41C9.79565 41 10.5587 41.3161 11.1213 41.8787C11.6839 42.4413 12 43.2044 12 44Z" fill="#02B68A"/>
<path d="M43 32H9V41C9.79565 41 10.5587 41.3161 11.1213 41.8787C11.6839 42.4413 12 43.2044 12 44H46V35C45.2043 35 44.4413 34.6839 43.8787 34.1213C43.3161 33.5587 43 32.7956 43 32Z" fill="#02B68A"/>
<path fill-rule="evenodd" clip-rule="evenodd" d="M29.0979 32.1337V32.4525C28.545 32.4618 28.0167 32.6854 27.625 33.0771C27.2248 33.4773 27 34.0201 27 34.586C27 35.1519 27.2248 35.6947 27.625 36.0948C28.0252 36.495 28.5679 36.7198 29.1338 36.7198H30.3798C30.5962 36.7198 30.8038 36.8058 30.9569 36.9589C31.11 37.1119 31.196 37.3195 31.196 37.536C31.196 37.7525 31.11 37.9601 30.9569 38.1131C30.8038 38.2662 30.5962 38.3522 30.3798 38.3522H29.7696C29.7653 38.3521 29.761 38.3521 29.7567 38.3521C29.7524 38.3521 29.7481 38.3521 29.7438 38.3522H29.0911C28.9389 38.3525 28.7901 38.3077 28.6632 38.2236C28.5364 38.1395 28.4372 38.0198 28.3783 37.8795C28.3102 37.7186 28.181 37.5913 28.019 37.5256C27.8571 37.4599 27.6757 37.4612 27.5147 37.5293C27.435 37.563 27.3628 37.6121 27.302 37.6737C27.2413 37.7354 27.1933 37.8084 27.1608 37.8885C27.1283 37.9687 27.1119 38.0545 27.1125 38.1411C27.1131 38.2276 27.1308 38.3131 27.1645 38.3928C27.3242 38.7717 27.5922 39.0951 27.935 39.3222C28.2777 39.5494 28.6799 39.6703 29.0911 39.6698H29.0979V39.9882C29.0979 40.1629 29.1673 40.3305 29.2909 40.4541C29.4144 40.5776 29.582 40.647 29.7567 40.647C29.9314 40.647 30.099 40.5776 30.2226 40.4541C30.3461 40.3305 30.4155 40.1629 30.4155 39.9882V39.6697C30.9684 39.6603 31.4966 39.4367 31.8882 39.045C32.2884 38.6449 32.5132 38.1021 32.5132 37.5362C32.5132 36.9703 32.2884 36.4275 31.8882 36.0273C31.4881 35.6272 30.9453 35.4024 30.3794 35.4024H29.1335C28.917 35.4024 28.7094 35.3164 28.5563 35.1633C28.4033 35.0102 28.3173 34.8026 28.3173 34.5862C28.3173 34.3697 28.4033 34.1621 28.5563 34.009C28.7094 33.856 28.917 33.77 29.1335 33.77H30.4221C30.582 33.7701 30.7378 33.8196 30.8684 33.9118C30.999 34.004 31.0979 34.1342 31.1515 34.2848C31.1804 34.3664 31.2251 34.4415 31.283 34.5058C31.3408 34.5701 31.4108 34.6224 31.4889 34.6596C31.567 34.6969 31.6517 34.7184 31.7381 34.723C31.8245 34.7275 31.911 34.715 31.9926 34.6861C32.0741 34.6572 32.1492 34.6126 32.2135 34.5547C32.2779 34.4968 32.3301 34.4268 32.3674 34.3487C32.4047 34.2706 32.4262 34.1859 32.4307 34.0995C32.4353 34.0131 32.4228 33.9267 32.3939 33.8451C32.2491 33.4379 31.9819 33.0855 31.629 32.8361C31.2761 32.5867 30.8546 32.4526 30.4225 32.4521H30.4155V32.1337C30.4155 31.9589 30.3461 31.7914 30.2226 31.6678C30.099 31.5443 29.9314 31.4749 29.7567 31.4749C29.582 31.4749 29.4144 31.5443 29.2909 31.6678C29.1673 31.7914 29.0979 31.9589 29.0979 32.1337Z" fill="white"/>
<path d="M56 58H48L42 62L14 55C14 54.2044 14.3161 53.4413 14.8787 52.8787C15.4413 52.3161 16.2044 52 17 52H38C38 51.96 38 51.919 38 51.879V51.744C38 51.2623 38.164 50.795 38.465 50.419L40.8 47.5C41.1747 47.032 41.6498 46.6542 42.1902 46.3946C42.7306 46.1349 43.3225 46.0001 43.922 46H56V58Z" fill="#FFC0B8"/>
<path d="M41.121 55C40.3242 54.9995 39.5577 54.6945 38.9784 54.1474C38.3992 53.6003 38.0509 52.8524 38.005 52.057L40.005 51.943C40.0175 52.1589 40.0922 52.3667 40.22 52.5412C40.3479 52.7157 40.5234 52.8495 40.7256 52.9266C40.9277 53.0036 41.1478 53.0205 41.3594 52.9754C41.5709 52.9302 41.7649 52.8248 41.918 52.672L45.297 49.293L46.711 50.707L43.332 54.086C42.7444 54.6703 41.9497 54.9988 41.121 55Z" fill="#FFC0B8"/>
<path d="M20 24V19.143L22 20L24 22V24H20Z" fill="#FFC0B8"/>
<path d="M27.886 13.857L32 19V24H36V17L30 5L21 2H2V12L13 14L15 17L22 20L29.379 27.379C29.576 27.576 29.8098 27.7322 30.0672 27.8388C30.3246 27.9453 30.6004 28.0001 30.879 28C31.4414 27.9997 31.9808 27.7762 32.3785 27.3785C32.7762 26.9808 32.9997 26.4414 33 25.879V25.8C33.0005 25.2851 32.8139 24.7876 32.475 24.4L26 17L27.886 13.857Z" fill="#FFC0B8"/>
</svg>
