<svg width="101" height="7" viewBox="0 0 101 7" fill="none" xmlns="http://www.w3.org/2000/svg">
<path d="M3.0598e-07 7L7 -3.0598e-07L11 -4.80825e-07L4 7L3.0598e-07 7Z" fill="#FF8E3D"/>
<path d="M10 7L17 -7.43094e-07L21 -9.17939e-07L14 7L10 7Z" fill="#FF8E3D"/>
<path d="M27 -1.18021e-06L20 7L24 7L31 -1.35505e-06L27 -1.18021e-06Z" fill="#FF8E3D"/>
<path d="M30 7L37 -1.61732e-06L41 -1.79217e-06L34 7L30 7Z" fill="#FF8E3D"/>
<path d="M47 -2.05444e-06L40 7L44 7L51 -2.22928e-06L47 -2.05444e-06Z" fill="#FF8E3D"/>
<path d="M50 7L57 -2.49155e-06L61 -2.66639e-06L54 7L50 7Z" fill="#FF8E3D"/>
<path d="M67 -2.92866e-06L60 7L64 7L71 -3.10351e-06L67 -2.92866e-06Z" fill="#FF8E3D"/>
<path d="M70 7L77 -3.36578e-06L81 -3.54062e-06L74 7L70 7Z" fill="#FF8E3D"/>
<path d="M87 -3.80289e-06L80 7L84 7L91 -3.97774e-06L87 -3.80289e-06Z" fill="#FF8E3D"/>
<path d="M90 7L97 -4.24e-06L101 -4.41485e-06L94 7L90 7Z" fill="#FF8E3D"/>
</svg>
