<svg width="21" height="20" viewBox="0 0 21 20" fill="none" xmlns="http://www.w3.org/2000/svg">
<path d="M10.6773 15.2985L11.5675 17.3367C11.7013 17.6449 11.9671 17.8446 12.2906 17.9043C12.4332 17.9173 12.5634 17.9117 12.6864 17.8788C12.864 17.8312 13.0219 17.7376 13.1516 17.5931L15.2908 15.1677C15.5838 14.8404 15.6898 14.4166 15.621 13.9958L15.1351 11.4175C15.1538 11.4051 14.99 10.5173 15 10.5" fill="#FF6534"/>
<path d="M8.5 7L5.22503 7.98225C4.82621 8.13304 4.5073 8.44543 4.37524 8.85416L3.34449 11.9194C3.23645 12.2266 3.30566 12.5668 3.50546 12.8207C3.71893 13.0709 4.0247 13.2013 4.35853 13.1631L6.56872 12.9149" fill="#FF6534"/>
<path d="M5.68352 19.2091C5.58342 19.1513 5.50516 19.0557 5.46817 18.9376C5.34204 18.5326 5.17775 17.7944 5.26224 16.9476C5.28047 16.7689 5.30842 16.5874 5.35092 16.4017C5.38796 16.2465 5.43105 16.0947 5.48205 15.9434C5.76007 15.1326 6.35296 14.4699 6.97496 13.904C7.21648 13.6818 7.46347 13.4081 7.75654 13.2578C7.77293 13.2504 7.78627 13.2413 7.7978 13.2353C7.94525 13.1691 8.11088 13.1764 8.24738 13.2552C8.24738 13.2552 8.57499 13.4444 8.90259 13.6335C9.23019 13.8226 9.55779 14.0118 9.55779 14.0118C9.69429 14.0906 9.78345 14.2304 9.7998 14.3912C9.79859 14.4073 9.79919 14.4203 9.80101 14.4381C9.81734 14.7671 9.70564 15.1147 9.63217 15.4381C9.45001 16.258 9.17561 17.1045 8.61246 17.7507C8.50686 17.8706 8.39702 17.9837 8.28112 18.0934C8.14155 18.2231 7.99834 18.338 7.8527 18.4432C7.16155 18.9398 6.44194 19.1634 6.02632 19.2598C5.90557 19.2868 5.78362 19.2669 5.68352 19.2091Z" fill="url(#paint0_linear_10077_3153)"/>
<path d="M15.9995 1.33946C16.2136 1.46309 16.3768 1.67489 16.448 1.94128C16.6903 2.85514 16.9886 4.52622 16.7339 6.46585C16.6792 6.87516 16.6031 7.29168 16.4949 7.71899C16.401 8.07629 16.2943 8.42609 16.1702 8.77575C15.4953 10.6491 14.144 12.2104 12.7371 13.5533C12.1906 14.0803 11.6279 14.7253 10.9746 15.0927C10.9381 15.1108 10.9082 15.1327 10.8825 15.1473C10.5546 15.3106 10.193 15.3076 9.90101 15.139C9.90101 15.139 9.20025 14.7344 8.49949 14.3298C7.79873 13.9253 7.09797 13.5207 7.09797 13.5207C6.80599 13.3521 6.62257 13.0405 6.6001 12.6748C6.60409 12.6379 6.60383 12.6084 6.60133 12.5678C6.59281 11.8183 6.86578 11.0158 7.05316 10.2717C7.51925 8.38555 8.18922 6.43093 9.47411 4.90973C9.71491 4.6275 9.96446 4.36013 10.227 4.10023C10.5429 3.7928 10.8656 3.51863 11.1927 3.26666C12.7451 2.07626 14.3372 1.50638 15.2541 1.25198C15.5203 1.18039 15.7854 1.21584 15.9995 1.33946Z" fill="white"/>
<path d="M10.7847 10.2983C11.6648 10.8064 12.7902 10.5049 13.2984 9.62479C13.8065 8.74468 13.5049 7.61928 12.6248 7.11115C11.7447 6.60303 10.6193 6.90458 10.1112 7.78468C9.60307 8.66478 9.90462 9.79018 10.7847 10.2983Z" fill="#FF6534"/>
<defs>
<linearGradient id="paint0_linear_10077_3153" x1="5.68328" y1="19.209" x2="8.90235" y2="13.6334" gradientUnits="userSpaceOnUse">
<stop stop-color="#FF8D4E"/>
<stop offset="0.796875" stop-color="#FFB72C"/>
<stop offset="0.973958" stop-color="#FFEA2C"/>
</linearGradient>
</defs>
</svg>
