<svg xmlns="http://www.w3.org/2000/svg" width="20" height="21" viewBox="0 0 20 21">
    <g fill="none" fill-rule="evenodd">
        <g fill="#E8EBF3" fill-rule="nonzero">
            <g>
                <g>
                    <g>
                        <g>
                            <g>
                                <path d="M7.083 13.333c1.539 0 2.953-.529 4.081-1.406l3.664 3.663 1.178-1.178-3.664-3.664c.879-1.129 1.408-2.543 1.408-4.081C13.75 2.99 10.76 0 7.083 0 3.408 0 .417 2.99.417 6.667c0 3.675 2.99 6.666 6.666 6.666zm0-11.666c2.758 0 5 2.242 5 5 0 2.757-2.242 5-5 5-2.757 0-5-2.243-5-5 0-2.758 2.243-5 5-5z" transform="translate(-309.000000, -205.000000) translate(99.000000, 97.000000) translate(20.000000, 98.000000) translate(184.000000, 4.000000) translate(6.000000, 6.500000) translate(1.666667, 2.500000)"/>
                            </g>
                        </g>
                    </g>
                </g>
            </g>
        </g>
    </g>
</svg>
