<svg width="102" height="7" viewBox="0 0 102 7" fill="none" xmlns="http://www.w3.org/2000/svg">
	<path d="M3.0598e-07 7L8 -3.49691e-07L12 -5.24537e-07L4 7L3.0598e-07 7Z" fill="#FF8E3D" />
	<path d="M10 7L18 -7.86805e-07L22 -9.61651e-07L14 7L10 7Z" fill="#FF8E3D" />
	<path d="M28 -1.22392e-06L20 7L24 7L32 -1.39876e-06L28 -1.22392e-06Z" fill="#FF8E3D" />
	<path d="M30 7L38 -1.66103e-06L42 -1.83588e-06L34 7L30 7Z" fill="#FF8E3D" />
	<path d="M48 -2.09815e-06L40 7L44 7L52 -2.27299e-06L48 -2.09815e-06Z" fill="#FF8E3D" />
	<path d="M50 7L58 -2.53526e-06L62 -2.71011e-06L54 7L50 7Z" fill="#FF8E3D" />
	<path d="M68 -2.97237e-06L60 7L64 7L72 -3.14722e-06L68 -2.97237e-06Z" fill="#FF8E3D" />
	<path d="M70 7L78 -3.40949e-06L82 -3.58433e-06L74 7L70 7Z" fill="#FF8E3D" />
	<path d="M88 -3.8466e-06L80 7L84 7L92 -4.02145e-06L88 -3.8466e-06Z" fill="#FF8E3D" />
	<path d="M90 7L98 -4.28372e-06L102 -4.45856e-06L94 7L90 7Z" fill="#FF8E3D" />
</svg>	