<svg width="48" height="48" viewBox="0 0 48 48" fill="none" xmlns="http://www.w3.org/2000/svg">
<path fill-rule="evenodd" clip-rule="evenodd" d="M24 45C12.4006 45 3 35.5994 3 24C3 12.4006 12.4006 3 24 3C35.5994 3 45 12.4006 45 24C45 35.5994 35.5994 45 24 45ZM24 48C10.7438 48 0 37.2562 0 24C0 10.7438 10.7438 0 24 0C37.2562 0 48 10.7438 48 24C48 37.2562 37.2562 48 24 48Z" fill="#14D89D"/>
<path d="M14.7998 25.2L20.7998 30.8L34.3998 17.6" stroke="#00D092" stroke-width="3" stroke-linecap="round" stroke-linejoin="round"/>
</svg>
