<svg width="65" height="65" viewBox="0 0 65 65" fill="none" xmlns="http://www.w3.org/2000/svg">
<path d="M62.6177 13.7006C62.6172 11.7285 62.0768 9.79412 61.0551 8.10732C60.0334 6.42052 58.5694 5.04566 56.8218 4.13182C55.0742 3.21799 53.1097 2.80007 51.1415 2.92339C49.1732 3.04672 47.2763 3.70657 45.6565 4.8314C44.0366 5.95622 42.7556 7.50308 41.9524 9.30422C41.1493 11.1054 40.8546 13.092 41.1003 15.0487C41.346 17.0055 42.1228 18.8576 43.3463 20.4042C44.5699 21.9508 46.1936 23.133 48.0413 23.8223C47.9424 24.9458 47.4574 26.0002 46.6686 26.8062C46.6686 26.8062 50.2173 26.7575 52.1448 24.494C54.951 24.4093 57.6139 23.235 59.569 21.2201C61.5241 19.2052 62.6176 16.5081 62.6177 13.7006V13.7006Z" fill="#BDC5D0"/>
<path d="M2.38232 23.8173H40.1836V45.3043H2.38232V23.8173Z" fill="#BDC5D0"/>
<path d="M22.962 41.9155C22.5027 42.9848 22.278 44.1402 22.3032 45.3037H25.9226L27.9045 41.9155H22.962Z" fill="#BDC5D0"/>
<path d="M40.1836 23.8173H42.7899V45.3043H40.1836V23.8173Z" fill="#BDC5D0"/>
<path d="M34.1849 27.1074H8.38082C8.38082 28.5647 7.24651 29.7461 5.84717 29.7461V39.3753C7.24651 39.3753 8.38082 40.5567 8.38082 42.0142H34.1849C34.1849 40.5567 35.3192 39.3753 36.7185 39.3753V29.7461C35.3192 29.7461 34.1849 28.5647 34.1849 27.1074Z" fill="#646C77"/>
<path d="M12.5942 45.3043H34.2225V46.6726C34.2232 47.2821 34.0876 47.884 33.8257 48.4343C33.2782 49.5778 32.5965 50.652 31.795 51.6343C31.2539 52.3007 30.9603 53.1339 30.9641 53.9923V54.238H17.1966C17.0647 53.7651 16.8278 53.3282 16.5035 52.9597L14.3881 50.5555C13.3497 49.3759 12.7306 47.886 12.6272 46.3178C12.6065 46.0038 12.5942 45.6655 12.5942 45.3043V45.3043Z" fill="#E6E9EF"/>
<path d="M24.1257 45.3043H12.5942C12.5942 45.6655 12.6065 46.0038 12.6272 46.3178C12.6336 46.4145 12.6419 46.511 12.6522 46.6073H24.08L24.1257 45.3043Z" fill="#E6E9EF"/>
<path d="M17.1963 54.2374C17.2761 54.5229 17.3166 54.818 17.3166 55.1144V62.1002H30.9636V54.2374H17.1963Z" fill="#E6E9EF"/>
<path d="M25.7089 32.8416C25.4929 33.9146 25.6119 35.4016 26.5747 37.3969C26.6352 37.5211 26.6492 37.6627 26.6143 37.7962C26.5795 37.9298 26.498 38.0465 26.3846 38.1252C25.6042 38.666 23.8529 39.7951 22.9185 42.0134H27.848L29.7651 38.7353L27.9338 32.7511C27.5871 31.62 25.9425 31.6814 25.7089 32.8416V32.8416Z" fill="#646C77"/>
<path d="M24.3681 48.4761C24.3681 48.4761 21.9099 42.0142 28.7007 38.5235L27.1799 35.9293C26.6236 34.9996 26.3612 33.9236 26.427 32.8422C26.4614 32.1957 26.6512 31.567 26.9804 31.0095C27.1008 30.8145 27.2636 30.649 27.4566 30.5254C27.6497 30.4018 27.868 30.3231 28.0956 30.2953C28.3231 30.2675 28.554 30.2913 28.7711 30.3648C28.9882 30.4383 29.1861 30.5597 29.3499 30.72L32.8413 34.131C33.2781 34.5578 33.6252 35.0675 33.8622 35.6303C34.0992 36.1931 34.2212 36.7976 34.2212 37.4082V45.6467L24.3681 48.4761Z" fill="#E6E9EF"/>
<path d="M48.7072 17.9929C48.5769 17.9929 48.4495 17.9543 48.3412 17.8819C48.2328 17.8095 48.1484 17.7066 48.0985 17.5862C48.0486 17.4658 48.0356 17.3333 48.061 17.2055C48.0864 17.0777 48.1492 16.9603 48.2413 16.8682L55.0214 10.0881C55.0826 10.027 55.1552 9.97844 55.2351 9.94532C55.3151 9.91221 55.4007 9.89517 55.4873 9.89517C55.5738 9.89517 55.6595 9.91221 55.7394 9.94532C55.8193 9.97844 55.892 10.027 55.9531 10.0881C56.0143 10.1493 56.0629 10.222 56.096 10.3019C56.1291 10.3818 56.1461 10.4675 56.1461 10.554C56.1461 10.6406 56.1291 10.7262 56.096 10.8062C56.0629 10.8861 56.0143 10.9587 55.9531 11.0199L49.1731 17.8C49.112 17.8612 49.0394 17.9098 48.9594 17.9429C48.8795 17.976 48.7938 17.993 48.7072 17.9929V17.9929Z" fill="#F8F9FD"/>
<path d="M21.806 38.1696H20.5174C20.1062 38.1701 19.704 38.0492 19.3613 37.8221C19.0185 37.5949 18.7505 37.2716 18.5908 36.8927C18.5571 36.813 18.5394 36.7274 18.5388 36.6409C18.5381 36.5544 18.5545 36.4685 18.5871 36.3884C18.6196 36.3082 18.6676 36.2352 18.7283 36.1735C18.789 36.1119 18.8613 36.0628 18.941 36.0291C19.102 35.9611 19.2834 35.9597 19.4453 36.0254C19.6072 36.0911 19.7365 36.2184 19.8045 36.3793C19.8635 36.5196 19.9627 36.6393 20.0895 36.7234C20.2163 36.8075 20.3652 36.8523 20.5174 36.852H21.806C22.0225 36.852 22.2301 36.766 22.3832 36.6129C22.5362 36.4599 22.6222 36.2523 22.6222 36.0358C22.6222 35.8193 22.5362 35.6117 22.3832 35.4587C22.2301 35.3056 22.0225 35.2196 21.806 35.2196H20.5601C19.9942 35.2196 19.4514 34.9948 19.0513 34.5946C18.6511 34.1945 18.4263 33.6517 18.4263 33.0858C18.4263 32.5199 18.6511 31.9771 19.0513 31.5769C19.4514 31.1768 19.9942 30.952 20.5601 30.952H21.8488C22.2809 30.9524 22.7023 31.0865 23.0553 31.3359C23.4082 31.5853 23.6754 31.9377 23.8202 32.3449C23.849 32.4265 23.8616 32.5129 23.857 32.5994C23.8525 32.6858 23.8309 32.7704 23.7937 32.8485C23.7564 32.9266 23.7041 32.9966 23.6398 33.0545C23.5755 33.1124 23.5004 33.1571 23.4188 33.1859C23.3373 33.2148 23.2508 33.2273 23.1644 33.2228C23.078 33.2182 22.9933 33.1967 22.9152 33.1595C22.8371 33.1222 22.7671 33.0699 22.7092 33.0056C22.6513 32.9413 22.6067 32.8662 22.5778 32.7846C22.5242 32.6341 22.4253 32.5038 22.2947 32.4116C22.1641 32.3195 22.0082 32.2699 21.8484 32.2698H20.5597C20.3433 32.2698 20.1357 32.3558 19.9826 32.5089C19.8295 32.6619 19.7435 32.8695 19.7435 33.086C19.7435 33.3024 19.8295 33.51 19.9826 33.6631C20.1357 33.8162 20.3433 33.9022 20.5597 33.9022H21.8057C22.3716 33.9022 22.9143 34.127 23.3145 34.5272C23.7147 34.9273 23.9395 35.4701 23.9395 36.036C23.9395 36.6019 23.7147 37.1447 23.3145 37.5448C22.9143 37.945 22.3716 38.1698 21.8057 38.1698L21.806 38.1696Z" fill="#F8F9FD"/>
<path d="M21.1827 32.2696C21.008 32.2696 20.8404 32.2002 20.7169 32.0766C20.5933 31.9531 20.5239 31.7855 20.5239 31.6108V30.6335C20.5239 30.4587 20.5933 30.2912 20.7169 30.1676C20.8404 30.0441 21.008 29.9746 21.1827 29.9746C21.3575 29.9746 21.525 30.0441 21.6486 30.1676C21.7721 30.2912 21.8416 30.4587 21.8416 30.6335V31.6108C21.8416 31.7855 21.7721 31.9531 21.6486 32.0766C21.525 32.2002 21.3575 32.2696 21.1827 32.2696V32.2696Z" fill="#F8F9FD"/>
<path d="M21.1827 39.147C21.008 39.147 20.8404 39.0776 20.7169 38.954C20.5933 38.8305 20.5239 38.6629 20.5239 38.4881V37.5108C20.5239 37.3361 20.5933 37.1685 20.7169 37.045C20.8404 36.9214 21.008 36.852 21.1827 36.852C21.3575 36.852 21.525 36.9214 21.6486 37.045C21.7721 37.1685 21.8416 37.3361 21.8416 37.5108V38.4881C21.8416 38.6629 21.7721 38.8305 21.6486 38.954C21.525 39.0776 21.3575 39.147 21.1827 39.147V39.147Z" fill="#F8F9FD"/>
<path d="M54.7939 17.4647C55.2489 17.4647 55.6177 17.0959 55.6177 16.641C55.6177 16.1861 55.2489 15.8173 54.7939 15.8173C54.339 15.8173 53.9702 16.1861 53.9702 16.641C53.9702 17.0959 54.339 17.4647 54.7939 17.4647Z" fill="#F8F9FD"/>
<path d="M49.4004 12.0708C49.8553 12.0708 50.2241 11.702 50.2241 11.2471C50.2241 10.7922 49.8553 10.4234 49.4004 10.4234C48.9455 10.4234 48.5767 10.7922 48.5767 11.2471C48.5767 11.702 48.9455 12.0708 49.4004 12.0708Z" fill="#F8F9FD"/>
<path d="M22.3032 46.2963C22.3032 46.2963 22.5026 48.6481 24.0538 50.0168C24.1158 50.0701 24.1938 50.1014 24.2754 50.1056C24.3571 50.1099 24.4379 50.0869 24.5051 50.0403C24.5723 49.9937 24.6221 49.9261 24.6468 49.8481C24.6714 49.7702 24.6695 49.6862 24.6413 49.6095C24.2784 48.6454 24.0547 47.6345 23.977 46.6073L22.3032 46.2963Z" fill="#E6E9EF"/>
</svg>
