<svg width="48" height="48" viewBox="0 0 48 48" fill="none" xmlns="http://www.w3.org/2000/svg">
<rect opacity="0.6" width="48" height="48" rx="8" fill="#EFEFF2"/>
<path fill-rule="evenodd" clip-rule="evenodd" d="M25.3334 26.6412C27.7806 24.5624 29.3334 21.4625 29.3334 18C29.3334 14.5373 27.7805 11.4373 25.3331 9.3584C25.5531 9.34166 25.7755 9.33313 25.9999 9.33313C30.7864 9.33313 34.6666 13.2133 34.6666 17.9998C34.6666 22.7863 30.7864 26.6665 25.9999 26.6665C25.7756 26.6665 25.5534 26.6579 25.3334 26.6412Z" fill="#00D092"/>
<path fill-rule="evenodd" clip-rule="evenodd" d="M18 26.6666C22.7864 26.6666 26.6666 22.7864 26.6666 17.9999C26.6666 13.2135 22.7864 9.33325 18 9.33325C13.2135 9.33325 9.33331 13.2135 9.33331 17.9999C9.33331 22.7864 13.2135 26.6666 18 26.6666ZM18.6767 20.9168V22H17.5489V20.9389C16.7895 20.8432 16.2632 20.5411 16 20.0474L16.8797 19.5021C17.1128 19.8853 17.4737 20.0547 18.0677 20.0547C18.6165 20.0547 18.8947 19.8779 18.8947 19.5168C18.8947 19.3326 18.8045 19.1632 18.6692 19.0821C18.6401 19.0636 18.6166 19.0486 18.5922 19.0353C18.4906 18.98 18.3733 18.9535 17.7669 18.8168C16.6767 18.5589 16.2331 18.1095 16.2331 17.2621C16.2331 16.4295 16.6617 15.9505 17.5489 15.8032V15H18.6767V15.8326C19.2256 15.9358 19.6241 16.2084 19.8571 16.6284L19 17.1589C18.7519 16.8126 18.4662 16.6726 18.0226 16.6726C17.5865 16.6726 17.3383 16.8568 17.3383 17.1737C17.3383 17.5421 17.5714 17.7116 18.3459 17.8958C19.015 18.0505 19.203 18.1168 19.4662 18.2863C19.8271 18.5074 20 18.8905 20 19.4284C20 20.2979 19.5865 20.7621 18.6767 20.9168Z" fill="#00D092"/>
<path d="M27.7841 38H19.3333L8 29.3333L8.06857 29.2876C9.26292 28.4913 10.7923 28.3961 12.0762 29.0381L12.6667 29.3333L18.0626 32.331C18.4588 32.5511 18.9045 32.6666 19.3577 32.6666H23.3333L21.3333 32C20.2288 31.6318 19.6318 30.4379 20 29.3333H32.1603C33.328 29.3333 34.4374 29.8435 35.1973 30.7301L38 34L33.3333 40L31.9001 39.14C30.6568 38.394 29.2341 38 27.7841 38Z" fill="#00D092"/>
</svg>
