<svg width="43" height="36" viewBox="0 0 43 36" fill="none" xmlns="http://www.w3.org/2000/svg">
<path d="M38.7507 1.00965C38.7507 1.00965 42.6695 -0.518415 42.3429 3.19261C42.2341 4.7207 41.2544 10.0689 40.4924 15.8538L37.8799 32.9901C37.8799 32.9901 37.6622 35.5004 35.7027 35.9371C33.7433 36.3736 30.8042 34.409 30.2599 33.9724C29.8245 33.645 22.0958 28.7333 19.3743 26.332C18.6123 25.6771 17.7414 24.3673 19.4831 22.8393L30.9131 11.9245C32.2193 10.6147 33.5256 7.55857 28.0828 11.2696L12.8429 21.6387C12.8429 21.6387 11.1012 22.7301 7.83561 21.7478L0.75992 19.5649C0.75992 19.5649 -1.85263 17.9276 2.61048 16.2903C13.4961 11.1604 26.8854 5.92127 38.7507 1.00965Z" fill="white"/>
</svg>
