<svg width="24" height="24" viewBox="0 0 24 24" fill="none" xmlns="http://www.w3.org/2000/svg">
<path fill-rule="evenodd" clip-rule="evenodd" d="M0 12C0 18.6281 5.37188 24 12 24C18.6281 24 24 18.6281 24 12C24 5.37188 18.6281 0 12 0C5.37188 0 0 5.37188 0 12Z" fill="#F84752"/>
<path d="M7.76031 8.29053C7.46742 8.58342 7.46742 9.05829 7.76031 9.35119L10.412 12.0029L7.7602 14.6547C7.4673 14.9476 7.4673 15.4224 7.7602 15.7153L8.29053 16.2456C8.58342 16.5385 9.05829 16.5385 9.35119 16.2456L12.003 13.5939L14.6546 16.2455C14.9475 16.5384 15.4224 16.5384 15.7153 16.2455L16.2456 15.7151C16.5385 15.4223 16.5385 14.9474 16.2456 14.6545L13.594 12.0029L16.2455 9.35136C16.5384 9.05846 16.5384 8.58359 16.2455 8.2907L15.7151 7.76037C15.4223 7.46747 14.9474 7.46747 14.6545 7.76037L12.003 10.4119L9.3513 7.7602C9.05841 7.4673 8.58354 7.4673 8.29064 7.7602L7.76031 8.29053Z" fill="white"/>
</svg>
