<svg width="45" height="36" viewBox="0 0 45 36" fill="none" xmlns="http://www.w3.org/2000/svg">
<path d="M45.0009 4.40801C43.3457 5.1273 41.5659 5.61419 39.6977 5.83263C41.6045 4.71317 43.069 2.94009 43.7576 0.827424C41.9734 1.86479 39.998 2.61729 37.8946 3.02275C36.2113 1.26421 33.8112 0.16626 31.1553 0.16626C26.0565 0.16626 21.923 4.2159 21.923 9.21205C21.923 9.92114 22.004 10.6119 22.1623 11.2739C14.4885 10.8967 7.68624 7.29507 3.13216 1.82243C2.33788 3.15853 1.88236 4.71213 1.88236 6.37018C1.88236 9.50804 3.51235 12.2771 5.9894 13.8991C4.47607 13.8521 3.05221 13.4453 1.808 12.7677C1.80704 12.8055 1.80704 12.8433 1.80704 12.882C1.80704 17.2647 4.98889 20.9208 9.21267 21.7519C8.43804 21.9585 7.62228 22.0697 6.7807 22.0697C6.18504 22.0697 5.6071 22.0129 5.04351 21.9067C6.21788 25.501 9.62744 28.1162 13.6677 28.1891C10.5084 30.6159 6.52756 32.0619 2.20129 32.0619C1.45584 32.0619 0.720897 32.0194 -0.000854492 31.9355C4.08528 34.5016 8.93777 36.0001 14.1523 36.0001C31.1336 36.0001 40.4204 22.2157 40.4204 10.2613C40.4204 9.86849 40.4119 9.47851 40.3942 9.09023C42.1984 7.81517 43.7634 6.2227 45.0009 4.40801Z" fill="white"/>
</svg>
