<svg width="1440" height="40" viewBox="0 0 1440 40" fill="none" xmlns="http://www.w3.org/2000/svg">
<path fill-rule="evenodd" clip-rule="evenodd" d="M1440 39.009H0V14.947H143.883L151.536 6.864H164.457L180.425 23.97L180.448 23.947L180.466 23.97L189.637 14.955H335.24L338.538 18.492L333.03 23.97H344.034L338.538 18.492L341.843 14.955H423.556L428.25 10.512L437.496 1.292L443.662 7L474.909 6.989H479.918L492.577 19.917H526.208L533.447 12.891L607.708 12.929L613.479 18.488L622.128 9.864L625.019 12.929L790.18 12.891L802.941 0L826.992 23.97L826.999 23.958L827.011 23.97L836.063 14.947H839.905L842.004 17.04L838.669 20.353H845.325L842.004 17.04L844.066 14.989L921.999 14.957V14.947L936.029 14.951L943.999 14.947V14.953L1097.93 14.989L1099.99 17.04L1096.67 20.353H1103.33L1099.99 17.04L1102.09 14.947H1105.94L1114.99 23.97L1115 23.958L1115.01 23.97L1139.06 0L1151.82 12.891L1240.98 12.929L1243.87 9.864L1252.52 18.488L1258.29 12.991L1440 12.953V39.009ZM213.623 18.791H211.888V23.97H213.623V18.791ZM216.247 18.791H214.517V23.97H216.247V18.791ZM228.369 18.791H226.639V23.97H228.369V18.791ZM249.167 18.791H243.972V23.97H249.167V18.791ZM456.674 12.282H454.94V14.007H456.674V12.282ZM463.315 12.282H461.581V17.46H463.315V12.282ZM476.75 12.282H475.016V14.007H476.75V12.282ZM476.75 15.736H475.016V17.46H476.75V15.736ZM335.213 14.928H341.87L341.843 14.955H335.24L335.213 14.928ZM626.221 5.91L622.128 9.864L618.024 5.91H626.221ZM1247.97 5.91L1243.87 9.864L1239.78 5.91H1247.97Z" fill="#FF8E3D"/>
</svg>
