<svg width="1440" height="41" viewBox="0 0 1440 41" fill="none" xmlns="http://www.w3.org/2000/svg">
<path fill-rule="evenodd" clip-rule="evenodd" d="M0 0.998814H1440V25.0608H1296.12L1288.46 33.1438H1275.54L1259.58 16.0378L1259.55 16.0608L1259.53 16.0378L1250.36 25.0528H1104.76L1101.46 21.5158L1106.97 16.0378H1095.97L1101.46 21.5158L1098.16 25.0528H1016.44L1011.75 29.4958L1002.5 38.7158L996.338 33.0078L965.091 33.0188H960.082L947.423 20.0908H913.792L906.553 27.1168L832.292 27.0788L826.521 21.5198L817.872 30.1438L814.981 27.0788L649.82 27.1168L637.059 40.0078L613.008 16.0378L613.001 16.0498L612.989 16.0378L603.937 25.0608H600.095L597.996 22.9678L601.331 19.6548H594.675L597.996 22.9678L595.934 25.0188L518.001 25.0508V25.0608L503.971 25.0568L496.001 25.0608V25.0548L342.068 25.0188L340.007 22.9678L343.327 19.6548H336.67L340.007 22.9678L337.907 25.0608H334.065L325.012 16.0378L325.001 16.0498L324.994 16.0378L300.943 40.0078L288.182 27.1168L199.021 27.0788L196.13 30.1438L187.481 21.5198L181.711 27.0168L0 27.0548V0.998814ZM1226.38 21.2168H1228.11V16.0378H1226.38V21.2168ZM1223.75 21.2168H1225.48V16.0378H1223.75V21.2168ZM1211.63 21.2168H1213.36V16.0378H1211.63V21.2168ZM1190.83 21.2168H1196.03V16.0378H1190.83V21.2168ZM983.326 27.7258H985.06V26.0008H983.326V27.7258ZM976.685 27.7258H978.419V22.5478H976.685V27.7258ZM963.25 27.7258H964.984V26.0008H963.25V27.7258ZM963.25 24.2718H964.984V22.5478H963.25V24.2718ZM1104.79 25.0798H1098.13L1098.16 25.0528H1104.76L1104.79 25.0798ZM813.779 34.0978L817.872 30.1438L821.976 34.0978H813.779ZM192.026 34.0978L196.13 30.1438L200.223 34.0978H192.026Z" fill="#FF8E3D"/>
</svg>
