<svg width="20" height="20" viewBox="0 0 20 20" fill="none" xmlns="http://www.w3.org/2000/svg">
<path d="M17 9H14C12.8954 9 12 9.89543 12 11V11C12 12.1046 12.8954 13 14 13H17" stroke="#00D092" stroke-width="1.5" stroke-linecap="round" stroke-linejoin="round"/>
<path d="M13 6C13 4.33333 11.6875 4 11.125 4C9.87501 4 7.0375 4 5.6875 4C4.3375 4 4 4.95522 4 5.43283V6" stroke="#00D092" stroke-width="1.5" stroke-linecap="round" stroke-linejoin="round"/>
<path d="M16.2632 6H3.73684C3.3299 6 3 6.3444 3 6.76923V15.2308C3 15.6556 3.3299 16 3.73684 16H16.2632C16.6701 16 17 15.6556 17 15.2308V6.76923C17 6.3444 16.6701 6 16.2632 6Z" stroke="#00D092" stroke-width="1.5" stroke-linecap="round" stroke-linejoin="round"/>
</svg>
